<svg fill="none" height="19" viewBox="0 0 138 19" width="138" xmlns="http://www.w3.org/2000/svg">
    <path
        d="M11.976 15.024H5.688L4.68 18H0.384L6.48 1.152H11.232L17.328 18H12.984L11.976 15.024ZM10.92 11.856L8.832 5.688L6.768 11.856H10.92ZM27.7753 18L24.2713 11.64H23.2873V18H19.1833V1.152H26.0713C27.3993 1.152 28.5273 1.384 29.4553 1.848C30.3993 2.312 31.1033 2.952 31.5673 3.768C32.0313 4.568 32.2633 5.464 32.2633 6.456C32.2633 7.576 31.9433 8.576 31.3033 9.456C30.6793 10.336 29.7513 10.96 28.5193 11.328L32.4073 18H27.7753ZM23.2873 8.736H25.8313C26.5833 8.736 27.1433 8.552 27.5113 8.184C27.8953 7.816 28.0873 7.296 28.0873 6.624C28.0873 5.984 27.8953 5.48 27.5113 5.112C27.1433 4.744 26.5833 4.56 25.8313 4.56H23.2873V8.736ZM34.1436 9.552C34.1436 7.888 34.5036 6.408 35.2236 5.112C35.9436 3.8 36.9436 2.784 38.2236 2.064C39.5196 1.328 40.9836 0.959999 42.6156 0.959999C44.6156 0.959999 46.3276 1.488 47.7516 2.544C49.1756 3.6 50.1276 5.04 50.6076 6.864H46.0956C45.7596 6.16 45.2796 5.624 44.6556 5.256C44.0476 4.888 43.3516 4.704 42.5676 4.704C41.3036 4.704 40.2796 5.144 39.4956 6.024C38.7116 6.904 38.3196 8.08 38.3196 9.552C38.3196 11.024 38.7116 12.2 39.4956 13.08C40.2796 13.96 41.3036 14.4 42.5676 14.4C43.3516 14.4 44.0476 14.216 44.6556 13.848C45.2796 13.48 45.7596 12.944 46.0956 12.24H50.6076C50.1276 14.064 49.1756 15.504 47.7516 16.56C46.3276 17.6 44.6156 18.12 42.6156 18.12C40.9836 18.12 39.5196 17.76 38.2236 17.04C36.9436 16.304 35.9436 15.288 35.2236 13.992C34.5036 12.696 34.1436 11.216 34.1436 9.552ZM63.6088 15.024H57.3208L56.3128 18H52.0168L58.1128 1.152H62.8648L68.9608 18H64.6168L63.6088 15.024ZM62.5528 11.856L60.4648 5.688L58.4008 11.856H62.5528ZM77.1281 1.152C78.9041 1.152 80.4561 1.504 81.7841 2.208C83.1121 2.912 84.1361 3.904 84.8561 5.184C85.5921 6.448 85.9601 7.912 85.9601 9.576C85.9601 11.224 85.5921 12.688 84.8561 13.968C84.1361 15.248 83.1041 16.24 81.7601 16.944C80.4321 17.648 78.8881 18 77.1281 18H70.8161V1.152H77.1281ZM76.8641 14.448C78.4161 14.448 79.6241 14.024 80.4881 13.176C81.3521 12.328 81.7841 11.128 81.7841 9.576C81.7841 8.024 81.3521 6.816 80.4881 5.952C79.6241 5.088 78.4161 4.656 76.8641 4.656H74.9201V14.448H76.8641ZM92.3576 4.44V7.848H97.8536V11.016H92.3576V14.712H98.5736V18H88.2536V1.152H98.5736V4.44H92.3576ZM120.318 1.152V18H116.214V7.896L112.446 18H109.134L105.342 7.872V18H101.238V1.152H106.086L110.814 12.816L115.494 1.152H120.318ZM137.717 1.152L131.885 12.432V18H127.781V12.432L121.949 1.152H126.605L129.869 8.208L133.109 1.152H137.717Z"
        fill="#866EE0" />
</svg>
