<svg fill="none" height="122" viewBox="0 0 126 122" width="126" xmlns="http://www.w3.org/2000/svg">
    <path
        d="M8.42956 62.813V21.3191C8.42956 11.7546 16.1553 4 25.6842 4H101.622C111.15 4 118.876 11.7546 118.876 21.3191V60.262C118.876 69.8265 111.15 77.581 101.622 77.581H93.0813C92.3942 77.581 92.0071 78.3737 92.4284 78.9182L121.545 116.663C121.965 117.207 121.579 118 120.892 118H87.0873C86.809 118 86.5494 117.86 86.3955 117.626L63.6536 86.5698C63.3412 86.0908 62.651 86.0658 62.3059 86.5214L40.363 117.674C40.206 117.88 39.9635 118 39.7055 118H4.82786C4.14078 118 3.75372 117.209 4.17498 116.663L62.2406 41.3608C62.5608 40.9458 63.1795 40.9302 63.5215 41.328L76.1733 56.1288"
        stroke="#866EE0" stroke-linecap="round" stroke-miterlimit="10" stroke-width="8" />
    <path
        d="M25.5086 25.4991C27.6531 25.4991 29.3916 23.7541 29.3916 21.6015C29.3916 19.4489 27.6531 17.7039 25.5086 17.7039C23.364 17.7039 21.6255 19.4489 21.6255 21.6015C21.6255 23.7541 23.364 25.4991 25.5086 25.4991Z"
        fill="#866EE0" />
</svg>
