<svg fill="none" height="335" viewBox="0 0 335 335" width="335" xmlns="http://www.w3.org/2000/svg">
    <path
        d="M164.686 319.684C249.16 319.684 317.64 281.768 317.64 234.996C317.64 188.224 249.16 150.308 164.686 150.308C80.2117 150.308 11.7317 188.224 11.7317 234.996C11.7317 281.768 80.2117 319.684 164.686 319.684Z"
        fill="#F0F0F0" />
    <path
        d="M178.274 285.514C206.533 285.514 229.442 272.831 229.442 257.186C229.442 241.541 206.533 228.858 178.274 228.858C150.014 228.858 127.106 241.541 127.106 257.186C127.106 272.831 150.014 285.514 178.274 285.514Z"
        fill="#E0E0E0" />
    <path
        d="M270.291 254.372C284.508 254.372 296.033 247.992 296.033 240.121C296.033 232.25 284.508 225.87 270.291 225.87C256.075 225.87 244.55 232.25 244.55 240.121C244.55 247.992 256.075 254.372 270.291 254.372Z"
        fill="#E0E0E0" />
    <path
        d="M69.9078 272.114C96.8201 272.114 118.637 260.034 118.637 245.133C118.637 230.232 96.8201 218.152 69.9078 218.152C42.9955 218.152 21.1787 230.232 21.1787 245.133C21.1787 260.034 42.9955 272.114 69.9078 272.114Z"
        fill="#E0E0E0" />
    <path
        d="M257.327 243.337C250.433 236.309 246.386 207.68 253.106 202.099H287.316C294.016 207.68 289.996 236.269 283.108 243.33L282.921 243.525L282.68 243.759C282.485 243.947 282.278 244.134 282.057 244.315L281.896 244.443L281.373 244.838C281.086 245.043 280.789 245.234 280.482 245.407C274.814 248.677 265.615 248.677 259.947 245.407C259.645 245.233 259.344 245.039 259.049 244.831C258.881 244.711 258.72 244.59 258.566 244.463L258.359 244.302C258.151 244.128 257.95 243.954 257.762 243.773L257.488 243.505L257.327 243.337Z"
        fill="#37474F" />
    <path
        d="M284.348 199.854C292.153 204.364 292.153 211.667 284.348 216.176C276.542 220.685 263.886 220.685 256.081 216.176C248.275 211.667 248.275 204.364 256.081 199.854C263.886 195.345 276.542 195.345 284.348 199.854Z"
        fill="#455A64" />
    <path
        d="M280.596 202.025C286.324 205.335 286.324 210.695 280.596 214.005C274.867 217.315 265.568 217.315 259.826 214.005C254.084 210.695 254.097 205.335 259.826 202.025C265.554 198.716 274.861 198.716 280.596 202.025Z"
        fill="#263238" />
    <path
        d="M259.833 207.7C265.568 204.39 274.861 204.39 280.603 207.7C281.989 208.447 283.167 209.527 284.033 210.842C283.17 212.161 281.99 213.244 280.603 213.991C274.867 217.301 265.575 217.301 259.833 213.991C258.446 213.242 257.267 212.16 256.402 210.842C257.27 209.529 258.448 208.449 259.833 207.7Z"
        fill="#F5F5F5" />
    <path
        d="M273.548 198.668L268.67 195.178C268.67 195.178 264.65 174.093 268.127 165.028C271.605 155.963 277.99 155.996 281.038 158.428C284.087 160.86 282.418 168.478 281.172 172.873C279.665 178.173 274.874 201.918 278.251 210.34L273.548 198.668Z"
        fill="#151D31" />
    <g opacity="0.2">
        <path
            d="M273.548 198.668L268.67 195.178C268.67 195.178 264.65 174.093 268.127 165.028C271.605 155.963 277.99 155.996 281.038 158.428C284.087 160.86 282.418 168.478 281.172 172.873C279.665 178.173 274.874 201.918 278.251 210.34L273.548 198.668Z"
            fill="black" />
    </g>
    <path
        d="M272.569 196.216C272.659 196.179 272.733 196.112 272.778 196.027C272.823 195.941 272.837 195.842 272.817 195.747C268.837 177.718 277.052 160.961 277.132 160.793C277.181 160.697 277.189 160.584 277.155 160.481C277.121 160.378 277.048 160.293 276.951 160.244C276.854 160.195 276.742 160.187 276.639 160.221C276.536 160.255 276.451 160.328 276.402 160.425C276.315 160.592 267.973 177.604 272.013 195.935C272.037 196.041 272.102 196.133 272.194 196.192C272.285 196.251 272.396 196.272 272.502 196.25L272.569 196.216Z"
        fill="white" />
    <path
        d="M271.444 193.181C271.444 193.181 270.894 191.526 273.333 191.104C275.772 190.682 276.683 188.652 276.938 185.248C277.192 181.845 278.197 179.406 281.253 178.903C284.308 178.401 286.773 179.942 288.763 178.408C290.753 176.873 295.892 173.175 300.153 174.863C304.415 176.552 303.028 180.223 300.823 182.568C298.619 184.913 297.956 185.737 299.658 189.59C301.359 193.442 300.12 197.04 296.187 197.945C292.254 198.849 290.05 198.38 289.989 202.702C289.929 206.561 289.145 210.172 285.118 211.633C281.932 212.787 278.507 213.125 275.156 212.618C274.028 212.519 272.959 212.074 272.094 211.345C271.276 210.521 271.424 209.603 271.424 208.531V193.181H271.444Z"
        fill="#151D31" />
    <g opacity="0.1">
        <path
            d="M271.444 193.181C271.444 193.181 270.894 191.526 273.333 191.104C275.772 190.682 276.683 188.652 276.938 185.248C277.192 181.845 278.197 179.406 281.253 178.903C284.308 178.401 286.773 179.942 288.763 178.408C290.753 176.873 295.892 173.175 300.153 174.863C304.415 176.552 303.028 180.223 300.823 182.568C298.619 184.913 297.956 185.737 299.658 189.59C301.359 193.442 300.12 197.04 296.187 197.945C292.254 198.849 290.05 198.38 289.989 202.702C289.929 206.561 289.145 210.172 285.118 211.633C281.932 212.787 278.507 213.125 275.156 212.618C274.028 212.519 272.959 212.074 272.094 211.345C271.276 210.521 271.424 209.603 271.424 208.531V193.181H271.444Z"
            fill="black" />
    </g>
    <path
        d="M271.444 210.976C271.515 210.977 271.585 210.954 271.643 210.912C271.701 210.87 271.744 210.81 271.765 210.742C278.928 189.469 295.148 180.873 295.309 180.793C295.389 180.751 295.448 180.68 295.476 180.595C295.504 180.51 295.497 180.417 295.457 180.337C295.437 180.297 295.409 180.262 295.375 180.233C295.341 180.203 295.302 180.181 295.26 180.168C295.217 180.154 295.173 180.149 295.128 180.153C295.084 180.156 295.04 180.169 295.001 180.19C294.833 180.277 278.378 188.98 271.122 210.527C271.108 210.57 271.102 210.614 271.104 210.659C271.107 210.703 271.119 210.747 271.139 210.787C271.159 210.827 271.187 210.862 271.221 210.891C271.255 210.921 271.294 210.943 271.337 210.956C271.371 210.97 271.407 210.977 271.444 210.976Z"
        fill="white" />
    <path
        d="M281.722 192.431H281.795C286.485 191.366 293.962 191.942 294.036 191.948C294.126 191.956 294.215 191.928 294.284 191.87C294.353 191.812 294.396 191.73 294.405 191.64C294.408 191.595 294.403 191.55 294.389 191.507C294.375 191.464 294.353 191.425 294.324 191.39C294.295 191.356 294.259 191.328 294.219 191.308C294.178 191.287 294.135 191.275 294.09 191.272C293.782 191.272 286.425 190.682 281.648 191.774C281.57 191.796 281.503 191.845 281.457 191.912C281.412 191.979 281.392 192.06 281.401 192.14C281.41 192.221 281.447 192.295 281.506 192.351C281.564 192.407 281.641 192.44 281.722 192.444V192.431Z"
        fill="white" />
    <path
        d="M277.909 202.655C280.047 202.655 282.311 202.514 282.459 202.507C282.503 202.505 282.547 202.493 282.587 202.474C282.627 202.454 282.663 202.427 282.692 202.393C282.722 202.359 282.744 202.32 282.758 202.277C282.772 202.235 282.777 202.19 282.773 202.146C282.772 202.101 282.761 202.057 282.742 202.016C282.722 201.975 282.695 201.939 282.661 201.91C282.627 201.88 282.587 201.858 282.544 201.844C282.502 201.831 282.456 201.826 282.412 201.831C282.365 201.831 277.139 202.152 275.095 201.831C275.007 201.819 274.917 201.842 274.845 201.894C274.773 201.946 274.723 202.024 274.707 202.112C274.693 202.201 274.715 202.291 274.768 202.364C274.82 202.437 274.9 202.486 274.988 202.501C275.957 202.62 276.933 202.671 277.909 202.655Z"
        fill="white" />
    <path
        d="M283.919 189.931C283.964 189.929 284.007 189.918 284.048 189.898C284.088 189.878 284.124 189.851 284.153 189.817C284.182 189.783 284.205 189.744 284.219 189.702C284.232 189.659 284.238 189.614 284.234 189.57C284.071 187.137 283.568 184.74 282.74 182.448C282.706 182.364 282.64 182.298 282.558 182.261C282.476 182.225 282.382 182.222 282.298 182.253C282.256 182.269 282.218 182.294 282.186 182.325C282.154 182.356 282.128 182.394 282.111 182.435C282.093 182.476 282.084 182.52 282.084 182.565C282.084 182.61 282.093 182.654 282.11 182.695C282.914 184.922 283.41 187.249 283.584 189.61C283.588 189.696 283.624 189.778 283.687 189.838C283.749 189.898 283.833 189.932 283.919 189.931Z"
        fill="white" />
    <path
        d="M271.35 213.281C267.977 214.314 264.392 214.446 260.952 213.663C254.989 212.383 253.548 208.739 253.548 208.739C253.548 208.739 257.796 204.323 261.555 204.049C257.803 203.49 253.983 203.571 250.258 204.29C250.258 204.29 246.808 203.017 247.458 197.248C247.458 197.248 250.707 194.883 258.178 195.808C258.178 195.808 254.432 193.168 247.86 192.384C247.344 192.384 248.047 184.88 248.67 181.53C249.294 178.18 250.54 178.703 253.226 178.991C255.913 179.279 264.369 182.073 265.374 183.996C266.379 185.918 265.374 190.803 265.374 190.803C265.374 190.803 267.832 188.793 268.375 186.327C270.262 186.498 272.052 187.239 273.507 188.451C275.872 190.461 275.189 191.727 274.419 193.717C273.658 195.727 272.613 197.618 271.316 199.332C271.316 199.332 273.836 198.421 276.228 192.417C276.228 192.417 278.7 197.014 279.135 200.303C279.571 203.593 276.449 210.595 271.35 213.281Z"
        fill="#151D31" />
    <path
        d="M271.196 213.596C271.136 213.573 271.083 213.534 271.044 213.484C271.005 213.433 270.981 213.372 270.975 213.308C270.077 202.139 257.434 184.685 251.846 181.181C251.77 181.133 251.716 181.057 251.696 180.969C251.676 180.881 251.692 180.789 251.739 180.712C251.79 180.639 251.866 180.587 251.953 180.567C252.04 180.547 252.131 180.561 252.208 180.605C257.89 184.169 270.734 201.904 271.638 213.254C271.642 213.298 271.637 213.342 271.623 213.384C271.61 213.426 271.588 213.465 271.559 213.499C271.531 213.533 271.496 213.56 271.456 213.58C271.417 213.6 271.374 213.612 271.33 213.616C271.284 213.621 271.238 213.614 271.196 213.596Z"
        fill="white" />
    <path
        d="M70.35 269.012C70.0781 269.012 69.8174 268.904 69.6252 268.711C69.4329 268.519 69.3249 268.258 69.3249 267.987V202.119C69.3249 201.847 69.4329 201.586 69.6252 201.394C69.8174 201.202 70.0781 201.094 70.35 201.094C70.6219 201.094 70.8826 201.202 71.0749 201.394C71.2671 201.586 71.3751 201.847 71.3751 202.119V268C71.3716 268.269 71.262 268.527 71.0702 268.716C70.8783 268.906 70.6196 269.012 70.35 269.012Z"
        fill="#455A64" />
    <path
        d="M111.086 245.039C110.878 245.037 110.676 244.972 110.506 244.852C110.336 244.733 110.207 244.564 110.135 244.369L89.9408 193.248C89.8622 193.001 89.8806 192.733 89.9921 192.498C90.1037 192.263 90.3001 192.08 90.5418 191.985C90.7834 191.889 91.0523 191.889 91.2939 191.985C91.5356 192.08 91.732 192.263 91.8436 192.498L112.037 243.619C112.089 243.745 112.116 243.879 112.115 244.015C112.114 244.151 112.086 244.286 112.032 244.41C111.978 244.535 111.9 244.648 111.802 244.742C111.704 244.837 111.588 244.91 111.461 244.959C111.342 245.009 111.215 245.036 111.086 245.039Z"
        fill="#455A64" />
    <path
        d="M108.661 238.895C108.521 238.896 108.383 238.868 108.255 238.812C108.127 238.757 108.012 238.676 107.917 238.574L70.35 198.809L32.83 238.406C32.7398 238.512 32.629 238.599 32.5043 238.66C32.3796 238.722 32.2437 238.758 32.1048 238.765C31.9659 238.773 31.8269 238.752 31.6964 238.704C31.5658 238.656 31.4464 238.582 31.3453 238.486C31.2443 238.391 31.1637 238.275 31.1086 238.148C31.0535 238.02 31.0249 237.882 31.0247 237.743C31.0244 237.604 31.0525 237.467 31.1071 237.339C31.1618 237.211 31.2419 237.095 31.3426 236.999L69.5996 196.612C69.6982 196.514 69.8154 196.437 69.9442 196.385C70.0731 196.333 70.2111 196.308 70.35 196.31C70.4892 196.311 70.6268 196.34 70.7545 196.396C70.8823 196.451 70.9976 196.531 71.0937 196.632L109.404 237.18C109.542 237.326 109.633 237.508 109.668 237.705C109.703 237.902 109.679 238.105 109.6 238.289C109.521 238.473 109.39 238.629 109.223 238.739C109.056 238.85 108.861 238.908 108.661 238.909V238.895Z"
        fill="#455A64" />
    <path
        d="M29.5872 245.039C29.4586 245.038 29.3314 245.013 29.212 244.966C29.0851 244.917 28.9692 244.843 28.8712 244.749C28.7732 244.655 28.695 244.542 28.6413 244.417C28.5876 244.292 28.5595 244.158 28.5585 244.022C28.5576 243.886 28.5838 243.751 28.6358 243.626L48.8296 192.505C48.9291 192.251 49.1251 192.048 49.3745 191.939C49.624 191.831 49.9063 191.826 50.1595 191.925C50.4128 192.025 50.6161 192.221 50.7248 192.47C50.8335 192.719 50.8386 193.002 50.7391 193.255L30.5386 244.376C30.4655 244.57 30.3355 244.737 30.1657 244.855C29.9959 244.974 29.7942 245.038 29.5872 245.039Z"
        fill="#455A64" />
    <path
        d="M109.692 237.321L112.372 244.363C112.379 244.423 112.379 244.483 112.372 244.543C112.379 244.586 112.379 244.629 112.372 244.671C112.301 244.866 112.157 245.027 111.97 245.12C111.719 245.245 111.441 245.311 111.16 245.311C110.878 245.311 110.601 245.245 110.349 245.12C110.209 245.046 110.099 244.928 110.034 244.785V244.691L107.562 238.085L109.692 237.321Z"
        fill="#151D31" />
    <path
        d="M30.9808 237.321L28.3008 244.363C28.2942 244.423 28.2942 244.483 28.3008 244.543C28.2942 244.586 28.2942 244.629 28.3008 244.671C28.3722 244.866 28.5161 245.027 28.7028 245.12C28.9546 245.245 29.2321 245.311 29.5135 245.311C29.7949 245.311 30.0724 245.245 30.3242 245.12C30.4637 245.046 30.5746 244.928 30.6391 244.785V244.691L33.1181 238.085L30.9808 237.321Z"
        fill="#151D31" />
    <path
        d="M71.5158 262.888V268.717C71.5064 268.82 71.4698 268.919 71.4098 269.004C71.3498 269.089 71.2685 269.156 71.1741 269.199C70.9137 269.328 70.6271 269.395 70.3366 269.395C70.0461 269.395 69.7595 269.328 69.4991 269.199C69.4047 269.156 69.3234 269.089 69.2634 269.004C69.2034 268.919 69.1669 268.82 69.1574 268.717V262.888C69.52 262.693 69.9251 262.591 70.3366 262.591C70.7481 262.591 71.1533 262.693 71.5158 262.888Z"
        fill="#151D31" />
    <path
        d="M112.332 192.518C112.332 190.836 110.858 189.041 107.743 187.024C101.987 183.285 89.1234 175.788 81.07 171.326C81.0658 171.31 81.0574 171.295 81.0456 171.283C81.0338 171.271 81.0191 171.263 81.003 171.259C74.7988 167.5 69.01 149.584 64.7287 135.963C63.2681 131.327 61.4725 128.7 59.3687 127.468C58.8662 127.173 57.0103 126.128 56.5949 125.9C52.3873 123.381 46.8598 126.409 39.9789 130.174C33.634 133.645 28.6827 138.087 27.6844 149.872C27.0814 157.055 27.6844 170.77 29.1182 181.161C31.2287 198.521 33.8082 198.581 37.5803 201.456C44.0525 206.461 58.6317 213.516 64.7756 215.908C75.9177 220.289 85.023 213.529 91.8101 210.179C98.035 207.029 104.045 203.47 109.8 199.526C111.495 198.287 112.379 197.04 112.359 195.727C112.325 195.198 112.339 193.061 112.332 192.518Z"
        fill="#263238" />
    <path
        d="M91.79 206.943C98.0114 203.798 104.019 200.246 109.773 196.31C113.632 193.51 113.277 190.642 107.763 187.051C103.636 184.371 103.85 184.136 72.7687 167.051C72.7687 167.051 33.1382 190.434 34.8467 194.756C36.5552 199.077 57.0438 209.657 64.7689 212.698C75.8909 217.08 84.9962 210.293 91.79 206.943Z"
        fill="#37474F" />
    <path
        d="M59.1074 127.3C54.9333 125.109 49.513 128.084 42.8063 131.756C38.5116 134.114 34.8534 136.901 32.629 142.12L29.8016 140.486C32.0193 135.286 35.6775 132.499 39.9588 130.148C46.8397 126.382 52.3672 123.354 56.5748 125.873C56.95 126.114 58.4106 126.932 59.1074 127.3Z"
        fill="#455A64" />
    <path
        d="M42.8063 131.789C53.1042 126.148 60.3737 122.141 64.7287 135.963C69.0167 149.584 74.7787 167.5 81.003 171.259C81.003 171.259 78.993 169.557 63.583 181.208C58.6786 184.913 52.7223 187.955 48.843 190.287C41.1849 194.849 36.5351 196.679 35.8048 196.069C31.7513 192.719 29.5604 163.272 30.5587 151.487C31.557 139.702 36.4681 135.26 42.8063 131.789Z"
        fill="#37474F" />
    <g opacity="0.5">
        <path
            d="M42.8063 131.789C53.1042 126.148 60.3737 122.141 64.7287 135.963C69.0167 149.584 74.7787 167.5 81.003 171.259C81.003 171.259 70.3701 171.259 54.9601 179.573C38.9471 188.223 36.4949 196.679 35.7646 196.069C31.7111 192.719 29.5202 163.272 30.5185 151.487C31.5168 139.702 36.4681 135.26 42.8063 131.789Z"
            fill="#455A64" />
    </g>
    <path
        d="M240.034 98.7576C242.761 98.1479 245.166 97.5784 247.016 97.1027C256.851 94.5902 259.813 91.3341 260.114 86.9858C260.603 80.0446 258.004 79.9909 253.521 83.093C251.657 84.4159 249.616 85.4693 247.458 86.222C248.208 85.3652 248.833 84.4065 249.314 83.3745C249.984 81.6459 249.072 80.5403 248.476 80.2455C248.007 80.0177 247.531 81.217 245.91 82.5436C243.82 84.2387 242.131 84.5536 240.403 86.9187C239.741 87.7893 238.791 88.3951 237.723 88.6273C236.744 88.8484 220.685 93.2436 213.16 94.5367C208.745 88.9154 204.645 82.9188 199.975 76.9491C192.786 67.7433 189.369 66.4569 185.335 67.1872L181.831 78.738C181.831 78.738 205.509 106.623 205.79 106.972C206.595 108.058 207.721 108.864 209.009 109.274C210.297 109.684 211.682 109.678 212.966 109.257C223.164 106.262 233.957 101.565 240.034 98.7576Z"
        fill="#FFA8A7" />
    <path
        d="M184.397 64.8623C192.799 65.2308 195.292 69.9409 199.606 75.1669C203.921 80.3929 213.315 93.7996 213.315 93.7996L236.249 89.0024C236.249 89.0024 235.304 95.5885 238.259 99.5549C238.259 99.5549 226.092 105.692 218.722 108.513C209.409 112.091 208.799 111.273 207.117 109.732C205.435 108.191 185.007 85.0695 185.007 85.0695L184.397 64.8623Z"
        fill="#37474F" />
    <path
        d="M89.5924 80.4C91.7699 73.7938 94.1752 73.5191 97.1433 78.0885C98.3679 80.019 99.8563 81.769 101.565 83.2877C101.187 82.2077 100.961 81.0801 100.895 79.9377C100.895 78.0818 102.195 77.3984 102.858 77.3582C103.381 77.3582 103.361 78.6111 104.366 80.4536C105.652 82.8187 107.093 83.7567 107.803 86.5908C108.071 87.6561 108.768 89.7733 109.659 90.4031C114.215 93.6057 122.496 97.552 130.73 100.734C133.652 94.5638 137.504 86.8655 140.439 81.472C146.027 71.221 149.725 70.082 153.792 70.5644L157.932 81.8941C157.932 81.8941 135.822 111.059 135.595 111.421C133.9 113.806 130.429 115.441 127.729 114.335C120.017 111.173 114.289 105.625 107.743 101.163C103.857 98.5235 100.185 96.4733 97.8401 94.7179C89.7264 88.6745 88.2256 84.5406 89.5924 80.4Z"
        fill="#FFA8A7" />
    <path
        d="M148.479 207.894C148.66 199.184 151.279 192.718 151.487 190.3C151.487 190.3 150.817 138.489 150.817 130.08L194.997 128.278C194.997 128.278 194.38 180.223 194.38 187.425C194.38 194.628 193.302 225.24 192.163 239.33L192.035 243.967L182.173 247.035C182.173 247.035 182.361 245.695 182.173 239.103C181.985 232.51 177.557 209.743 177.141 203.961C176.612 196.477 177.811 193.455 177.657 188.457C177.503 183.459 174.589 150.75 174.589 150.75C174.589 150.75 169.054 182.91 167.674 193.797C166.1 206.299 161.034 239.069 161.021 246.687C161.021 248.027 161.021 249.635 161.021 251.343C161.021 255.471 160.907 256.556 161.57 258.151C162.723 260.938 152.86 262.693 152.391 260.71L151.326 252.523V252.288V247.096C151.34 239.33 148.211 220.53 148.479 207.894Z"
        fill="#FFA8A7" />
    <path
        d="M211.352 256.898C211.62 257.698 211.572 258.571 211.217 259.337C210.876 260.054 207.151 262.158 202.119 261.816C198.391 261.553 194.801 260.299 191.72 258.184C189.804 256.911 187.808 256.677 185.315 256.53C182.823 256.382 179.553 255.149 179.011 253.984C178.468 252.818 179.091 250.814 179.091 250.814L211.352 256.898Z"
        fill="#37474F" />
    <path
        d="M191.057 241.2L191.459 241.113C191.678 241.054 191.906 241.042 192.129 241.079C192.372 241.156 192.586 241.303 192.746 241.501C193.241 242.126 193.672 242.8 194.032 243.511C195.084 245.226 197.302 246.653 199.714 247.953C201.362 248.838 202.97 249.521 204.665 250.285C206.36 251.049 208.685 251.538 210.025 252.449C212.001 253.789 212.256 257.139 210.025 258.439C208.089 259.578 202.983 260.811 197.63 259.296C194.715 258.472 191.479 255.357 187.654 255.055C185.215 254.868 180.612 254.184 179.044 252.335C178.468 251.511 179.238 248.911 179.875 246.674C180.545 244.221 181.396 240.389 182.207 240.603C182.24 241.086 182.146 241.206 182.461 241.535C182.776 241.863 183.165 242.037 183.493 242.319C184.055 242.876 184.509 243.533 184.833 244.255C184.96 244.577 185.197 244.843 185.503 245.005C185.918 245.159 186.22 244.898 186.582 244.737C187.038 244.528 187.554 244.49 188.035 244.63C187.988 244.146 187.902 243.667 187.781 243.196C187.725 243.049 187.711 242.889 187.741 242.734C187.806 242.585 187.916 242.461 188.056 242.379C188.962 241.78 189.985 241.378 191.057 241.2Z"
        fill="#455A64" />
    <path
        d="M171.165 271.149C171.46 271.43 171.373 273.346 171.044 273.829C170.716 274.311 168.666 276.107 165.014 276.375C161.524 276.623 158.401 276.154 156.351 274.847C154.301 273.541 153.303 272.107 153.115 270.117C152.927 268.127 153.115 266.204 152.19 264.677C151.313 263.263 149.919 261.668 149.618 260.898C148.948 259.229 149.618 256.844 149.618 256.844L171.165 271.149Z"
        fill="#37474F" />
    <path
        d="M161.597 253.769C161.623 254.524 161.759 255.271 161.999 255.986C162.538 257.527 163.257 258.998 164.143 260.368C164.578 261.086 165.064 261.771 165.597 262.418C166.656 263.678 167.969 264.71 169.088 265.916C170.281 267.056 171.043 268.573 171.245 270.211C171.393 272.951 168.418 273.882 166.126 274.284C163.649 274.719 161.105 274.593 158.683 273.916C157.412 273.582 156.263 272.89 155.374 271.922C154.486 270.954 153.894 269.75 153.671 268.455C153.544 267.691 153.591 266.914 153.504 266.15C153.197 264.401 152.466 262.753 151.373 261.353C150.735 260.544 150.187 259.668 149.738 258.74C149.021 257.045 149.591 255.136 150.053 253.447C150.449 251.987 150.891 250.338 151.393 250.472C151.393 251.229 151.393 251.31 151.936 251.812C152.606 252.482 152.646 253.44 153.376 254.01C153.14 253.379 152.97 252.726 152.867 252.06C152.819 251.793 152.874 251.518 153.021 251.29C153.26 251.074 153.547 250.92 153.859 250.841C154.946 250.471 156.068 250.217 157.209 250.084C158.285 249.906 159.382 249.906 160.458 250.084C160.777 250.144 161.066 250.312 161.276 250.559C161.465 250.833 161.566 251.158 161.564 251.491C161.611 251.92 161.577 253.045 161.597 253.769Z"
        fill="#455A64" />
    <path
        d="M164.512 260.938C163.487 260.174 161.202 260.167 159.949 260.301C158.68 260.412 157.458 260.84 156.398 261.548C156.243 261.66 156.052 261.714 155.861 261.699C155.669 261.684 155.489 261.602 155.353 261.467C155.273 261.39 155.21 261.297 155.169 261.193C155.129 261.089 155.112 260.978 155.119 260.867C155.126 260.756 155.157 260.648 155.21 260.55C155.263 260.452 155.337 260.368 155.427 260.301C156.599 259.436 157.993 258.922 159.447 258.821C162.529 258.6 163.426 259.129 163.426 259.129C163.426 259.129 164.82 260.033 164.512 260.938Z"
        fill="#F5F5F5" />
    <path
        d="M166.83 263.745C165.544 262.988 163.031 263.075 161.778 263.236C160.528 263.372 159.336 263.834 158.321 264.576C158.165 264.689 157.974 264.743 157.782 264.727C157.59 264.711 157.411 264.626 157.276 264.489C157.196 264.412 157.134 264.319 157.094 264.216C157.054 264.112 157.037 264.001 157.045 263.891C157.053 263.78 157.085 263.673 157.138 263.576C157.192 263.479 157.266 263.395 157.356 263.33C158.542 262.424 159.958 261.87 161.443 261.729C164.518 261.508 165.322 262.137 165.322 262.137C165.678 262.276 165.998 262.492 166.259 262.77C166.52 263.049 166.715 263.382 166.83 263.745Z"
        fill="#F5F5F5" />
    <path
        d="M158.2 255.873C159.498 255.647 160.831 255.758 162.073 256.194C162.616 256.503 162.971 257.36 162.622 257.575C161.535 257.137 160.357 256.976 159.192 257.106C158.031 257.215 156.898 257.523 155.842 258.017C155.581 258.137 155.272 258.298 154.998 258.452C154.911 258.5 154.816 258.529 154.717 258.539C154.619 258.549 154.52 258.539 154.425 258.509C154.331 258.48 154.243 258.432 154.168 258.368C154.092 258.304 154.031 258.226 153.986 258.137C153.909 257.984 153.893 257.806 153.943 257.642C153.993 257.477 154.104 257.338 154.254 257.253C155.455 256.515 156.801 256.044 158.2 255.873Z"
        fill="#F5F5F5" />
    <path
        d="M197.436 246.64C197.261 246.306 197.005 246.021 196.691 245.811C196.377 245.601 196.016 245.474 195.64 245.441C194.534 245.233 192.578 246.05 191.359 247.049C191.244 247.143 191.154 247.264 191.096 247.401C191.039 247.538 191.015 247.687 191.029 247.835C191.042 247.983 191.091 248.125 191.172 248.25C191.253 248.374 191.363 248.477 191.493 248.55C191.657 248.639 191.844 248.677 192.03 248.656C192.216 248.636 192.391 248.559 192.531 248.436C193.868 247.219 195.629 246.574 197.436 246.64Z"
        fill="#F5F5F5" />
    <path
        d="M200.866 248.57C200.627 248.229 200.308 247.952 199.939 247.76C199.569 247.569 199.158 247.47 198.742 247.471C198.742 247.471 195.848 247.558 194.052 249.227C193.942 249.318 193.856 249.434 193.8 249.565C193.745 249.697 193.722 249.84 193.734 249.982C193.746 250.124 193.792 250.261 193.868 250.382C193.945 250.502 194.049 250.602 194.173 250.674C194.33 250.762 194.511 250.799 194.69 250.778C194.87 250.758 195.038 250.681 195.171 250.56C195.91 249.822 196.806 249.26 197.792 248.915C198.777 248.571 199.828 248.453 200.866 248.57Z"
        fill="#F5F5F5" />
    <path
        d="M204.658 250.298C204.384 249.983 204.044 249.731 203.662 249.559C203.28 249.388 202.866 249.302 202.447 249.307C200.804 249.407 199.234 250.026 197.965 251.076C197.855 251.167 197.769 251.283 197.713 251.414C197.658 251.546 197.635 251.689 197.647 251.831C197.659 251.973 197.705 252.11 197.781 252.231C197.858 252.351 197.962 252.451 198.086 252.523C198.243 252.61 198.424 252.646 198.603 252.626C198.782 252.605 198.95 252.53 199.084 252.409C199.783 251.646 200.652 251.057 201.62 250.691C202.588 250.324 203.629 250.19 204.658 250.298Z"
        fill="#F5F5F5" />
    <path
        d="M195.024 128.278C195.024 128.278 195.613 164.88 195.694 171.312C195.774 177.744 195.694 190.072 195.694 196.357C195.694 196.357 194.066 199.104 184.779 199.097C175.493 199.09 174.153 196.524 174.153 196.524L172.78 166.937L170.18 197.65C168.301 198.928 166.18 199.808 163.948 200.236C161.716 200.663 159.42 200.629 157.202 200.135C149.557 198.487 148.432 196.209 148.432 196.209L149.939 128.398L195.024 128.278Z"
        fill="#37474F" />
    <path
        d="M172.766 166.937L174.106 154.515C174.106 154.515 180.478 152.961 184.739 149.751C183.367 151.417 181.733 152.85 179.902 153.993C177.315 155.446 176.069 156.043 176.069 156.043L174.207 168.063L173.878 191.513L172.766 166.937Z"
        fill="#263238" />
    <path
        d="M149.41 134.623C155.474 139.038 182.964 143.936 195.72 134.623C195.72 134.623 195.426 98.9925 194.421 80.132C194.374 79.2744 194.32 78.4436 194.233 77.6396C194.233 77.3716 194.166 77.1036 194.139 76.8356C193.992 75.705 193.768 74.5858 193.469 73.4856C193.422 73.3047 193.362 73.1238 193.308 72.9429C193.181 72.5342 193.054 72.1389 192.886 71.7436C192.806 71.5359 192.719 71.3282 192.625 71.1272C192.531 70.9262 192.451 70.7453 192.344 70.5644C192.335 70.528 192.319 70.4938 192.297 70.4639C192.203 70.283 192.096 70.1021 191.995 69.9279C191.895 69.7537 191.767 69.546 191.633 69.3584C191.499 69.1708 191.385 69.0033 191.258 68.8425C191.131 68.6817 190.963 68.4807 190.803 68.3065C190.657 68.1375 190.503 67.9765 190.34 67.8241L190.005 67.5092L189.67 67.2345C189.53 67.1072 189.369 66.9933 189.215 66.8794C188.704 66.5213 188.166 66.2032 187.607 65.928C187.453 65.8543 187.292 65.7739 187.131 65.7136C187.092 65.6983 187.054 65.6804 187.017 65.66L186.441 65.4456C186.119 65.3191 185.79 65.2095 185.456 65.1173C185.117 65.0235 184.761 64.9364 184.391 64.856C183.975 64.856 183.52 64.856 183.051 64.856H182.046L180.96 64.8962C176.19 65.1039 169.343 65.8744 163.849 66.5779L162.777 66.7253L161.832 66.8392C158.06 67.335 155.266 67.7437 154.837 67.8107H154.77C153.537 68.1256 152.392 68.4204 151.467 68.6951C148.948 69.4388 150.797 68.8023 150.268 71.2411C148.64 78.3967 150.536 104.426 150.536 104.426L149.41 134.623Z"
        fill="#455A64" />
    <path
        d="M160.378 45.2852C160.378 45.2852 162.341 54.4977 163.125 56.0052C163.651 56.9373 164.514 57.6326 165.537 57.9482L165.396 51.4693L160.378 45.2852Z"
        fill="#263238" />
    <path
        d="M162.81 32.093C162.124 32.0156 161.429 32.0961 160.779 32.3283C160.128 32.5606 159.54 32.9384 159.058 33.433C157.45 35.0678 158.368 40.2 160.378 45.2853L164.07 45.7141L162.81 32.093Z"
        fill="#263238" />
    <path
        d="M165.175 45.7139C164.438 46.1561 163.379 44.7357 162.495 43.7776C161.611 42.8195 158.602 41.5197 157.135 44.6486C155.668 47.7775 158.475 52.0588 160.793 52.7958C164.813 54.0688 165.443 51.4558 165.443 51.4558L165.671 66.3298C169.905 74.0013 184.237 70.0751 178.863 64.9898V61.2177C180.895 61.362 182.935 61.362 184.967 61.2177C187.942 60.7554 189.161 58.6985 190.066 55.4758C191.513 50.3034 192.076 46.1293 190.836 35.9587C189.496 24.8166 176.525 24.7027 169.523 29.1046C162.522 33.5065 165.175 45.7139 165.175 45.7139Z"
        fill="#FFA8A7" />
    <path
        d="M163.48 26.0025C165.935 24.9539 168.499 24.1809 171.125 23.6977C176.78 22.4716 182.515 21.3393 187.7 18.733C188.299 18.3453 188.998 18.1426 189.71 18.1501C191.05 18.331 191.667 19.9792 191.72 21.346C191.767 22.62 191.6 23.8929 191.225 25.1114C191.636 24.7174 192.186 24.5014 192.755 24.5102C193.325 24.519 193.868 24.7518 194.267 25.1583C194.646 25.5857 194.922 26.0938 195.075 26.6441C195.229 27.1944 195.254 27.7723 195.151 28.3341C194.816 30.8667 192.88 32.9772 190.582 34.1028C188.283 35.2284 185.684 35.5031 183.131 35.5768C179.564 35.6838 175.996 35.4166 172.485 34.7795C171.642 34.5677 170.77 34.5043 169.905 34.5919C169.474 34.6401 169.064 34.809 168.724 35.0792C168.384 35.3494 168.127 35.7099 167.982 36.1195C167.607 37.5265 167.212 47.1008 165.249 47.141C164.88 47.141 163.487 44.7357 162.569 43.8781C161.43 42.7927 160.277 34.5919 160.076 33.0777C160.051 32.9598 159.999 32.8495 159.922 32.7561C158.636 30.9538 160.143 27.9187 161.731 26.9271C162.296 26.5853 162.88 26.2765 163.48 26.0025Z"
        fill="#263238" />
    <path
        d="M160.626 32.8836C160.396 33.1533 160.116 33.3751 159.8 33.5364C159.485 33.6976 159.141 33.7952 158.788 33.8235C158.435 33.8518 158.08 33.8103 157.743 33.7014C157.405 33.5924 157.093 33.4181 156.824 33.1885C156.554 32.9588 156.332 32.6783 156.171 32.363C156.01 32.0476 155.912 31.7036 155.884 31.3505C155.855 30.9974 155.897 30.6422 156.006 30.3052C156.115 29.9682 156.289 29.6559 156.519 29.3862L160.626 32.8836Z"
        fill="#263238" />
    <path
        d="M178.85 61.231C178.85 61.231 172.217 60.561 169.892 59.355C168.526 58.6443 167.408 57.5373 166.683 56.1792C167.034 57.5369 167.653 58.8105 168.505 59.9245C170.207 62.0953 178.85 63.6966 178.85 63.6966V61.231Z"
        fill="#F28F8F" />
    <path
        d="M177.255 44.0524C177.246 44.3153 177.16 44.5696 177.007 44.7837C176.854 44.9978 176.642 45.1622 176.396 45.2565C176.151 45.3508 175.883 45.3707 175.626 45.3138C175.369 45.2569 175.135 45.1258 174.952 44.9366C174.77 44.7475 174.647 44.5088 174.599 44.2502C174.551 43.9916 174.58 43.7246 174.682 43.4825C174.785 43.2404 174.957 43.0338 175.176 42.8885C175.395 42.7432 175.652 42.6657 175.915 42.6655C176.095 42.6654 176.273 42.7016 176.439 42.7718C176.605 42.8421 176.755 42.945 176.88 43.0744C177.005 43.2039 177.102 43.3572 177.167 43.5252C177.232 43.6932 177.261 43.8725 177.255 44.0524Z"
        fill="#263238" />
    <path
        d="M175.848 39.0341L173.001 40.6019C172.798 40.2111 172.754 39.7568 172.879 39.3345C173.004 38.9122 173.288 38.5548 173.671 38.3374C173.858 38.2352 174.065 38.1722 174.278 38.152C174.49 38.1319 174.705 38.1551 174.908 38.2202C175.112 38.2854 175.3 38.3911 175.462 38.531C175.623 38.6708 175.755 38.842 175.848 39.0341Z"
        fill="#263238" />
    <path
        d="M178.254 53.2446L181.289 54.3836C181.222 54.5874 181.116 54.7757 180.975 54.9373C180.835 55.099 180.663 55.2306 180.47 55.3244C180.278 55.4182 180.068 55.4723 179.854 55.4833C179.64 55.4943 179.426 55.4621 179.225 55.3886C178.817 55.2266 178.488 54.9126 178.306 54.5127C178.125 54.1128 178.106 53.6582 178.254 53.2446Z"
        fill="#F28F8F" />
    <path
        d="M189.121 40.1395L186.528 38.1295C186.649 37.954 186.805 37.805 186.985 37.6917C187.166 37.5785 187.368 37.5032 187.579 37.4706C187.789 37.438 188.004 37.4487 188.211 37.5021C188.417 37.5555 188.611 37.6504 188.779 37.7811C189.129 38.0543 189.36 38.4522 189.424 38.8916C189.488 39.3311 189.379 39.7782 189.121 40.1395Z"
        fill="#263238" />
    <path
        d="M188.324 43.6769C188.314 43.9398 188.228 44.1941 188.075 44.4082C187.923 44.6223 187.71 44.7867 187.465 44.881C187.219 44.9753 186.951 44.9952 186.695 44.9383C186.438 44.8814 186.203 44.7503 186.021 44.5611C185.838 44.372 185.715 44.1333 185.667 43.8747C185.619 43.6161 185.648 43.3491 185.751 43.107C185.853 42.8649 186.025 42.6583 186.244 42.513C186.463 42.3677 186.721 42.2902 186.984 42.29C187.164 42.2899 187.342 42.3261 187.507 42.3963C187.673 42.4666 187.823 42.5695 187.948 42.699C188.073 42.8284 188.171 42.9817 188.235 43.1497C188.3 43.3178 188.33 43.4971 188.324 43.6769Z"
        fill="#263238" />
    <path d="M182.642 42.7256L183.084 50.7254L187.258 49.2983L182.642 42.7256Z" fill="#F28F8F" />
    <path
        d="M155.273 67.8037C145.457 67.9578 142.911 73.7399 140.017 79.8637C137.122 85.9875 129.779 99.8297 129.779 99.8297L111.3 91.4748C110.24 94.7723 108.038 97.5831 105.09 99.4009C105.09 99.4009 113.8 106.724 121.317 112.091C127.675 116.633 131.367 118.992 133.812 117.364C135.621 116.158 153.658 92.5736 153.658 92.5736C158.254 85.4046 159.232 73.2307 155.273 67.8037Z"
        fill="#37474F" />
    <path
        d="M186.528 47.2951L185.476 46.7591L184.444 45.2851C184.611 45.2145 184.792 45.1844 184.972 45.1972C185.153 45.21 185.328 45.2654 185.483 45.3588C185.952 45.6938 186.528 47.2951 186.528 47.2951Z"
        fill="#151D31" />
    <path d="M186.528 47.2951L185.476 46.7591L184.444 45.2851C184.611 45.2145 184.792 45.1844 184.972 45.1972C185.153 45.21 185.328 45.2654 185.483 45.3588C185.952 45.6938 186.528 47.2951 186.528 47.2951Z"
        fill="black"
        opacity="0.65" />
    <path
        d="M196.31 42.692C196.245 43.7854 195.824 44.8276 195.111 45.6597C194.399 46.4918 193.434 47.0684 192.364 47.3016L190.709 47.583C189.984 47.7164 189.248 47.7748 188.511 47.7572H188.29C188.17 47.7572 188.049 47.7572 187.935 47.7572C187.73 47.7373 187.526 47.7037 187.325 47.6567C187.22 47.6365 187.117 47.6074 187.017 47.5696C186.924 47.5432 186.835 47.5072 186.749 47.4624C186.71 47.4489 186.674 47.4285 186.642 47.4021C186.597 47.3801 186.554 47.3532 186.515 47.3217C186.447 47.2651 186.391 47.197 186.347 47.1207L185.778 45.9549C185.646 45.7224 185.449 45.5345 185.21 45.4151C184.971 45.2957 184.702 45.2504 184.438 45.2849L183.258 45.4926C182.966 45.569 182.695 45.7089 182.463 45.9023C182.232 46.0957 182.046 46.3379 181.918 46.6115C181.918 46.6115 181.671 47.2279 181.356 47.9515C181.041 48.6751 179.084 49.6198 176.994 49.9615L175.339 50.2563C175.004 50.3059 174.663 50.3059 174.327 50.2563C174.139 50.2435 173.952 50.2098 173.771 50.1558L173.517 50.0821L173.356 50.0151C173.211 49.9594 173.072 49.8898 172.94 49.8074C172.492 49.6265 165.276 46.6919 164.284 44.3268C162.703 40.5212 169.195 36.6017 171.533 35.858C171.801 35.7491 172.08 35.6683 172.364 35.6168L189.409 32.6956C190.258 32.5263 191.139 32.692 191.868 33.1579C192.303 33.4326 193.911 34.384 194.581 34.786C194.641 34.813 194.697 34.8467 194.749 34.8865C194.843 34.9401 194.937 35.0071 195.03 35.0674C195.062 35.0886 195.091 35.1133 195.117 35.1411C195.211 35.2148 195.298 35.2952 195.385 35.3756C195.49 35.4816 195.587 35.5958 195.673 35.7173C195.74 35.8008 195.798 35.8906 195.848 35.9853C195.931 36.1173 196.003 36.2563 196.062 36.4007C196.116 36.528 196.156 36.6553 196.196 36.7826C196.232 36.903 196.256 37.0263 196.27 37.1511C196.276 37.1798 196.276 37.2095 196.27 37.2382C196.28 37.3787 196.28 37.5198 196.27 37.6603C196.346 39.3531 196.359 41.0304 196.31 42.692Z"
        fill="#151D31" />
    <g opacity="0.2">
        <path
            d="M196.31 42.692C196.245 43.7854 195.824 44.8276 195.111 45.6597C194.399 46.4918 193.434 47.0684 192.364 47.3016L190.709 47.583C189.984 47.7164 189.248 47.7748 188.511 47.7572H188.29C188.17 47.7572 188.049 47.7572 187.935 47.7572C187.73 47.7373 187.526 47.7037 187.325 47.6567C187.22 47.6365 187.117 47.6074 187.017 47.5696C186.924 47.5432 186.835 47.5072 186.749 47.4624C186.71 47.4489 186.674 47.4285 186.642 47.4021C186.597 47.3801 186.554 47.3532 186.515 47.3217C186.447 47.2651 186.391 47.197 186.347 47.1207L185.778 45.9549C185.646 45.7224 185.449 45.5345 185.21 45.4151C184.971 45.2957 184.702 45.2504 184.438 45.2849L183.258 45.4926C182.966 45.569 182.695 45.7089 182.463 45.9023C182.232 46.0957 182.046 46.3379 181.918 46.6115C181.918 46.6115 181.671 47.2279 181.356 47.9515C181.041 48.6751 179.084 49.6198 176.994 49.9615L175.339 50.2563C175.004 50.3059 174.663 50.3059 174.327 50.2563C174.139 50.2435 173.952 50.2098 173.771 50.1558L173.517 50.0821L173.356 50.0151C173.211 49.9594 173.072 49.8898 172.94 49.8074C172.492 49.6265 165.276 46.6919 164.284 44.3268C162.703 40.5212 169.195 36.6017 171.533 35.858C171.801 35.7491 172.08 35.6683 172.364 35.6168L189.409 32.6956C190.258 32.5263 191.139 32.692 191.868 33.1579C192.303 33.4326 193.911 34.384 194.581 34.786C194.641 34.813 194.697 34.8467 194.749 34.8865C194.843 34.9401 194.937 35.0071 195.03 35.0674C195.062 35.0886 195.091 35.1133 195.117 35.1411C195.211 35.2148 195.298 35.2952 195.385 35.3756C195.49 35.4816 195.587 35.5958 195.673 35.7173C195.74 35.8008 195.798 35.8906 195.848 35.9853C195.931 36.1173 196.003 36.2563 196.062 36.4007C196.116 36.528 196.156 36.6553 196.196 36.7826C196.232 36.903 196.256 37.0263 196.27 37.1511C196.276 37.1798 196.276 37.2095 196.27 37.2382C196.28 37.3787 196.28 37.5198 196.27 37.6603C196.346 39.3531 196.359 41.0304 196.31 42.692Z"
            fill="black" />
    </g>
    <path
        d="M194.581 34.786C193.903 34.4365 193.127 34.3234 192.377 34.4644L175.332 37.4727C174.31 37.6946 173.382 38.2292 172.677 39.0024C171.972 39.7756 171.526 40.749 171.399 41.7875L166.508 38.9668C167.985 37.6662 169.682 36.6405 171.52 35.9384C171.788 35.8295 172.066 35.7487 172.351 35.6972L189.409 32.6956C190.258 32.5263 191.139 32.692 191.868 33.1579C192.29 33.4326 193.911 34.384 194.581 34.786Z"
        fill="#151D31" />
    <path d="M194.581 34.786C193.903 34.4365 193.127 34.3234 192.377 34.4644L175.332 37.4727C174.31 37.6946 173.382 38.2292 172.677 39.0024C171.972 39.7756 171.526 40.749 171.399 41.7875L166.508 38.9668C167.985 37.6662 169.682 36.6405 171.52 35.9384C171.788 35.8295 172.066 35.7487 172.351 35.6972L189.409 32.6956C190.258 32.5263 191.139 32.692 191.868 33.1579C192.29 33.4326 193.911 34.384 194.581 34.786Z"
        fill="white"
        opacity="0.35" />
    <path
        d="M196.31 37.6738C196.35 39.3443 196.35 41.0193 196.31 42.6988C196.245 43.7909 195.824 44.8317 195.111 45.6618C194.399 46.4918 193.433 47.0655 192.364 47.295L190.709 47.5898C188.612 47.9583 186.689 47.7305 186.347 47.094L185.778 45.9282C185.646 45.6958 185.449 45.5078 185.21 45.3884C184.971 45.2691 184.702 45.2237 184.438 45.2582L183.252 45.4726C182.959 45.5463 182.686 45.6853 182.454 45.879C182.222 46.0727 182.037 46.3162 181.912 46.5915L181.342 47.9315C181.027 48.6819 179.078 49.5931 176.987 49.9415L175.332 50.2363C174.855 50.3384 174.36 50.3322 173.885 50.2181C173.411 50.1041 172.967 49.8851 172.588 49.5773C172.209 49.2695 171.904 48.8806 171.694 48.4393C171.485 47.998 171.378 47.5154 171.379 47.027C171.339 45.3587 171.339 43.677 171.379 42.0087C171.445 40.9151 171.868 39.8733 172.581 39.0422C173.295 38.2111 174.261 37.6364 175.332 37.4058L192.377 34.4042C192.858 34.3031 193.356 34.3121 193.834 34.4305C194.311 34.549 194.756 34.7738 195.134 35.0883C195.512 35.4027 195.814 35.7986 196.018 36.2464C196.222 36.6941 196.322 37.1821 196.31 37.6738Z"
        fill="#151D31" />
    <path d="M196.31 42.6922C196.245 43.7857 195.824 44.8278 195.111 45.66C194.399 46.4921 193.434 47.0687 192.364 47.3018L190.709 47.5832C189.984 47.7167 189.248 47.7751 188.511 47.7574H188.29C188.169 47.7574 188.049 47.7574 187.935 47.7574C187.73 47.7376 187.526 47.704 187.325 47.6569C187.22 47.6368 187.117 47.6077 187.017 47.5698C186.924 47.5434 186.834 47.5075 186.749 47.4626C186.71 47.4492 186.674 47.4288 186.642 47.4023C186.597 47.3804 186.554 47.3534 186.515 47.3219C186.447 47.2654 186.391 47.1973 186.347 47.1209L185.778 45.9551C185.646 45.7227 185.449 45.5348 185.21 45.4154C184.971 45.296 184.702 45.2507 184.438 45.2851L183.258 45.4928C182.966 45.5692 182.695 45.7091 182.463 45.9026C182.232 46.096 182.046 46.3381 181.918 46.6117C181.918 46.6117 181.67 47.2281 181.356 47.9517C181.041 48.6753 179.084 49.62 176.994 49.9617L175.339 50.2565C175.004 50.3062 174.663 50.3062 174.327 50.2565C174.139 50.2438 173.952 50.2101 173.771 50.156L173.517 50.0823L173.356 50.0153C173.211 49.9597 173.072 49.8901 172.94 49.8076C172.465 49.5146 172.072 49.1045 171.8 48.6166C171.528 48.1286 171.385 47.5791 171.386 47.0204C171.346 45.3454 171.346 43.6704 171.386 41.9954C171.452 40.9019 171.874 39.86 172.588 39.0289C173.302 38.1978 174.268 37.6231 175.339 37.3925L192.384 34.3842C193.134 34.2432 193.91 34.3564 194.588 34.7058C194.648 34.7329 194.704 34.7666 194.756 34.8063C194.849 34.8599 194.943 34.9269 195.037 34.9872C195.069 35.0084 195.098 35.0332 195.124 35.0609C195.218 35.1346 195.305 35.215 195.392 35.2954C195.497 35.4014 195.593 35.5157 195.68 35.6371C195.747 35.7207 195.805 35.8104 195.854 35.9051C195.938 36.0372 196.009 36.1762 196.069 36.3205C196.122 36.4478 196.163 36.5751 196.203 36.7024C196.238 36.8228 196.263 36.9462 196.276 37.0709C196.283 37.0997 196.283 37.1293 196.276 37.158C196.287 37.2986 196.287 37.4396 196.276 37.5801C196.348 39.3266 196.359 41.0306 196.31 42.6922Z"
        fill="white"
        opacity="0.5" />
    <g opacity="0.7">
        <path
            d="M196.31 37.6736C196.32 37.5331 196.32 37.392 196.31 37.2515C196.316 37.2228 196.316 37.1931 196.31 37.1644C196.296 37.0396 196.272 36.9163 196.236 36.7959C196.196 36.6686 196.156 36.5413 196.102 36.414C196.043 36.2696 195.971 36.1306 195.888 35.9986C195.839 35.9039 195.78 35.8141 195.714 35.7306C195.627 35.6092 195.531 35.4949 195.426 35.3889C195.338 35.3085 195.251 35.2281 195.158 35.1544C195.134 35.1285 195.107 35.106 195.077 35.0874L184.833 45.2781C185.034 45.3056 185.226 45.3808 185.393 45.4973C185.56 45.6138 185.696 45.7683 185.791 45.9481L186.36 47.1139C186.404 47.1903 186.461 47.2583 186.528 47.3149C186.567 47.3464 186.61 47.3734 186.655 47.3953C186.687 47.4217 186.723 47.4422 186.762 47.4556C186.848 47.5005 186.938 47.5364 187.03 47.5628C187.131 47.6006 187.234 47.6298 187.339 47.6499C187.539 47.6969 187.743 47.7305 187.948 47.7504C188.062 47.7504 188.183 47.7504 188.303 47.7504H188.525C188.972 47.7602 189.42 47.74 189.865 47.6901L196.364 41.1978C196.357 40.0253 196.35 38.8595 196.31 37.6736Z"
            fill="#151D31" />
        <path
            d="M188.23 35.2014L173.336 50.0888L173.497 50.1558L173.751 50.2295C173.932 50.2836 174.119 50.3173 174.307 50.33C174.643 50.3797 174.983 50.3797 175.319 50.33L176.398 50.1357L191.975 34.5649L188.23 35.2014Z"
            fill="#151D31" />
        <path
            d="M177.63 37.0639L171.366 43.3351C171.366 44.588 171.366 45.8409 171.366 47.1005C171.374 47.6761 171.526 48.2405 171.808 48.742L184.739 35.811L177.63 37.0639Z"
            fill="#151D31" />
    </g>
    <path
        d="M167.433 43.6438C167.444 43.7344 167.434 43.8262 167.404 43.9124C167.374 43.9986 167.325 44.0769 167.261 44.1414C167.196 44.2059 167.118 44.2549 167.032 44.2848C166.945 44.3146 166.854 44.3245 166.763 44.3138C166.569 44.2665 166.397 44.1545 166.275 43.9961C166.153 43.8377 166.089 43.6425 166.093 43.4428C166.082 43.3522 166.092 43.2604 166.122 43.1742C166.152 43.088 166.201 43.0097 166.265 42.9452C166.33 42.8807 166.408 42.8316 166.494 42.8018C166.581 42.7719 166.672 42.762 166.763 42.7728C166.957 42.8211 167.128 42.9335 167.25 43.0916C167.371 43.2497 167.436 43.4443 167.433 43.6438Z"
        fill="#263238" />
    <g opacity="0.5">
        <path
            d="M193.027 34.766C193.512 34.7656 193.989 34.8805 194.421 35.101C194.47 35.1257 194.517 35.1549 194.561 35.1881C194.649 35.2393 194.734 35.2952 194.816 35.3556H194.849H194.883L195.117 35.5633C195.213 35.6607 195.301 35.7661 195.379 35.8782C195.433 35.9444 195.48 36.0163 195.519 36.0926C195.588 36.2068 195.648 36.3254 195.7 36.4477C195.74 36.5438 195.773 36.6423 195.801 36.7425V36.7961C195.832 36.894 195.853 36.9952 195.861 37.0976V37.1981C195.871 37.323 195.871 37.4485 195.861 37.5733C195.908 39.2349 195.908 40.9233 195.861 42.5782C195.82 43.5953 195.45 44.5715 194.806 45.3595C194.162 46.1476 193.279 46.7046 192.29 46.9466L190.635 47.2347C190.02 47.3413 189.397 47.3973 188.772 47.4022H188.484H188.277H187.955C187.761 47.3806 187.569 47.3471 187.379 47.3017C187.284 47.2826 187.19 47.258 187.097 47.228C187.033 47.2066 186.97 47.1797 186.91 47.1476H186.863L186.796 47.1074C186.765 47.0799 186.738 47.0483 186.716 47.0136L186.146 45.8478C186.012 45.5627 185.8 45.3214 185.534 45.1518C185.269 44.9823 184.96 44.8914 184.645 44.8897C184.558 44.8831 184.471 44.8831 184.384 44.8897L183.198 45.0974C182.845 45.1843 182.517 45.35 182.237 45.5821C181.957 45.8142 181.734 46.1066 181.583 46.4374L181.014 47.7774C180.779 48.3335 179.044 49.2179 176.92 49.5931L175.272 49.8812C175.077 49.9145 174.88 49.9324 174.682 49.9348C174.571 49.9415 174.459 49.9415 174.347 49.9348C174.18 49.9199 174.014 49.8907 173.852 49.8477L173.651 49.7807L173.563 49.7472H173.483C173.356 49.7005 173.235 49.6398 173.121 49.5663C172.696 49.3046 172.345 48.9378 172.102 48.5014C171.859 48.0649 171.733 47.5734 171.734 47.0739C171.701 45.419 171.701 43.7239 171.734 42.069C171.804 41.0603 172.198 40.1011 172.857 39.3344C173.516 38.5677 174.406 38.0346 175.393 37.8145L192.444 34.8397C192.637 34.8053 192.832 34.7874 193.027 34.7861M193.027 34.431C192.803 34.4315 192.579 34.4494 192.357 34.4846L175.312 37.4929C174.241 37.7235 173.275 38.2982 172.561 39.1293C171.848 39.9604 171.425 41.0023 171.359 42.0958C171.319 43.7775 171.319 45.4458 171.359 47.1208C171.359 47.6795 171.501 48.229 171.773 48.717C172.045 49.2049 172.438 49.615 172.914 49.908C173.045 49.9905 173.184 50.0601 173.329 50.1157L173.49 50.1827L173.744 50.2564C173.925 50.3105 174.112 50.3442 174.3 50.3569C174.421 50.364 174.542 50.364 174.662 50.3569C174.887 50.3595 175.111 50.3415 175.332 50.3033L176.987 50.0085C179.078 49.6467 181.007 48.7355 181.349 47.9985C181.691 47.2615 181.912 46.6585 181.912 46.6585C182.039 46.3849 182.225 46.1428 182.457 45.9493C182.688 45.7559 182.96 45.616 183.252 45.5396L184.431 45.3319C184.498 45.3254 184.565 45.3254 184.632 45.3319C184.865 45.3345 185.093 45.3977 185.294 45.5151C185.494 45.6326 185.661 45.8004 185.778 46.0019L186.347 47.1677C186.391 47.2441 186.447 47.3122 186.515 47.3687C186.554 47.4002 186.597 47.4272 186.642 47.4491C186.674 47.4756 186.71 47.496 186.749 47.5094C186.835 47.5543 186.924 47.5902 187.017 47.6166C187.117 47.6545 187.22 47.6836 187.325 47.7037C187.526 47.7508 187.73 47.7844 187.935 47.8042C188.049 47.8042 188.169 47.8042 188.29 47.8042H188.786C189.431 47.8005 190.074 47.7399 190.709 47.6233L192.364 47.3419C193.44 47.1069 194.41 46.5244 195.123 45.6842C195.836 44.844 196.253 43.7927 196.31 42.6921C196.35 41.0171 196.35 39.3444 196.31 37.6738C196.32 37.5333 196.32 37.3923 196.31 37.2517C196.316 37.223 196.316 37.1934 196.31 37.1646C196.296 37.0399 196.272 36.9165 196.236 36.7961C196.196 36.6688 196.156 36.5415 196.102 36.4142C196.043 36.2699 195.971 36.1309 195.888 35.9988C195.839 35.9041 195.78 35.8144 195.714 35.7308C195.627 35.6094 195.531 35.4951 195.426 35.3891C195.338 35.3087 195.251 35.2283 195.158 35.1546C195.131 35.1269 195.102 35.1021 195.07 35.0809C194.977 35.0206 194.883 34.9536 194.789 34.9C194.737 34.8603 194.681 34.8266 194.622 34.7995C194.141 34.5508 193.608 34.4221 193.067 34.4243L193.027 34.431Z"
            fill="black" />
    </g>
    <path
        d="M171.379 47.1007L171.292 43.4894C171.292 42.8864 171.245 42.2968 171.292 41.6737C171.364 41.0576 171.555 40.4613 171.855 39.9183C172.444 38.8182 173.41 37.9668 174.575 37.5197C175.16 37.3409 175.758 37.2088 176.364 37.1244L178.14 36.8028L185.248 35.5901C187.62 35.197 189.996 34.8241 192.377 34.4712C190.019 34.9536 187.658 35.4181 185.295 35.8648L178.22 37.1512L176.445 37.4527C175.858 37.5286 175.277 37.6495 174.709 37.8145C173.61 38.2368 172.691 39.0278 172.11 40.0523C171.815 40.5599 171.622 41.1195 171.54 41.7005C171.473 42.2767 171.507 42.8931 171.487 43.4894L171.379 47.1007Z"
        fill="white" />
    <g opacity="0.3">
        <path
            d="M292.187 18.1438V104.882C290.7 113.96 286.03 122.878 278.117 131.066C275.263 134.002 272.185 136.712 268.911 139.173C265.713 141.535 262.385 143.716 258.942 145.705C245.823 153.303 230.286 158.649 213.777 161.785C211.15 162.29 208.497 162.736 205.817 163.125V76.0251C224.376 73.0235 241.863 67.496 256.509 59.4359C274.687 49.3858 285.775 36.9842 289.795 24.013C290.558 22.0959 291.178 20.1253 291.651 18.117C291.672 18.0609 291.71 18.0129 291.76 17.98C291.81 17.9471 291.869 17.931 291.929 17.9339C291.989 17.9369 292.046 17.9589 292.092 17.9966C292.139 18.0343 292.172 18.0859 292.187 18.1438Z"
            fill="#151D31" />
    </g>
    <path
        d="M205.435 163.54V75.71L205.737 75.6631C224.725 72.5945 242.212 66.8727 256.308 59.1141C273.802 49.4795 285.253 37.319 289.407 23.9525V23.651H289.527C290.241 21.8177 290.828 19.9372 291.282 18.023C291.343 17.8968 291.441 17.7926 291.563 17.7251C291.686 17.6575 291.826 17.6299 291.965 17.6461C292.104 17.6624 292.234 17.7217 292.338 17.8157C292.441 17.9097 292.513 18.0337 292.542 18.1704V104.882C291.008 114.309 286.231 123.186 278.352 131.313C275.484 134.264 272.391 136.986 269.099 139.454C265.89 141.829 262.548 144.019 259.089 146.013C246.265 153.43 231.029 158.87 213.817 162.14C211.197 162.642 208.511 163.091 205.844 163.48L205.435 163.54ZM206.152 76.2996V162.73C208.671 162.361 211.204 161.932 213.683 161.463C230.815 158.2 245.977 152.8 258.734 145.383C262.164 143.402 265.481 141.233 268.67 138.884C271.927 136.444 274.991 133.756 277.836 130.844C285.614 122.804 290.324 114.094 291.832 104.848V18.7935C291.371 20.6037 290.796 22.3828 290.11 24.12C285.896 37.6741 274.331 49.982 256.657 59.7104C242.54 67.4757 225.12 73.2109 206.152 76.2996Z"
        fill="#151D31" />
    <path
        d="M225.931 141.497C225.741 141.497 225.558 141.422 225.424 141.287C225.289 141.153 225.214 140.971 225.214 140.78V89.5522C225.22 89.3989 225.274 89.2513 225.369 89.1308C225.464 89.0104 225.595 88.9233 225.743 88.8822C229.984 87.7432 233.897 86.5305 237.703 85.1637C237.813 85.1209 237.932 85.1064 238.049 85.1216C238.166 85.1368 238.277 85.1813 238.373 85.2508C238.468 85.3169 238.546 85.405 238.599 85.5077C238.653 85.6104 238.681 85.7246 238.681 85.8404V137.069C238.679 137.215 238.632 137.358 238.547 137.478C238.462 137.597 238.343 137.688 238.205 137.739C234.353 139.119 230.406 140.345 226.145 141.491C226.074 141.501 226.002 141.504 225.931 141.497ZM226.648 90.1016V139.842C230.359 138.831 233.837 137.745 237.227 136.539V86.832C233.83 88.0179 230.373 89.11 226.648 90.1016Z"
        fill="white" />
    <path
        d="M248.979 133.263C248.841 133.266 248.705 133.226 248.59 133.149C248.489 133.084 248.406 132.995 248.348 132.89C248.291 132.784 248.261 132.666 248.262 132.546V81.3178C248.26 81.1774 248.299 81.0395 248.374 80.9206C248.449 80.8018 248.557 80.7071 248.684 80.6478C252.06 79.1349 255.354 77.4464 258.553 75.5893C259.283 75.2007 259.96 74.7853 260.61 74.3766C260.718 74.3073 260.843 74.2705 260.972 74.2705C261.1 74.2705 261.226 74.3073 261.334 74.3766C261.446 74.437 261.541 74.5268 261.607 74.6365C261.673 74.7462 261.708 74.8717 261.709 74.9997V126.228C261.709 126.35 261.678 126.471 261.618 126.578C261.558 126.685 261.472 126.774 261.367 126.838C260.697 127.26 259.994 127.702 259.243 128.097C256.001 129.973 252.662 131.678 249.24 133.203C249.157 133.239 249.069 133.259 248.979 133.263ZM249.696 81.7868V131.44C252.496 130.147 255.404 128.64 258.553 126.831C259.156 126.516 259.719 126.161 260.275 125.826V76.2459C259.94 76.4469 259.605 76.6412 259.243 76.8288C255.86 78.8053 252.724 80.3999 249.696 81.7868Z"
        fill="white" />
    <path
        d="M271.98 119.173C271.875 119.174 271.772 119.152 271.678 119.106C271.551 119.047 271.444 118.952 271.37 118.833C271.296 118.714 271.259 118.576 271.263 118.436V67.2279C271.264 67.1228 271.287 67.019 271.332 66.9241C271.378 66.8292 271.443 66.7453 271.524 66.6785C273.632 64.9363 275.645 63.0822 277.554 61.1242C279.695 58.9579 281.654 56.6183 283.41 54.1294C283.497 54.0037 283.622 53.909 283.766 53.8593C283.911 53.8096 284.068 53.8074 284.214 53.853C284.36 53.8987 284.487 53.9898 284.578 54.113C284.668 54.2363 284.717 54.3852 284.717 54.5381V105.766C284.716 105.914 284.671 106.059 284.589 106.182C282.794 108.731 280.795 111.131 278.613 113.357C276.659 115.35 274.602 117.237 272.449 119.012C272.316 119.119 272.15 119.176 271.98 119.173ZM272.697 67.583V116.915C274.439 115.421 276.08 113.893 277.581 112.352C279.657 110.236 281.561 107.957 283.276 105.538V56.7357C281.825 58.6172 280.258 60.4073 278.586 62.0957C276.718 64.0203 274.75 65.8453 272.69 67.5629L272.697 67.583Z"
        fill="white" />
    <g opacity="0.3">
        <path
            d="M214.474 150.382L243.612 96.5537L266.915 126.831C266.915 126.831 257.092 140.888 214.474 150.382Z"
            fill="#151D31" />
    </g>
    <g opacity="0.3">
        <path
            d="M160.351 153.618C133.745 152.197 107.87 145.879 87.4685 134.67C64.5411 122.04 52.8764 105.558 52.4878 89.0162V87.368L52.26 31.6106C52.26 27.6308 59.2682 38.9136 73.9479 50.4845C74.2963 50.7659 74.6179 51.0272 74.9998 51.3019C75.8172 51.9317 76.6547 52.5481 77.5257 53.1645C80.7344 55.4373 84.0721 57.5223 87.5221 59.4089C107.87 70.5912 133.625 76.9026 160.13 78.3431L160.351 153.618Z"
            fill="#151D31" />
    </g>
    <path
        d="M53.0238 31.6908C54.5066 32.9613 55.9012 34.3313 57.1979 35.7912C62.2623 41.2719 67.7266 46.369 73.5459 51.0404C73.8005 51.2481 74.0618 51.4491 74.3298 51.6501L74.6045 51.8712C75.3884 52.4742 76.2192 53.0906 77.1572 53.7539C80.3855 56.0354 83.7409 58.1314 87.2072 60.0318C106.637 70.7518 132.231 77.4518 159.426 79.0196L159.641 152.86C132.573 151.313 107.099 144.639 87.8303 134.033C65.8945 121.94 53.6 105.96 53.2047 89.0026V87.3544L52.997 31.6908M52.6888 30.8198C52.4141 30.8198 52.2801 31.0811 52.2801 31.6372L52.4878 87.3812V89.0294C52.8764 105.572 64.5478 122.054 87.4685 134.683C107.843 145.906 133.745 152.224 160.351 153.644L160.13 78.3429C133.631 76.9024 107.87 70.591 87.5489 59.4087C84.0989 57.5221 80.7612 55.4372 77.5525 53.1643C76.6815 52.5479 75.844 51.9315 75.0266 51.3017C74.6715 51.027 74.3566 50.7657 73.9747 50.4843C61.3452 40.5348 54.3839 30.8198 52.6888 30.8198Z"
        fill="#151D31" />
    <path
        d="M134.623 142.924H134.529C134.308 142.924 112.754 139.802 91.7833 129.156C67.7571 116.962 58.3235 98.0611 58.2297 97.8668C58.1798 97.7695 58.1545 97.6613 58.156 97.5519V83.0799C58.1545 82.9327 58.2016 82.789 58.29 82.6712L74.0417 60.4004C74.118 60.2972 74.22 60.2157 74.3375 60.164C74.455 60.1123 74.584 60.0922 74.7117 60.1056C74.8384 60.1183 74.9593 60.1648 75.0618 60.2402C75.1644 60.3157 75.2448 60.4173 75.2946 60.5344L94.8385 106.094L93.13 97.6926C93.1034 97.5554 93.117 97.4135 93.1693 97.2839C93.2216 97.1543 93.3104 97.0426 93.4248 96.9623L109.21 85.8738C109.29 85.8143 109.381 85.7732 109.479 85.7535C109.576 85.7338 109.676 85.736 109.773 85.7599C109.87 85.7807 109.961 85.8211 110.042 85.8787C110.123 85.9363 110.191 86.0099 110.242 86.0949L135.273 128.144C135.339 128.256 135.374 128.383 135.373 128.513V142.207C135.375 142.302 135.358 142.396 135.323 142.484C135.287 142.572 135.235 142.651 135.168 142.718C135.101 142.785 135.021 142.838 134.933 142.873C134.845 142.909 134.751 142.926 134.657 142.924H134.623ZM59.5831 97.3643C60.4943 99.113 69.948 116.453 92.4131 127.863C110.872 137.243 129.779 140.687 133.886 141.357V128.707L109.351 87.4885L94.6107 97.8668L97.5788 112.607C97.596 112.771 97.5558 112.936 97.4651 113.075C97.3744 113.213 97.2388 113.315 97.0812 113.365C96.9235 113.415 96.7536 113.408 96.6001 113.347C96.4466 113.286 96.3189 113.173 96.2388 113.029L74.4772 62.3099L59.5898 83.3211L59.5831 97.3643Z"
        fill="white" />
    <path
        d="M134.348 100.5C133.899 100.497 133.45 100.453 133.008 100.366C128.687 99.5217 125.176 94.7915 125.176 89.8268C125.132 88.6273 125.353 87.4328 125.825 86.3289C126.296 85.2251 127.006 84.2391 127.903 83.4417C128.638 82.8295 129.502 82.3911 130.43 82.1591C131.358 81.9271 132.326 81.9075 133.263 82.1017C137.578 82.9459 141.089 87.6761 141.089 92.6408C141.134 93.8404 140.913 95.0352 140.441 96.1392C139.97 97.2432 139.26 98.2291 138.362 99.0259C137.238 99.9731 135.818 100.495 134.348 100.5ZM131.93 83.4417C130.791 83.4319 129.686 83.8233 128.807 84.5472C128.075 85.2117 127.498 86.0291 127.117 86.9415C126.736 87.8539 126.561 88.839 126.603 89.8268C126.603 94.1416 129.598 98.2353 133.303 98.9589C134.032 99.1165 134.787 99.108 135.512 98.9341C136.237 98.7601 136.913 98.4251 137.491 97.9539C138.223 97.2894 138.8 96.472 139.181 95.5596C139.562 94.6472 139.737 93.6621 139.695 92.6743C139.695 88.3595 136.707 84.2658 132.995 83.5422C132.644 83.4743 132.287 83.4384 131.93 83.435V83.4417Z"
        fill="white" />
    <g opacity="0.3">
        <path
            d="M57.4994 48.6484C57.4994 48.6484 64.0319 60.1255 77.5391 65.117V58.6314C64.588 52.5076 57.4994 41.0439 57.4994 41.0439V48.6484Z"
            fill="#151D31" />
    </g>
    <g opacity="0.3">
        <path
            d="M57.4994 60.4004C57.4994 60.4004 64.0319 71.8775 77.5391 76.869V70.3834C64.588 64.2596 57.4994 52.7959 57.4994 52.7959V60.4004Z"
            fill="#151D31" />
    </g>
    <g opacity="0.3">
        <path
            d="M57.4994 72.1524C57.4994 72.1524 64.0319 83.6295 77.5391 88.621V82.1354C64.588 76.0116 57.4994 64.5479 57.4994 64.5479V72.1524Z"
            fill="#151D31" />
    </g>
</svg>
