<svg fill="none" height="335" viewBox="0 0 335 335" width="335" xmlns="http://www.w3.org/2000/svg">
    <path
        d="M164.686 319.684C249.161 319.684 317.641 281.768 317.641 234.996C317.641 188.224 249.161 150.308 164.686 150.308C80.2119 150.308 11.7319 188.224 11.7319 234.996C11.7319 281.768 80.2119 319.684 164.686 319.684Z"
        fill="#4A4C5B" />
    <path
        d="M178.273 285.514C206.533 285.514 229.441 272.831 229.441 257.186C229.441 241.541 206.533 228.859 178.273 228.859C150.014 228.859 127.105 241.541 127.105 257.186C127.105 272.831 150.014 285.514 178.273 285.514Z"
        fill="#454754" />
    <path
        d="M270.291 254.372C284.508 254.372 296.033 247.992 296.033 240.122C296.033 232.251 284.508 225.871 270.291 225.871C256.075 225.871 244.55 232.251 244.55 240.122C244.55 247.992 256.075 254.372 270.291 254.372Z"
        fill="#454754" />
    <path
        d="M69.9078 272.114C96.8202 272.114 118.637 260.034 118.637 245.133C118.637 230.232 96.8202 218.152 69.9078 218.152C42.9955 218.152 21.1787 230.232 21.1787 245.133C21.1787 260.034 42.9955 272.114 69.9078 272.114Z"
        fill="#454754" />
    <path
        d="M257.327 243.337C250.433 236.309 246.386 207.68 253.106 202.099H287.316C294.016 207.68 289.996 236.269 283.109 243.331L282.921 243.525L282.68 243.759C282.486 243.947 282.278 244.135 282.057 244.316L281.896 244.443L281.373 244.838C281.087 245.044 280.789 245.234 280.482 245.408C274.814 248.677 265.615 248.677 259.947 245.408C259.645 245.233 259.344 245.039 259.049 244.831C258.881 244.711 258.721 244.59 258.567 244.463L258.359 244.302C258.151 244.128 257.95 243.954 257.763 243.773L257.488 243.505L257.327 243.337Z"
        fill="#37474F" />
    <path
        d="M284.348 199.854C292.153 204.363 292.153 211.666 284.348 216.175C276.542 220.685 263.886 220.685 256.081 216.175C248.275 211.666 248.275 204.363 256.081 199.854C263.886 195.345 276.542 195.345 284.348 199.854Z"
        fill="#455A64" />
    <path
        d="M280.596 202.025C286.325 205.335 286.325 210.695 280.596 214.005C274.868 217.314 265.568 217.314 259.826 214.005C254.084 210.695 254.098 205.335 259.826 202.025C265.555 198.715 274.861 198.715 280.596 202.025Z"
        fill="#263238" />
    <path
        d="M259.833 207.7C265.568 204.39 274.861 204.39 280.603 207.7C281.989 208.447 283.168 209.527 284.033 210.842C283.17 212.161 281.991 213.243 280.603 213.991C274.868 217.301 265.575 217.301 259.833 213.991C258.446 213.242 257.268 212.16 256.402 210.842C257.27 209.528 258.448 208.449 259.833 207.7Z"
        fill="#F5F5F5" />
    <path
        d="M273.548 198.668L268.67 195.178C268.67 195.178 264.65 174.093 268.127 165.028C271.605 155.963 277.99 155.996 281.038 158.428C284.087 160.86 282.418 168.478 281.172 172.873C279.665 178.173 274.874 201.918 278.251 210.34L273.548 198.668Z"
        fill="#151D31" />
    <g opacity="0.2">
        <path
            d="M273.548 198.668L268.67 195.178C268.67 195.178 264.65 174.093 268.127 165.028C271.605 155.963 277.99 155.996 281.038 158.428C284.087 160.86 282.418 168.478 281.172 172.873C279.665 178.173 274.874 201.918 278.251 210.34L273.548 198.668Z"
            fill="black" />
    </g>
    <path
        d="M272.569 196.216C272.659 196.179 272.733 196.112 272.778 196.026C272.823 195.941 272.837 195.842 272.817 195.747C268.837 177.717 277.052 160.961 277.132 160.793C277.181 160.696 277.189 160.584 277.155 160.481C277.121 160.378 277.048 160.293 276.951 160.244C276.854 160.195 276.742 160.187 276.639 160.22C276.536 160.254 276.451 160.328 276.402 160.425C276.315 160.592 267.973 177.604 272.013 195.935C272.037 196.041 272.102 196.133 272.193 196.192C272.285 196.251 272.396 196.272 272.502 196.25L272.569 196.216Z"
        fill="white" />
    <path
        d="M271.444 193.181C271.444 193.181 270.895 191.526 273.334 191.104C275.772 190.682 276.684 188.652 276.938 185.248C277.193 181.845 278.198 179.406 281.253 178.903C284.308 178.401 286.774 179.942 288.764 178.408C290.754 176.873 295.892 173.175 300.154 174.863C304.415 176.552 303.028 180.223 300.824 182.568C298.619 184.913 297.956 185.737 299.658 189.59C301.36 193.442 300.12 197.04 296.187 197.945C292.254 198.849 290.05 198.38 289.99 202.702C289.929 206.561 289.146 210.172 285.119 211.633C281.932 212.787 278.507 213.125 275.156 212.618C274.029 212.519 272.959 212.074 272.094 211.345C271.277 210.521 271.424 209.603 271.424 208.531V193.181H271.444Z"
        fill="#151D31" />
    <g opacity="0.1">
        <path
            d="M271.444 193.181C271.444 193.181 270.895 191.526 273.334 191.104C275.772 190.682 276.684 188.652 276.938 185.248C277.193 181.845 278.198 179.406 281.253 178.903C284.308 178.401 286.774 179.942 288.764 178.408C290.754 176.873 295.892 173.175 300.154 174.863C304.415 176.552 303.028 180.223 300.824 182.568C298.619 184.913 297.956 185.737 299.658 189.59C301.36 193.442 300.12 197.04 296.187 197.945C292.254 198.849 290.05 198.38 289.99 202.702C289.929 206.561 289.146 210.172 285.119 211.633C281.932 212.787 278.507 213.125 275.156 212.618C274.029 212.519 272.959 212.074 272.094 211.345C271.277 210.521 271.424 209.603 271.424 208.531V193.181H271.444Z"
            fill="black" />
    </g>
    <path
        d="M271.444 210.976C271.516 210.977 271.586 210.954 271.644 210.912C271.701 210.87 271.744 210.81 271.766 210.742C278.928 189.469 295.149 180.873 295.31 180.793C295.389 180.751 295.449 180.68 295.476 180.595C295.504 180.51 295.497 180.417 295.457 180.337C295.437 180.297 295.409 180.262 295.376 180.233C295.342 180.203 295.303 180.181 295.26 180.168C295.218 180.154 295.173 180.149 295.128 180.153C295.084 180.156 295.041 180.169 295.001 180.19C294.834 180.277 278.379 188.98 271.122 210.527C271.108 210.57 271.102 210.614 271.105 210.659C271.108 210.703 271.119 210.747 271.139 210.787C271.159 210.827 271.187 210.862 271.221 210.891C271.255 210.921 271.294 210.943 271.337 210.956C271.371 210.97 271.407 210.977 271.444 210.976Z"
        fill="white" />
    <path
        d="M281.722 192.431H281.796C286.486 191.365 293.963 191.941 294.037 191.948C294.126 191.956 294.215 191.927 294.284 191.87C294.353 191.812 294.397 191.729 294.405 191.64C294.409 191.595 294.403 191.55 294.39 191.507C294.376 191.464 294.354 191.424 294.324 191.39C294.295 191.356 294.259 191.328 294.219 191.307C294.179 191.287 294.135 191.275 294.09 191.271C293.782 191.271 286.425 190.682 281.648 191.774C281.57 191.796 281.503 191.845 281.458 191.912C281.413 191.979 281.393 192.06 281.401 192.14C281.41 192.221 281.447 192.295 281.506 192.351C281.565 192.406 281.641 192.439 281.722 192.444V192.431Z"
        fill="white" />
    <path
        d="M277.91 202.655C280.047 202.655 282.312 202.514 282.459 202.507C282.504 202.505 282.547 202.493 282.587 202.474C282.628 202.454 282.663 202.427 282.693 202.393C282.722 202.359 282.744 202.32 282.758 202.277C282.772 202.235 282.777 202.19 282.774 202.146C282.772 202.101 282.761 202.057 282.742 202.016C282.723 201.975 282.695 201.939 282.661 201.91C282.627 201.88 282.588 201.858 282.545 201.844C282.502 201.831 282.457 201.826 282.412 201.831C282.365 201.831 277.139 202.152 275.096 201.831C275.007 201.819 274.917 201.842 274.845 201.894C274.773 201.946 274.723 202.024 274.707 202.112C274.693 202.201 274.715 202.291 274.768 202.364C274.821 202.437 274.9 202.486 274.988 202.501C275.957 202.62 276.934 202.671 277.91 202.655Z"
        fill="white" />
    <path
        d="M283.919 189.931C283.964 189.929 284.007 189.918 284.048 189.898C284.088 189.878 284.124 189.851 284.153 189.817C284.182 189.783 284.205 189.744 284.219 189.702C284.232 189.659 284.238 189.614 284.234 189.57C284.071 187.137 283.568 184.74 282.74 182.448C282.706 182.364 282.64 182.298 282.558 182.261C282.476 182.225 282.382 182.222 282.298 182.253C282.256 182.269 282.218 182.294 282.186 182.325C282.154 182.356 282.128 182.394 282.111 182.435C282.093 182.476 282.084 182.52 282.084 182.565C282.084 182.61 282.093 182.654 282.11 182.695C282.914 184.922 283.41 187.249 283.584 189.61C283.588 189.696 283.624 189.778 283.687 189.838C283.749 189.898 283.833 189.932 283.919 189.931Z"
        fill="white" />
    <path
        d="M271.35 213.281C267.977 214.314 264.392 214.446 260.952 213.663C254.989 212.383 253.548 208.738 253.548 208.738C253.548 208.738 257.796 204.323 261.555 204.048C257.803 203.49 253.983 203.571 250.259 204.29C250.259 204.29 246.808 203.017 247.458 197.248C247.458 197.248 250.707 194.883 258.178 195.807C258.178 195.807 254.433 193.168 247.86 192.384C247.344 192.384 248.048 184.88 248.671 181.53C249.294 178.18 250.54 178.702 253.227 178.99C255.913 179.278 264.369 182.072 265.374 183.995C266.379 185.918 265.374 190.802 265.374 190.802C265.374 190.802 267.833 188.792 268.375 186.327C270.262 186.498 272.052 187.239 273.508 188.451C275.873 190.461 275.189 191.727 274.419 193.717C273.658 195.727 272.614 197.618 271.317 199.332C271.317 199.332 273.836 198.42 276.228 192.417C276.228 192.417 278.7 197.013 279.136 200.303C279.571 203.593 276.449 210.594 271.35 213.281Z"
        fill="#151D31" />
    <path
        d="M271.196 213.596C271.136 213.574 271.083 213.535 271.044 213.484C271.005 213.433 270.981 213.372 270.975 213.308C270.077 202.139 257.435 184.686 251.847 181.181C251.771 181.133 251.717 181.057 251.697 180.969C251.677 180.881 251.692 180.789 251.74 180.712C251.79 180.639 251.866 180.587 251.953 180.567C252.04 180.547 252.131 180.561 252.209 180.605C257.89 184.17 270.734 201.905 271.639 213.254C271.642 213.298 271.637 213.343 271.624 213.385C271.61 213.427 271.588 213.466 271.56 213.499C271.531 213.533 271.496 213.561 271.457 213.581C271.417 213.601 271.374 213.613 271.33 213.616C271.285 213.621 271.239 213.614 271.196 213.596Z"
        fill="white" />
    <path
        d="M70.3503 269.012C70.0784 269.012 69.8177 268.904 69.6254 268.712C69.4332 268.519 69.3252 268.259 69.3252 267.987V202.119C69.3252 201.847 69.4332 201.586 69.6254 201.394C69.8177 201.202 70.0784 201.094 70.3503 201.094C70.6222 201.094 70.8829 201.202 71.0751 201.394C71.2674 201.586 71.3754 201.847 71.3754 202.119V268C71.3719 268.27 71.2623 268.527 71.0705 268.716C70.8786 268.906 70.6199 269.012 70.3503 269.012Z"
        fill="#455A64" />
    <path
        d="M111.086 245.039C110.878 245.037 110.676 244.972 110.506 244.852C110.336 244.733 110.207 244.564 110.135 244.369L89.9411 193.248C89.8625 193 89.8809 192.732 89.9924 192.498C90.104 192.263 90.3004 192.08 90.5421 191.984C90.7837 191.889 91.0526 191.889 91.2942 191.984C91.5359 192.08 91.7323 192.263 91.8439 192.498L112.038 243.619C112.09 243.744 112.116 243.879 112.115 244.015C112.114 244.151 112.086 244.285 112.032 244.41C111.978 244.535 111.9 244.648 111.802 244.742C111.704 244.836 111.588 244.91 111.462 244.959C111.343 245.009 111.215 245.036 111.086 245.039Z"
        fill="#455A64" />
    <path
        d="M108.661 238.895C108.521 238.896 108.383 238.868 108.255 238.812C108.127 238.757 108.012 238.676 107.917 238.574L70.3503 198.809L32.8302 238.406C32.74 238.512 32.6292 238.599 32.5045 238.66C32.3799 238.722 32.2439 238.758 32.105 238.765C31.9662 238.773 31.8272 238.752 31.6966 238.704C31.566 238.656 31.4466 238.582 31.3456 238.486C31.2445 238.391 31.164 238.275 31.1088 238.148C31.0537 238.02 31.0252 237.882 31.0249 237.743C31.0247 237.604 31.0527 237.467 31.1074 237.339C31.162 237.211 31.2421 237.095 31.3428 236.999L69.5998 196.612C69.6984 196.514 69.8156 196.437 69.9445 196.385C70.0734 196.333 70.2114 196.308 70.3503 196.31C70.4894 196.311 70.627 196.34 70.7548 196.396C70.8825 196.451 70.9979 196.531 71.0939 196.632L109.405 237.18C109.542 237.326 109.634 237.508 109.668 237.705C109.703 237.902 109.68 238.105 109.601 238.289C109.522 238.473 109.39 238.629 109.223 238.739C109.056 238.85 108.861 238.908 108.661 238.909V238.895Z"
        fill="#455A64" />
    <path
        d="M29.5873 245.039C29.4588 245.038 29.3315 245.013 29.2121 244.965C29.0852 244.917 28.9693 244.843 28.8713 244.749C28.7733 244.655 28.6951 244.542 28.6414 244.417C28.5877 244.292 28.5596 244.158 28.5586 244.022C28.5577 243.886 28.584 243.751 28.6359 243.625L48.8297 192.504C48.9292 192.251 49.1252 192.048 49.3746 191.939C49.6241 191.83 49.9064 191.825 50.1597 191.925C50.4129 192.024 50.6162 192.22 50.7249 192.47C50.8336 192.719 50.8387 193.002 50.7392 193.255L30.5387 244.376C30.4656 244.569 30.3356 244.737 30.1658 244.855C29.996 244.973 29.7943 245.038 29.5873 245.039Z"
        fill="#455A64" />
    <path
        d="M109.693 237.321L112.373 244.363C112.379 244.423 112.379 244.483 112.373 244.543C112.379 244.586 112.379 244.629 112.373 244.671C112.301 244.866 112.157 245.027 111.971 245.12C111.719 245.245 111.441 245.311 111.16 245.311C110.879 245.311 110.601 245.245 110.349 245.12C110.21 245.046 110.099 244.928 110.034 244.785V244.691L107.562 238.085L109.693 237.321Z"
        fill="#151D31" />
    <path
        d="M30.9809 237.321L28.3009 244.363C28.2943 244.423 28.2943 244.483 28.3009 244.543C28.2942 244.586 28.2942 244.629 28.3009 244.671C28.3722 244.866 28.5162 245.027 28.7029 245.12C28.9547 245.245 29.2322 245.311 29.5136 245.311C29.795 245.311 30.0725 245.245 30.3243 245.12C30.4638 245.046 30.5747 244.928 30.6392 244.785V244.691L33.1182 238.085L30.9809 237.321Z"
        fill="#151D31" />
    <path
        d="M71.5161 262.888V268.717C71.5067 268.82 71.4701 268.919 71.4101 269.004C71.3501 269.089 71.2688 269.156 71.1744 269.199C70.914 269.328 70.6274 269.395 70.3369 269.395C70.0464 269.395 69.7598 269.328 69.4994 269.199C69.405 269.156 69.3237 269.089 69.2637 269.004C69.2037 268.919 69.1672 268.82 69.1577 268.717V262.888C69.5203 262.693 69.9254 262.591 70.3369 262.591C70.7484 262.591 71.1536 262.693 71.5161 262.888Z"
        fill="#151D31" />
    <path
        d="M112.332 192.518C112.332 190.836 110.858 189.041 107.743 187.024C101.988 183.285 89.1235 175.788 81.0701 171.326C81.0659 171.31 81.0575 171.295 81.0457 171.283C81.0339 171.271 81.0192 171.263 81.0031 171.259C74.7989 167.5 69.0101 149.584 64.7288 135.963C63.2682 131.327 61.4726 128.7 59.3688 127.468C58.8663 127.173 57.0104 126.128 56.595 125.9C52.3874 123.381 46.8599 126.409 39.979 130.174C33.6341 133.645 28.6828 138.087 27.6845 149.872C27.0815 157.055 27.6845 170.77 29.1183 181.161C31.2288 198.521 33.8083 198.581 37.5804 201.456C44.0526 206.461 58.6318 213.516 64.7757 215.908C75.9178 220.289 85.0231 213.529 91.8102 210.179C98.0351 207.029 104.045 203.47 109.8 199.526C111.495 198.287 112.379 197.04 112.359 195.727C112.326 195.198 112.339 193.061 112.332 192.518Z"
        fill="#263238" />
    <path
        d="M91.79 206.943C98.0113 203.798 104.019 200.246 109.773 196.31C113.632 193.51 113.277 190.642 107.763 187.051C103.636 184.371 103.85 184.136 72.7687 167.051C72.7687 167.051 33.1382 190.434 34.8467 194.756C36.5552 199.077 57.0438 209.657 64.7689 212.698C75.8909 217.08 84.9962 210.293 91.79 206.943Z"
        fill="#37474F" />
    <path
        d="M59.1076 127.3C54.9335 125.109 49.5132 128.084 42.8065 131.756C38.5118 134.114 34.8536 136.901 32.6292 142.12L29.8018 140.486C32.0195 135.286 35.6777 132.499 39.959 130.148C46.8399 126.382 52.3674 123.354 56.575 125.873C56.9502 126.114 58.4108 126.932 59.1076 127.3Z"
        fill="#455A64" />
    <path
        d="M42.8062 131.789C53.1041 126.148 60.3736 122.141 64.7286 135.963C69.0166 149.584 74.7786 167.5 81.0029 171.259C81.0029 171.259 78.9929 169.557 63.5829 181.208C58.6785 184.913 52.7222 187.955 48.8429 190.287C41.1848 194.849 36.535 196.679 35.8047 196.069C31.7512 192.719 29.5603 163.272 30.5586 151.487C31.5569 139.702 36.468 135.26 42.8062 131.789Z"
        fill="#37474F" />
    <g opacity="0.5">
        <path
            d="M42.8063 131.789C53.1042 126.148 60.3737 122.141 64.7287 135.963C69.0167 149.584 74.7787 167.5 81.003 171.259C81.003 171.259 70.3701 171.259 54.9601 179.573C38.9471 188.223 36.4949 196.679 35.7646 196.069C31.7111 192.719 29.5202 163.272 30.5185 151.487C31.5168 139.702 36.4681 135.26 42.8063 131.789Z"
            fill="#455A64" />
    </g>
    <path
        d="M240.034 98.7581C242.761 98.1484 245.167 97.5789 247.016 97.1032C256.851 94.5907 259.813 91.3345 260.114 86.9862C260.603 80.045 258.004 79.9914 253.522 83.0935C251.658 84.4164 249.616 85.4697 247.458 86.2224C248.208 85.3656 248.833 84.407 249.314 83.3749C249.984 81.6463 249.073 80.5408 248.476 80.246C248.007 80.0182 247.532 81.2175 245.91 82.5441C243.82 84.2392 242.132 84.5541 240.403 86.9192C239.742 87.7898 238.791 88.3956 237.723 88.6277C236.745 88.8488 220.685 93.244 213.161 94.5371C208.745 88.9158 204.645 82.9193 199.975 76.9496C192.786 67.7438 189.369 66.4574 185.336 67.1877L181.832 78.7385C181.832 78.7385 205.509 106.624 205.791 106.972C206.595 108.059 207.721 108.864 209.009 109.275C210.297 109.685 211.682 109.679 212.966 109.257C223.164 106.262 233.958 101.565 240.034 98.7581Z"
        fill="#FFA8A7" />
    <path
        d="M184.397 64.8628C192.799 65.2313 195.292 69.9414 199.606 75.1674C203.921 80.3934 213.315 93.8001 213.315 93.8001L236.249 89.0029C236.249 89.0029 235.304 95.589 238.259 99.5554C238.259 99.5554 226.092 105.693 218.722 108.513C209.409 112.091 208.799 111.274 207.117 109.733C205.435 108.192 185.007 85.07 185.007 85.07L184.397 64.8628Z"
        fill="#37474F" />
    <path
        d="M89.5925 80.4C91.77 73.7938 94.1753 73.5191 97.1434 78.0885C98.3681 80.019 99.8564 81.769 101.565 83.2877C101.187 82.2077 100.961 81.0801 100.895 79.9377C100.895 78.0818 102.195 77.3984 102.859 77.3582C103.381 77.3582 103.361 78.6111 104.366 80.4536C105.652 82.8187 107.093 83.7567 107.803 86.5908C108.071 87.6561 108.768 89.7733 109.659 90.4031C114.215 93.6057 122.496 97.552 130.731 100.734C133.652 94.5638 137.504 86.8655 140.439 81.472C146.027 71.221 149.725 70.082 153.792 70.5644L157.933 81.8941C157.933 81.8941 135.823 111.059 135.595 111.421C133.9 113.806 130.429 115.441 127.729 114.335C120.017 111.173 114.289 105.625 107.743 101.163C103.857 98.5235 100.185 96.4733 97.8402 94.7179C89.7265 88.6745 88.2257 84.5406 89.5925 80.4Z"
        fill="#FFA8A7" />
    <path
        d="M148.479 207.894C148.66 199.184 151.279 192.719 151.487 190.3C151.487 190.3 150.817 138.489 150.817 130.081L194.997 128.278C194.997 128.278 194.38 180.223 194.38 187.426C194.38 194.628 193.302 225.241 192.163 239.331L192.035 243.967L182.173 247.036C182.173 247.036 182.361 245.696 182.173 239.103C181.985 232.51 177.557 209.744 177.141 203.962C176.612 196.478 177.811 193.456 177.657 188.458C177.503 183.46 174.589 150.75 174.589 150.75C174.589 150.75 169.054 182.91 167.674 193.798C166.1 206.3 161.034 239.07 161.021 246.687C161.021 248.027 161.021 249.635 161.021 251.344C161.021 255.471 160.907 256.557 161.57 258.151C162.723 260.938 152.86 262.694 152.391 260.711L151.326 252.523V252.289V247.096C151.34 239.331 148.211 220.531 148.479 207.894Z"
        fill="#FFA8A7" />
    <path
        d="M211.351 256.898C211.62 257.698 211.572 258.571 211.217 259.337C210.876 260.054 207.151 262.158 202.119 261.816C198.391 261.553 194.801 260.299 191.72 258.184C189.804 256.911 187.808 256.677 185.315 256.53C182.823 256.382 179.553 255.149 179.011 253.984C178.468 252.818 179.091 250.814 179.091 250.814L211.351 256.898Z"
        fill="#37474F" />
    <path
        d="M191.057 241.2L191.459 241.113C191.678 241.054 191.906 241.043 192.129 241.08C192.372 241.157 192.586 241.303 192.746 241.502C193.241 242.127 193.672 242.8 194.032 243.512C195.084 245.227 197.302 246.654 199.714 247.954C201.362 248.838 202.97 249.522 204.665 250.285C206.36 251.049 208.685 251.538 210.025 252.449C212.001 253.789 212.256 257.139 210.025 258.439C208.089 259.578 202.983 260.811 197.63 259.297C194.715 258.473 191.479 255.357 187.654 255.056C185.215 254.868 180.612 254.185 179.044 252.336C178.468 251.511 179.238 248.912 179.875 246.674C180.545 244.222 181.396 240.389 182.207 240.604C182.24 241.086 182.146 241.207 182.461 241.535C182.776 241.863 183.165 242.038 183.493 242.319C184.055 242.877 184.509 243.533 184.833 244.255C184.96 244.577 185.197 244.843 185.503 245.006C185.918 245.16 186.22 244.899 186.582 244.738C187.038 244.529 187.554 244.491 188.035 244.631C187.988 244.147 187.902 243.667 187.781 243.197C187.725 243.049 187.711 242.889 187.741 242.734C187.806 242.586 187.916 242.462 188.056 242.379C188.962 241.78 189.985 241.378 191.057 241.2Z"
        fill="#455A64" />
    <path
        d="M171.165 271.149C171.46 271.43 171.372 273.347 171.044 273.829C170.716 274.311 168.666 276.107 165.014 276.375C161.523 276.623 158.401 276.154 156.351 274.847C154.301 273.541 153.303 272.107 153.115 270.117C152.927 268.127 153.115 266.204 152.19 264.677C151.313 263.263 149.919 261.668 149.618 260.898C148.948 259.23 149.618 256.844 149.618 256.844L171.165 271.149Z"
        fill="#37474F" />
    <path
        d="M161.597 253.769C161.623 254.524 161.759 255.271 161.999 255.987C162.538 257.527 163.257 258.998 164.143 260.369C164.578 261.086 165.064 261.771 165.597 262.419C166.656 263.679 167.969 264.71 169.088 265.916C170.281 267.056 171.043 268.574 171.245 270.211C171.393 272.951 168.418 273.883 166.127 274.285C163.649 274.719 161.105 274.593 158.683 273.916C157.412 273.583 156.263 272.891 155.374 271.923C154.486 270.954 153.894 269.751 153.671 268.456C153.544 267.692 153.591 266.915 153.504 266.151C153.198 264.401 152.466 262.754 151.373 261.354C150.735 260.545 150.187 259.668 149.738 258.741C149.021 257.046 149.591 255.136 150.053 253.448C150.449 251.987 150.891 250.339 151.393 250.473C151.393 251.23 151.393 251.31 151.936 251.813C152.606 252.483 152.646 253.441 153.376 254.01C153.14 253.38 152.97 252.726 152.867 252.061C152.819 251.794 152.874 251.518 153.021 251.29C153.26 251.075 153.547 250.92 153.859 250.841C154.946 250.471 156.069 250.217 157.209 250.084C158.285 249.907 159.382 249.907 160.458 250.084C160.777 250.144 161.066 250.312 161.276 250.56C161.465 250.833 161.566 251.159 161.564 251.491C161.611 251.92 161.577 253.046 161.597 253.769Z"
        fill="#455A64" />
    <path
        d="M164.512 260.938C163.487 260.174 161.202 260.168 159.949 260.302C158.68 260.412 157.458 260.841 156.398 261.548C156.243 261.661 156.052 261.714 155.861 261.699C155.669 261.685 155.489 261.603 155.353 261.468C155.273 261.391 155.21 261.297 155.169 261.193C155.129 261.09 155.112 260.979 155.119 260.868C155.126 260.757 155.157 260.648 155.21 260.551C155.263 260.453 155.337 260.368 155.427 260.302C156.599 259.437 157.993 258.923 159.447 258.821C162.529 258.6 163.426 259.129 163.426 259.129C163.426 259.129 164.82 260.034 164.512 260.938Z"
        fill="#F5F5F5" />
    <path
        d="M166.83 263.746C165.544 262.989 163.031 263.076 161.778 263.236C160.528 263.372 159.336 263.834 158.321 264.576C158.165 264.689 157.974 264.743 157.782 264.727C157.591 264.711 157.411 264.627 157.276 264.489C157.196 264.413 157.134 264.319 157.094 264.216C157.054 264.112 157.038 264.002 157.045 263.891C157.053 263.78 157.085 263.673 157.139 263.576C157.192 263.479 157.267 263.395 157.356 263.33C158.542 262.425 159.958 261.87 161.443 261.729C164.519 261.508 165.323 262.138 165.323 262.138C165.678 262.276 165.998 262.492 166.259 262.771C166.52 263.049 166.715 263.382 166.83 263.746Z"
        fill="#F5F5F5" />
    <path
        d="M158.201 255.873C159.498 255.647 160.831 255.758 162.073 256.195C162.616 256.503 162.971 257.36 162.623 257.575C161.535 257.137 160.357 256.976 159.192 257.106C158.031 257.215 156.898 257.523 155.842 258.017C155.581 258.138 155.273 258.298 154.998 258.453C154.911 258.5 154.816 258.529 154.717 258.539C154.619 258.549 154.52 258.539 154.425 258.51C154.331 258.48 154.243 258.432 154.168 258.368C154.093 258.304 154.031 258.226 153.986 258.138C153.909 257.984 153.893 257.806 153.943 257.642C153.993 257.477 154.105 257.338 154.254 257.253C155.455 256.515 156.801 256.045 158.201 255.873Z"
        fill="#F5F5F5" />
    <path
        d="M197.435 246.64C197.261 246.306 197.005 246.021 196.691 245.812C196.377 245.602 196.016 245.475 195.64 245.441C194.534 245.233 192.578 246.051 191.359 247.049C191.244 247.143 191.154 247.264 191.096 247.401C191.038 247.538 191.015 247.687 191.029 247.835C191.042 247.983 191.091 248.126 191.172 248.25C191.253 248.375 191.363 248.478 191.493 248.55C191.656 248.64 191.844 248.677 192.03 248.657C192.216 248.636 192.391 248.559 192.531 248.436C193.868 247.219 195.629 246.575 197.435 246.64Z"
        fill="#F5F5F5" />
    <path
        d="M200.866 248.57C200.627 248.229 200.309 247.952 199.939 247.76C199.569 247.569 199.159 247.47 198.742 247.471C198.742 247.471 195.848 247.558 194.052 249.227C193.942 249.318 193.856 249.434 193.801 249.565C193.745 249.697 193.723 249.84 193.735 249.982C193.746 250.124 193.792 250.261 193.869 250.382C193.945 250.502 194.049 250.602 194.173 250.674C194.33 250.762 194.511 250.799 194.691 250.778C194.87 250.758 195.038 250.681 195.171 250.56C195.91 249.822 196.806 249.26 197.792 248.915C198.778 248.571 199.829 248.453 200.866 248.57Z"
        fill="#F5F5F5" />
    <path
        d="M204.658 250.299C204.384 249.983 204.044 249.731 203.662 249.56C203.28 249.389 202.866 249.302 202.447 249.307C200.804 249.407 199.234 250.027 197.965 251.076C197.855 251.167 197.769 251.283 197.713 251.414C197.658 251.546 197.635 251.689 197.647 251.831C197.659 251.973 197.705 252.11 197.781 252.231C197.858 252.351 197.962 252.452 198.086 252.523C198.243 252.61 198.424 252.647 198.603 252.626C198.782 252.606 198.95 252.53 199.084 252.409C199.783 251.646 200.652 251.058 201.62 250.691C202.588 250.324 203.629 250.19 204.658 250.299Z"
        fill="#F5F5F5" />
    <path
        d="M195.024 128.278C195.024 128.278 195.614 164.88 195.694 171.312C195.774 177.744 195.694 190.072 195.694 196.357C195.694 196.357 194.066 199.104 184.78 199.097C175.493 199.091 174.153 196.525 174.153 196.525L172.78 166.937L170.18 197.65C168.301 198.929 166.181 199.809 163.949 200.236C161.717 200.664 159.421 200.63 157.202 200.136C149.558 198.488 148.432 196.21 148.432 196.21L149.94 128.399L195.024 128.278Z"
        fill="#37474F" />
    <path
        d="M172.766 166.937L174.106 154.515C174.106 154.515 180.478 152.961 184.739 149.752C183.367 151.418 181.733 152.85 179.902 153.993C177.315 155.447 176.069 156.043 176.069 156.043L174.207 168.063L173.878 191.513L172.766 166.937Z"
        fill="#263238" />
    <path
        d="M149.41 134.623C155.474 139.038 182.964 143.936 195.721 134.623C195.721 134.623 195.426 98.9925 194.421 80.132C194.374 79.2744 194.32 78.4436 194.233 77.6396C194.233 77.3716 194.166 77.1036 194.139 76.8356C193.992 75.705 193.768 74.5858 193.469 73.4856C193.422 73.3047 193.362 73.1238 193.309 72.9429C193.181 72.5342 193.054 72.1389 192.886 71.7436C192.806 71.5359 192.719 71.3282 192.625 71.1272C192.531 70.9262 192.451 70.7453 192.344 70.5644C192.335 70.528 192.319 70.4938 192.297 70.4639C192.203 70.283 192.096 70.1021 191.995 69.9279C191.895 69.7537 191.768 69.546 191.634 69.3584C191.5 69.1708 191.386 69.0033 191.258 68.8425C191.131 68.6817 190.964 68.4807 190.803 68.3065C190.657 68.1375 190.503 67.9765 190.34 67.8241L190.005 67.5092L189.67 67.2345C189.53 67.1072 189.369 66.9933 189.215 66.8794C188.704 66.5213 188.167 66.2032 187.607 65.928C187.453 65.8543 187.292 65.7739 187.131 65.7136C187.092 65.6983 187.054 65.6804 187.017 65.66L186.441 65.4456C186.119 65.3191 185.79 65.2095 185.456 65.1173C185.117 65.0235 184.762 64.9364 184.391 64.856C183.975 64.856 183.52 64.856 183.051 64.856H182.046L180.96 64.8962C176.19 65.1039 169.343 65.8744 163.849 66.5779L162.777 66.7253L161.832 66.8392C158.06 67.335 155.266 67.7437 154.837 67.8107H154.77C153.537 68.1256 152.392 68.4204 151.467 68.6951C148.948 69.4388 150.797 68.8023 150.268 71.2411C148.64 78.3967 150.536 104.426 150.536 104.426L149.41 134.623Z"
        fill="#455A64" />
    <path
        d="M160.378 45.2854C160.378 45.2854 162.341 54.4979 163.125 56.0054C163.651 56.9375 164.514 57.6328 165.537 57.9484L165.396 51.4695L160.378 45.2854Z"
        fill="#263238" />
    <path
        d="M162.81 32.093C162.124 32.0156 161.429 32.0961 160.779 32.3283C160.128 32.5606 159.54 32.9384 159.058 33.433C157.45 35.0678 158.368 40.2 160.378 45.2853L164.07 45.7141L162.81 32.093Z"
        fill="#263238" />
    <path
        d="M165.175 45.7141C164.438 46.1563 163.38 44.7359 162.495 43.7778C161.611 42.8197 158.602 41.5199 157.135 44.6488C155.668 47.7777 158.475 52.059 160.793 52.796C164.813 54.069 165.443 51.456 165.443 51.456L165.671 66.33C169.905 74.0015 184.237 70.0753 178.863 64.99V61.2179C180.895 61.3622 182.935 61.3622 184.967 61.2179C187.942 60.7556 189.161 58.6987 190.066 55.476C191.513 50.3036 192.076 46.1295 190.836 35.9589C189.496 24.8168 176.525 24.7029 169.523 29.1048C162.522 33.5067 165.175 45.7141 165.175 45.7141Z"
        fill="#FFA8A7" />
    <path
        d="M163.48 26.0028C165.935 24.9542 168.499 24.1812 171.125 23.6979C176.78 22.4718 182.515 21.3395 187.701 18.7332C188.299 18.3455 188.998 18.1428 189.711 18.1504C191.051 18.3313 191.667 19.9795 191.721 21.3463C191.767 22.6203 191.6 23.8931 191.225 25.1116C191.636 24.7177 192.186 24.5017 192.756 24.5104C193.325 24.5192 193.868 24.7521 194.267 25.1585C194.646 25.5859 194.922 26.094 195.076 26.6443C195.229 27.1946 195.255 27.7726 195.151 28.3344C194.816 30.867 192.88 32.9774 190.582 34.103C188.284 35.2286 185.684 35.5033 183.131 35.577C179.564 35.684 175.996 35.4168 172.485 34.7797C171.643 34.568 170.77 34.5045 169.906 34.5921C169.474 34.6404 169.065 34.8093 168.724 35.0795C168.384 35.3496 168.127 35.7102 167.983 36.1197C167.607 37.5267 167.212 47.101 165.249 47.1412C164.881 47.1412 163.487 44.7359 162.569 43.8783C161.43 42.7929 160.278 34.5921 160.077 33.0779C160.052 32.96 159.999 32.8497 159.923 32.7563C158.636 30.954 160.144 27.9189 161.732 26.9273C162.296 26.5855 162.88 26.2768 163.48 26.0028Z"
        fill="#263238" />
    <path
        d="M160.626 32.8836C160.396 33.1533 160.116 33.3751 159.8 33.5364C159.485 33.6976 159.141 33.7952 158.788 33.8235C158.435 33.8518 158.08 33.8103 157.742 33.7014C157.405 33.5924 157.093 33.4181 156.824 33.1885C156.554 32.9588 156.332 32.6783 156.171 32.363C156.01 32.0476 155.912 31.7036 155.884 31.3505C155.855 30.9974 155.897 30.6422 156.006 30.3052C156.115 29.9682 156.289 29.6559 156.519 29.3862L160.626 32.8836Z"
        fill="#263238" />
    <path
        d="M178.85 61.2312C178.85 61.2312 172.217 60.5612 169.892 59.3552C168.526 58.6446 167.408 57.5375 166.683 56.1794C167.034 57.5372 167.653 58.8107 168.505 59.9247C170.207 62.0955 178.85 63.6968 178.85 63.6968V61.2312Z"
        fill="#F28F8F" />
    <path
        d="M177.255 44.0524C177.246 44.3153 177.16 44.5696 177.007 44.7837C176.854 44.9978 176.642 45.1622 176.396 45.2565C176.151 45.3508 175.883 45.3707 175.626 45.3138C175.37 45.2569 175.135 45.1258 174.952 44.9366C174.77 44.7475 174.647 44.5088 174.599 44.2502C174.551 43.9916 174.58 43.7246 174.682 43.4825C174.785 43.2404 174.957 43.0338 175.176 42.8885C175.395 42.7432 175.652 42.6657 175.915 42.6655C176.095 42.6654 176.274 42.7016 176.439 42.7718C176.605 42.8421 176.755 42.945 176.88 43.0744C177.005 43.2039 177.103 43.3572 177.167 43.5252C177.232 43.6932 177.262 43.8725 177.255 44.0524Z"
        fill="#263238" />
    <path
        d="M175.848 39.0341L173.001 40.6019C172.798 40.2111 172.754 39.7568 172.879 39.3345C173.004 38.9122 173.288 38.5548 173.671 38.3374C173.858 38.2352 174.065 38.1722 174.278 38.152C174.49 38.1319 174.705 38.1551 174.908 38.2202C175.112 38.2854 175.3 38.3911 175.462 38.531C175.623 38.6708 175.755 38.842 175.848 39.0341Z"
        fill="#263238" />
    <path
        d="M178.253 53.2449L181.289 54.3839C181.222 54.5876 181.116 54.7759 180.975 54.9376C180.835 55.0992 180.663 55.2309 180.47 55.3247C180.278 55.4185 180.068 55.4725 179.854 55.4835C179.64 55.4946 179.426 55.4624 179.225 55.3889C178.817 55.2269 178.488 54.9129 178.306 54.513C178.125 54.1131 178.106 53.6585 178.253 53.2449Z"
        fill="#F28F8F" />
    <path
        d="M189.121 40.1397L186.528 38.1297C186.649 37.9542 186.805 37.8053 186.986 37.692C187.166 37.5787 187.368 37.5034 187.579 37.4708C187.79 37.4382 188.005 37.4489 188.211 37.5023C188.418 37.5557 188.611 37.6506 188.78 37.7813C189.13 38.0545 189.361 38.4524 189.424 38.8919C189.488 39.3313 189.379 39.7784 189.121 40.1397Z"
        fill="#263238" />
    <path
        d="M188.324 43.6774C188.315 43.9403 188.228 44.1946 188.075 44.4087C187.923 44.6228 187.71 44.7872 187.465 44.8815C187.219 44.9758 186.952 44.9957 186.695 44.9388C186.438 44.8819 186.204 44.7508 186.021 44.5616C185.838 44.3725 185.715 44.1338 185.667 43.8752C185.619 43.6166 185.648 43.3496 185.751 43.1075C185.853 42.8654 186.025 42.6588 186.244 42.5135C186.464 42.3682 186.721 42.2907 186.984 42.2905C187.164 42.2904 187.342 42.3266 187.508 42.3968C187.673 42.4671 187.823 42.57 187.948 42.6994C188.073 42.8289 188.171 42.9822 188.235 43.1502C188.3 43.3182 188.33 43.4976 188.324 43.6774Z"
        fill="#263238" />
    <path d="M182.642 42.7258L183.084 50.7256L187.258 49.2985L182.642 42.7258Z" fill="#F28F8F" />
    <path
        d="M155.273 67.804C145.457 67.9581 142.911 73.7402 140.017 79.864C137.123 85.9878 129.779 99.83 129.779 99.83L111.301 91.4751C110.241 94.7726 108.038 97.5833 105.09 99.4012C105.09 99.4012 113.8 106.724 121.317 112.091C127.676 116.634 131.367 118.992 133.813 117.364C135.622 116.158 153.658 92.5739 153.658 92.5739C158.254 85.4049 159.233 73.231 155.273 67.804Z"
        fill="#37474F" />
    <path
        d="M186.528 47.2954L185.476 46.7594L184.444 45.2854C184.611 45.2148 184.792 45.1846 184.972 45.1975C185.153 45.2103 185.328 45.2656 185.483 45.3591C185.952 45.6941 186.528 47.2954 186.528 47.2954Z"
        fill="#151D31" />
    <path d="M186.528 47.2954L185.476 46.7594L184.444 45.2854C184.611 45.2148 184.792 45.1846 184.972 45.1975C185.153 45.2103 185.328 45.2656 185.483 45.3591C185.952 45.6941 186.528 47.2954 186.528 47.2954Z"
        fill="black"
        opacity="0.65" />
    <path
        d="M196.31 42.6925C196.245 43.7859 195.824 44.8281 195.112 45.6602C194.399 46.4923 193.434 47.0689 192.364 47.3021L190.709 47.5835C189.985 47.7169 189.248 47.7753 188.512 47.7577H188.29C188.17 47.7577 188.049 47.7577 187.935 47.7577C187.73 47.7378 187.526 47.7042 187.326 47.6572C187.221 47.637 187.117 47.6079 187.017 47.5701C186.925 47.5437 186.835 47.5077 186.749 47.4629C186.71 47.4494 186.674 47.429 186.642 47.4026C186.597 47.3806 186.554 47.3537 186.515 47.3222C186.448 47.2656 186.391 47.1975 186.347 47.1212L185.778 45.9554C185.647 45.7229 185.449 45.535 185.21 45.4156C184.972 45.2962 184.703 45.2509 184.438 45.2854L183.259 45.4931C182.967 45.5695 182.695 45.7094 182.464 45.9028C182.232 46.0962 182.046 46.3383 181.919 46.612C181.919 46.612 181.671 47.2284 181.356 47.952C181.041 48.6756 179.085 49.6203 176.994 49.962L175.339 50.2568C175.004 50.3064 174.663 50.3064 174.328 50.2568C174.139 50.244 173.953 50.2103 173.772 50.1563L173.517 50.0826L173.356 50.0156C173.211 49.9599 173.072 49.8903 172.941 49.8079C172.492 49.627 165.276 46.6924 164.284 44.3273C162.703 40.5217 169.195 36.6022 171.534 35.8585C171.802 35.7496 172.08 35.6688 172.365 35.6173L189.409 32.6961C190.258 32.5268 191.139 32.6925 191.868 33.1584C192.304 33.4331 193.912 34.3845 194.582 34.7865C194.641 34.8135 194.697 34.8472 194.749 34.887C194.843 34.9406 194.937 35.0076 195.031 35.0679C195.062 35.089 195.092 35.1138 195.118 35.1416C195.212 35.2153 195.299 35.2957 195.386 35.3761C195.491 35.482 195.587 35.5963 195.674 35.7178C195.74 35.8013 195.799 35.891 195.848 35.9858C195.931 36.1178 196.003 36.2568 196.062 36.4012C196.116 36.5285 196.156 36.6558 196.196 36.7831C196.232 36.9035 196.257 37.0268 196.27 37.1516C196.276 37.1803 196.276 37.21 196.27 37.2387C196.28 37.3792 196.28 37.5202 196.27 37.6608C196.346 39.3536 196.359 41.0309 196.31 42.6925Z"
        fill="#151D31" />
    <g opacity="0.2">
        <path
            d="M196.31 42.6925C196.245 43.7859 195.824 44.8281 195.112 45.6602C194.399 46.4923 193.434 47.0689 192.364 47.3021L190.709 47.5835C189.985 47.7169 189.248 47.7753 188.512 47.7577H188.29C188.17 47.7577 188.049 47.7577 187.935 47.7577C187.73 47.7378 187.526 47.7042 187.326 47.6572C187.221 47.637 187.117 47.6079 187.017 47.5701C186.925 47.5437 186.835 47.5077 186.749 47.4629C186.71 47.4494 186.674 47.429 186.642 47.4026C186.597 47.3806 186.554 47.3537 186.515 47.3222C186.448 47.2656 186.391 47.1975 186.347 47.1212L185.778 45.9554C185.647 45.7229 185.449 45.535 185.21 45.4156C184.972 45.2962 184.703 45.2509 184.438 45.2854L183.259 45.4931C182.967 45.5695 182.695 45.7094 182.464 45.9028C182.232 46.0962 182.046 46.3383 181.919 46.612C181.919 46.612 181.671 47.2284 181.356 47.952C181.041 48.6756 179.085 49.6203 176.994 49.962L175.339 50.2568C175.004 50.3064 174.663 50.3064 174.328 50.2568C174.139 50.244 173.953 50.2103 173.772 50.1563L173.517 50.0826L173.356 50.0156C173.211 49.9599 173.072 49.8903 172.941 49.8079C172.492 49.627 165.276 46.6924 164.284 44.3273C162.703 40.5217 169.195 36.6022 171.534 35.8585C171.802 35.7496 172.08 35.6688 172.365 35.6173L189.409 32.6961C190.258 32.5268 191.139 32.6925 191.868 33.1584C192.304 33.4331 193.912 34.3845 194.582 34.7865C194.641 34.8135 194.697 34.8472 194.749 34.887C194.843 34.9406 194.937 35.0076 195.031 35.0679C195.062 35.089 195.092 35.1138 195.118 35.1416C195.212 35.2153 195.299 35.2957 195.386 35.3761C195.491 35.482 195.587 35.5963 195.674 35.7178C195.74 35.8013 195.799 35.891 195.848 35.9858C195.931 36.1178 196.003 36.2568 196.062 36.4012C196.116 36.5285 196.156 36.6558 196.196 36.7831C196.232 36.9035 196.257 37.0268 196.27 37.1516C196.276 37.1803 196.276 37.21 196.27 37.2387C196.28 37.3792 196.28 37.5202 196.27 37.6608C196.346 39.3536 196.359 41.0309 196.31 42.6925Z"
            fill="black" />
    </g>
    <path
        d="M194.581 34.7865C193.903 34.437 193.127 34.3239 192.377 34.4649L175.332 37.4732C174.31 37.695 173.382 38.2297 172.677 39.0029C171.972 39.7761 171.526 40.7494 171.399 41.788L166.508 38.9673C167.985 37.6666 169.682 36.641 171.52 35.9389C171.788 35.83 172.066 35.7492 172.351 35.6977L189.409 32.6961C190.257 32.5268 191.139 32.6925 191.868 33.1584C192.29 33.4331 193.911 34.3845 194.581 34.7865Z"
        fill="#151D31" />
    <path d="M194.581 34.7865C193.903 34.437 193.127 34.3239 192.377 34.4649L175.332 37.4732C174.31 37.695 173.382 38.2297 172.677 39.0029C171.972 39.7761 171.526 40.7494 171.399 41.788L166.508 38.9673C167.985 37.6666 169.682 36.641 171.52 35.9389C171.788 35.83 172.066 35.7492 172.351 35.6977L189.409 32.6961C190.257 32.5268 191.139 32.6925 191.868 33.1584C192.29 33.4331 193.911 34.3845 194.581 34.7865Z"
        fill="white"
        opacity="0.35" />
    <path
        d="M196.31 37.674C196.35 39.3446 196.35 41.0196 196.31 42.699C196.245 43.7912 195.824 44.8319 195.111 45.662C194.398 46.4921 193.433 47.0658 192.364 47.2952L190.709 47.59C188.612 47.9585 186.689 47.7307 186.347 47.0942L185.778 45.9284C185.646 45.696 185.449 45.508 185.21 45.3887C184.971 45.2693 184.702 45.224 184.438 45.2584L183.252 45.4728C182.959 45.5466 182.686 45.6855 182.454 45.8792C182.222 46.0729 182.037 46.3165 181.912 46.5917L181.342 47.9317C181.027 48.6821 179.078 49.5933 176.987 49.9417L175.332 50.2365C174.855 50.3386 174.36 50.3324 173.885 50.2184C173.411 50.1043 172.967 49.8854 172.588 49.5775C172.209 49.2697 171.903 48.8808 171.694 48.4395C171.485 47.9982 171.377 47.5156 171.379 47.0272C171.339 45.3589 171.339 43.6772 171.379 42.0089C171.445 40.9154 171.868 39.8735 172.581 39.0424C173.295 38.2113 174.261 37.6366 175.332 37.406L192.377 34.4044C192.858 34.3033 193.356 34.3123 193.834 34.4308C194.311 34.5492 194.756 34.7741 195.134 35.0885C195.512 35.403 195.814 35.7989 196.018 36.2466C196.222 36.6943 196.321 37.1823 196.31 37.674Z"
        fill="#151D31" />
    <path d="M196.31 42.6925C196.245 43.786 195.824 44.8281 195.111 45.6602C194.399 46.4923 193.434 47.0689 192.364 47.3021L190.709 47.5835C189.984 47.7169 189.248 47.7753 188.511 47.7577H188.29C188.17 47.7577 188.049 47.7577 187.935 47.7577C187.73 47.7378 187.526 47.7042 187.325 47.6572C187.22 47.6371 187.117 47.6079 187.017 47.5701C186.924 47.5437 186.835 47.5078 186.749 47.4629C186.71 47.4494 186.674 47.429 186.642 47.4026C186.597 47.3807 186.554 47.3537 186.515 47.3222C186.447 47.2656 186.391 47.1976 186.347 47.1212L185.778 45.9554C185.646 45.723 185.449 45.535 185.21 45.4156C184.971 45.2963 184.702 45.2509 184.438 45.2854L183.258 45.4931C182.967 45.5695 182.695 45.7094 182.463 45.9028C182.232 46.0962 182.046 46.3384 181.918 46.612C181.918 46.612 181.671 47.2284 181.356 47.952C181.041 48.6756 179.084 49.6203 176.994 49.962L175.339 50.2568C175.004 50.3064 174.663 50.3064 174.327 50.2568C174.139 50.244 173.952 50.2103 173.771 50.1563L173.517 50.0826L173.356 50.0156C173.211 49.9599 173.072 49.8904 172.941 49.8079C172.465 49.5148 172.072 49.1047 171.8 48.6168C171.528 48.1289 171.385 47.5794 171.386 47.0207C171.346 45.3457 171.346 43.6707 171.386 41.9957C171.452 40.9021 171.874 39.8603 172.588 39.0292C173.302 38.1981 174.268 37.6234 175.339 37.3928L192.384 34.3845C193.134 34.2435 193.91 34.3567 194.588 34.7061C194.648 34.7331 194.704 34.7668 194.756 34.8066C194.849 34.8602 194.943 34.9272 195.037 34.9875C195.069 35.0087 195.098 35.0334 195.124 35.0612C195.218 35.1349 195.305 35.2153 195.392 35.2957C195.497 35.4017 195.594 35.5159 195.68 35.6374C195.747 35.7209 195.805 35.8107 195.855 35.9054C195.938 36.0374 196.01 36.1764 196.069 36.3208C196.123 36.4481 196.163 36.5754 196.203 36.7027C196.238 36.8231 196.263 36.9464 196.277 37.0712C196.283 37.0999 196.283 37.1296 196.277 37.1583C196.287 37.2988 196.287 37.4399 196.277 37.5804C196.348 39.3269 196.359 41.0309 196.31 42.6925Z"
        fill="white"
        opacity="0.5" />
    <g opacity="0.7">
        <path
            d="M196.31 37.6743C196.32 37.5338 196.32 37.3927 196.31 37.2522C196.316 37.2235 196.316 37.1938 196.31 37.1651C196.297 37.0404 196.272 36.917 196.236 36.7966C196.196 36.6693 196.156 36.542 196.102 36.4147C196.043 36.2704 195.971 36.1314 195.888 35.9993C195.839 35.9046 195.78 35.8149 195.714 35.7313C195.627 35.6099 195.531 35.4956 195.426 35.3896C195.339 35.3092 195.252 35.2288 195.158 35.1551C195.134 35.1293 195.107 35.1067 195.077 35.0881L184.833 45.2788C185.034 45.3064 185.226 45.3815 185.393 45.498C185.56 45.6145 185.696 45.7691 185.791 45.9488L186.361 47.1146C186.404 47.191 186.461 47.2591 186.528 47.3156C186.567 47.3471 186.61 47.3741 186.655 47.396C186.687 47.4225 186.724 47.4429 186.763 47.4563C186.848 47.5012 186.938 47.5371 187.031 47.5635C187.131 47.6014 187.234 47.6305 187.339 47.6506C187.54 47.6977 187.743 47.7312 187.949 47.7511C188.062 47.7511 188.183 47.7511 188.304 47.7511H188.525C188.972 47.7609 189.42 47.7408 189.865 47.6908L196.364 41.1985C196.357 40.026 196.35 38.8602 196.31 37.6743Z"
            fill="#151D31" />
        <path
            d="M188.23 35.2019L173.336 50.0893L173.497 50.1563L173.751 50.23C173.932 50.2841 174.119 50.3178 174.307 50.3305C174.643 50.3801 174.984 50.3801 175.319 50.3305L176.398 50.1362L191.975 34.5654L188.23 35.2019Z"
            fill="#151D31" />
        <path
            d="M177.631 37.0644L171.366 43.3356C171.366 44.5885 171.366 45.8414 171.366 47.101C171.374 47.6766 171.526 48.241 171.808 48.7425L184.739 35.8115L177.631 37.0644Z"
            fill="#151D31" />
    </g>
    <path
        d="M167.433 43.6438C167.444 43.7344 167.434 43.8262 167.404 43.9124C167.374 43.9986 167.325 44.0769 167.261 44.1414C167.196 44.2059 167.118 44.2549 167.032 44.2848C166.946 44.3146 166.854 44.3245 166.763 44.3138C166.569 44.2665 166.397 44.1545 166.275 43.9961C166.153 43.8377 166.089 43.6425 166.093 43.4428C166.082 43.3522 166.092 43.2604 166.122 43.1742C166.152 43.088 166.201 43.0097 166.265 42.9452C166.33 42.8807 166.408 42.8316 166.494 42.8018C166.581 42.7719 166.673 42.762 166.763 42.7728C166.957 42.8211 167.128 42.9335 167.25 43.0916C167.371 43.2497 167.436 43.4443 167.433 43.6438Z"
        fill="#263238" />
    <g opacity="0.5">
        <path
            d="M193.027 34.7663C193.512 34.7659 193.989 34.8807 194.421 35.1013C194.47 35.126 194.517 35.1551 194.561 35.1884C194.649 35.2396 194.734 35.2955 194.816 35.3559H194.849H194.883L195.117 35.5636C195.213 35.661 195.301 35.7663 195.379 35.8785C195.433 35.9447 195.48 36.0165 195.519 36.0929C195.588 36.207 195.648 36.3257 195.7 36.448C195.74 36.5441 195.773 36.6425 195.801 36.7428V36.7964C195.832 36.8942 195.853 36.9954 195.861 37.0979V37.1984C195.871 37.3233 195.871 37.4487 195.861 37.5736C195.908 39.2352 195.908 40.9236 195.861 42.5785C195.821 43.5955 195.45 44.5717 194.806 45.3598C194.162 46.1478 193.279 46.7049 192.29 46.9469L190.635 47.235C190.02 47.3415 189.397 47.3976 188.773 47.4025H188.484H188.277H187.955C187.761 47.3809 187.569 47.3473 187.379 47.302C187.284 47.2829 187.19 47.2583 187.098 47.2283C187.033 47.2068 186.97 47.1799 186.91 47.1479H186.863L186.796 47.1077C186.765 47.0801 186.738 47.0486 186.716 47.0139L186.146 45.8481C186.012 45.563 185.8 45.3216 185.534 45.1521C185.269 44.9825 184.96 44.8917 184.645 44.89C184.558 44.8833 184.471 44.8833 184.384 44.89L183.198 45.0977C182.845 45.1845 182.517 45.3502 182.237 45.5823C181.957 45.8144 181.734 46.1069 181.583 46.4377L181.014 47.7777C180.779 48.3338 179.044 49.2182 176.92 49.5934L175.272 49.8815C175.077 49.9147 174.88 49.9327 174.682 49.9351C174.571 49.9418 174.459 49.9418 174.347 49.9351C174.18 49.9201 174.014 49.891 173.852 49.848L173.651 49.781L173.564 49.7475H173.483C173.356 49.7008 173.235 49.6401 173.121 49.5666C172.696 49.3048 172.345 48.9381 172.102 48.5016C171.859 48.0652 171.733 47.5737 171.734 47.0742C171.701 45.4193 171.701 43.7242 171.734 42.0693C171.804 41.0605 172.198 40.1013 172.857 39.3346C173.516 38.5679 174.406 38.0348 175.393 37.8148L192.444 34.84C192.637 34.8055 192.832 34.7876 193.027 34.7864M193.027 34.4313C192.803 34.4317 192.579 34.4497 192.357 34.4849L175.312 37.4932C174.241 37.7238 173.275 38.2985 172.561 39.1296C171.848 39.9607 171.425 41.0025 171.359 42.0961C171.319 43.7778 171.319 45.4461 171.359 47.1211C171.359 47.6798 171.501 48.2293 171.773 48.7172C172.045 49.2051 172.438 49.6152 172.914 49.9083C173.045 49.9908 173.184 50.0603 173.329 50.116L173.49 50.183L173.744 50.2567C173.926 50.3107 174.112 50.3444 174.301 50.3572C174.421 50.3642 174.542 50.3642 174.662 50.3572C174.887 50.3597 175.111 50.3418 175.332 50.3036L176.987 50.0088C179.078 49.647 181.007 48.7358 181.349 47.9988C181.691 47.2618 181.912 46.6588 181.912 46.6588C182.039 46.3852 182.225 46.143 182.457 45.9496C182.688 45.7562 182.96 45.6163 183.252 45.5399L184.431 45.3322C184.498 45.3256 184.565 45.3256 184.632 45.3322C184.865 45.3348 185.093 45.3979 185.294 45.5154C185.494 45.6329 185.661 45.8006 185.778 46.0022L186.347 47.168C186.391 47.2444 186.447 47.3124 186.515 47.369C186.554 47.4005 186.597 47.4275 186.642 47.4494C186.674 47.4758 186.71 47.4962 186.749 47.5097C186.835 47.5546 186.924 47.5905 187.017 47.6169C187.117 47.6547 187.22 47.6839 187.325 47.704C187.526 47.751 187.73 47.7846 187.935 47.8045C188.049 47.8045 188.17 47.8045 188.29 47.8045H188.786C189.431 47.8007 190.074 47.7402 190.709 47.6236L192.364 47.3422C193.44 47.1071 194.41 46.5246 195.123 45.6844C195.836 44.8442 196.253 43.7929 196.31 42.6924C196.35 41.0174 196.35 39.3446 196.31 37.6741C196.32 37.5336 196.32 37.3925 196.31 37.252C196.316 37.2233 196.316 37.1936 196.31 37.1649C196.296 37.0401 196.272 36.9168 196.236 36.7964C196.196 36.6691 196.156 36.5418 196.102 36.4145C196.043 36.2701 195.971 36.1311 195.888 35.9991C195.839 35.9044 195.78 35.8146 195.714 35.7311C195.627 35.6096 195.531 35.4954 195.426 35.3894C195.339 35.309 195.251 35.2286 195.158 35.1549C195.132 35.1271 195.102 35.1024 195.071 35.0812C194.977 35.0209 194.883 34.9539 194.789 34.9003C194.737 34.8605 194.681 34.8268 194.622 34.7998C194.141 34.5511 193.608 34.4224 193.067 34.4246L193.027 34.4313Z"
            fill="black" />
    </g>
    <path
        d="M171.379 47.1009L171.292 43.4896C171.292 42.8866 171.245 42.297 171.292 41.6739C171.364 41.0578 171.555 40.4616 171.855 39.9185C172.445 38.8184 173.41 37.9671 174.575 37.5199C175.16 37.3412 175.758 37.209 176.364 37.1246L178.14 36.803L185.248 35.5903C187.62 35.1973 189.996 34.8243 192.377 34.4714C190.019 34.9538 187.658 35.4184 185.295 35.865L178.22 37.1514L176.445 37.4529C175.858 37.5288 175.278 37.6498 174.709 37.8147C173.61 38.2371 172.691 39.028 172.11 40.0525C171.816 40.5601 171.622 41.1198 171.54 41.7007C171.473 42.2769 171.507 42.8933 171.487 43.4896L171.379 47.1009Z"
        fill="white" />
    <g opacity="0.3">
        <path
            d="M292.187 18.1435V104.882C290.699 113.96 286.029 122.878 278.117 131.065C275.262 134.002 272.184 136.712 268.911 139.172C265.713 141.535 262.384 143.716 258.941 145.705C245.823 153.303 230.285 158.649 213.776 161.785C211.15 162.29 208.497 162.736 205.817 163.125V76.0248C224.376 73.0232 241.863 67.4957 256.509 59.4356C274.686 49.3856 285.775 36.9839 289.795 24.0127C290.558 22.0957 291.178 20.125 291.651 18.1167C291.671 18.0606 291.71 18.0127 291.76 17.9798C291.81 17.9468 291.869 17.9307 291.928 17.9337C291.988 17.9367 292.045 17.9586 292.092 17.9964C292.138 18.0341 292.171 18.0856 292.187 18.1435Z"
            fill="#151D31" />
    </g>
    <path
        d="M205.435 163.54V75.71L205.737 75.6631C224.724 72.5945 242.211 66.8727 256.308 59.1141C273.802 49.4795 285.252 37.319 289.406 23.9525V23.651H289.527C290.241 21.8177 290.827 19.9372 291.282 18.023C291.342 17.8968 291.441 17.7926 291.563 17.7251C291.685 17.6575 291.826 17.6299 291.965 17.6461C292.104 17.6624 292.234 17.7217 292.337 17.8157C292.441 17.9097 292.512 18.0337 292.542 18.1704V104.882C291.007 114.309 286.23 123.186 278.351 131.313C275.484 134.264 272.39 136.986 269.098 139.454C265.89 141.829 262.548 144.019 259.089 146.013C246.265 153.43 231.029 158.87 213.817 162.14C211.197 162.642 208.51 163.091 205.844 163.48L205.435 163.54ZM206.152 76.2996V162.73C208.671 162.361 211.204 161.932 213.683 161.463C230.815 158.2 245.977 152.8 258.734 145.383C262.163 143.402 265.48 141.233 268.67 138.884C271.927 136.444 274.991 133.756 277.835 130.844C285.614 122.804 290.324 114.094 291.832 104.848V18.7935C291.371 20.6037 290.796 22.3828 290.11 24.12C285.895 37.6741 274.331 49.982 256.657 59.7104C242.54 67.4757 225.12 73.2109 206.152 76.2996Z"
        fill="#151D31" />
    <path
        d="M225.93 141.497C225.74 141.497 225.558 141.422 225.423 141.287C225.289 141.153 225.213 140.971 225.213 140.78V89.5522C225.219 89.3989 225.274 89.2513 225.369 89.1308C225.464 89.0104 225.595 88.9233 225.743 88.8822C229.984 87.7432 233.897 86.5305 237.702 85.1637C237.812 85.1209 237.931 85.1064 238.048 85.1216C238.165 85.1368 238.277 85.1813 238.372 85.2508C238.467 85.3169 238.545 85.405 238.599 85.5077C238.652 85.6104 238.68 85.7246 238.68 85.8404V137.069C238.678 137.215 238.632 137.358 238.547 137.478C238.462 137.597 238.343 137.688 238.205 137.739C234.352 139.119 230.406 140.345 226.145 141.491C226.074 141.501 226.002 141.504 225.93 141.497ZM226.647 90.1016V139.842C230.359 138.831 233.836 137.745 237.226 136.539V86.832C233.83 88.0179 230.372 89.11 226.647 90.1016Z"
        fill="white" />
    <path
        d="M248.979 133.263C248.84 133.266 248.705 133.226 248.59 133.149C248.489 133.084 248.406 132.995 248.348 132.89C248.291 132.784 248.261 132.666 248.262 132.546V81.3178C248.26 81.1774 248.299 81.0395 248.374 80.9206C248.449 80.8018 248.557 80.7071 248.684 80.6478C252.06 79.1349 255.354 77.4464 258.553 75.5893C259.283 75.2007 259.96 74.7853 260.61 74.3766C260.718 74.3073 260.843 74.2705 260.972 74.2705C261.1 74.2705 261.225 74.3073 261.333 74.3766C261.446 74.437 261.541 74.5268 261.607 74.6365C261.673 74.7462 261.708 74.8717 261.709 74.9997V126.228C261.709 126.35 261.678 126.471 261.618 126.578C261.558 126.685 261.472 126.774 261.367 126.838C260.697 127.26 259.993 127.702 259.243 128.097C256.001 129.973 252.662 131.678 249.24 133.203C249.157 133.239 249.069 133.259 248.979 133.263ZM249.696 81.7868V131.44C252.496 130.147 255.404 128.64 258.553 126.831C259.156 126.516 259.719 126.161 260.275 125.826V76.2459C259.94 76.4469 259.605 76.6412 259.243 76.8288C255.86 78.8053 252.724 80.3999 249.696 81.7868Z"
        fill="white" />
    <path
        d="M271.979 119.173C271.875 119.174 271.772 119.152 271.678 119.106C271.551 119.047 271.444 118.952 271.37 118.833C271.296 118.714 271.259 118.576 271.262 118.436V67.2279C271.263 67.1228 271.287 67.019 271.332 66.9241C271.377 66.8292 271.443 66.7453 271.524 66.6785C273.632 64.9363 275.645 63.0822 277.554 61.1242C279.695 58.9579 281.654 56.6183 283.41 54.1294C283.497 54.0037 283.621 53.909 283.766 53.8593C283.911 53.8096 284.067 53.8074 284.213 53.853C284.359 53.8987 284.487 53.9898 284.577 54.113C284.668 54.2363 284.716 54.3852 284.716 54.5381V105.766C284.715 105.914 284.671 106.059 284.589 106.182C282.794 108.731 280.795 111.131 278.612 113.357C276.659 115.35 274.601 117.237 272.448 119.012C272.316 119.119 272.15 119.176 271.979 119.173ZM272.696 67.583V116.915C274.438 115.421 276.08 113.893 277.581 112.352C279.657 110.236 281.561 107.957 283.276 105.538V56.7357C281.824 58.6172 280.258 60.4073 278.586 62.0957C276.718 64.0203 274.75 65.8453 272.69 67.5629L272.696 67.583Z"
        fill="white" />
    <g opacity="0.3">
        <path
            d="M214.474 150.382L243.612 96.5537L266.915 126.831C266.915 126.831 257.092 140.888 214.474 150.382Z"
            fill="#151D31" />
    </g>
    <g opacity="0.3">
        <path
            d="M160.351 153.618C133.745 152.197 107.87 145.879 87.4683 134.67C64.5409 122.04 52.8762 105.558 52.4876 89.0162V87.368L52.2598 31.6106C52.2598 27.6308 59.268 38.9136 73.9477 50.4845C74.2961 50.7659 74.6177 51.0272 74.9996 51.3019C75.817 51.9317 76.6545 52.5481 77.5255 53.1645C80.7342 55.4373 84.0719 57.5223 87.5219 59.4089C107.87 70.5912 133.625 76.9026 160.13 78.3431L160.351 153.618Z"
            fill="#151D31" />
    </g>
    <path
        d="M53.0235 31.6911C54.5063 32.9615 55.9009 34.3315 57.1976 35.7915C62.262 41.2722 67.7263 46.3692 73.5456 51.0407C73.8002 51.2484 74.0615 51.4494 74.3295 51.6504L74.6042 51.8715C75.3881 52.4745 76.2189 53.0909 77.1569 53.7542C80.3852 56.0357 83.7406 58.1317 87.2069 60.0321C106.637 70.7521 132.231 77.4521 159.426 79.0199L159.641 152.861C132.573 151.313 107.099 144.64 87.83 134.034C65.8942 121.94 53.5997 105.961 53.2044 89.0029V87.3547L52.9967 31.6911M52.6885 30.8201C52.4138 30.8201 52.2798 31.0814 52.2798 31.6375L52.4875 87.3815V89.0297C52.8761 105.572 64.5475 122.054 87.4682 134.683C107.843 145.906 133.745 152.224 160.351 153.644L160.13 78.3432C133.631 76.9027 107.87 70.5913 87.5486 59.409C84.0986 57.5224 80.7609 55.4374 77.5522 53.1646C76.6812 52.5482 75.8437 51.9318 75.0263 51.302C74.6712 51.0273 74.3563 50.766 73.9744 50.4846C61.3449 40.5351 54.3836 30.8201 52.6885 30.8201Z"
        fill="#151D31" />
    <path
        d="M134.623 142.924H134.529C134.308 142.924 112.754 139.802 91.7831 129.156C67.7569 116.962 58.3233 98.0611 58.2295 97.8668C58.1796 97.7695 58.1543 97.6614 58.1558 97.5519V83.0799C58.1544 82.9327 58.2015 82.789 58.2898 82.6712L74.0415 60.4004C74.1179 60.2972 74.2198 60.2157 74.3373 60.164C74.4549 60.1123 74.5838 60.0922 74.7115 60.1056C74.8382 60.1183 74.9591 60.1648 75.0617 60.2402C75.1642 60.3157 75.2446 60.4173 75.2944 60.5344L94.8383 106.094L93.1298 97.6926C93.1032 97.5554 93.1168 97.4135 93.1692 97.2839C93.2215 97.1543 93.3102 97.0426 93.4246 96.9623L109.21 85.8738C109.289 85.8143 109.381 85.7732 109.478 85.7535C109.576 85.7338 109.676 85.736 109.773 85.7599C109.87 85.7807 109.961 85.8211 110.042 85.8787C110.123 85.9363 110.191 86.0099 110.242 86.0949L135.273 128.144C135.339 128.256 135.373 128.383 135.373 128.513V142.207C135.375 142.302 135.358 142.396 135.322 142.484C135.287 142.572 135.234 142.651 135.167 142.718C135.1 142.785 135.021 142.838 134.933 142.873C134.845 142.909 134.751 142.926 134.656 142.924H134.623ZM59.5829 97.3643C60.4941 99.113 69.9478 116.453 92.4129 127.863C110.871 137.243 129.779 140.687 133.886 141.357V128.707L109.351 87.4885L94.6105 97.8668L97.5786 112.607C97.5958 112.771 97.5556 112.936 97.465 113.075C97.3743 113.213 97.2386 113.315 97.081 113.365C96.9234 113.415 96.7534 113.408 96.5999 113.347C96.4464 113.286 96.3188 113.173 96.2386 113.029L74.477 62.3099L59.5896 83.3211L59.5829 97.3643Z"
        fill="white" />
    <path
        d="M134.348 100.5C133.898 100.497 133.45 100.453 133.008 100.366C128.687 99.5217 125.176 94.7915 125.176 89.8268C125.132 88.6273 125.353 87.4328 125.825 86.3289C126.296 85.2251 127.006 84.2391 127.903 83.4417C128.638 82.8295 129.502 82.3911 130.43 82.1591C131.358 81.9271 132.326 81.9075 133.263 82.1017C137.578 82.9459 141.088 87.6761 141.088 92.6408C141.134 93.8404 140.913 95.0352 140.441 96.1392C139.97 97.2432 139.259 98.2291 138.362 99.0259C137.238 99.9731 135.818 100.495 134.348 100.5ZM131.93 83.4417C130.791 83.4319 129.686 83.8233 128.807 84.5472C128.075 85.2117 127.498 86.0291 127.117 86.9415C126.736 87.8539 126.561 88.839 126.603 89.8268C126.603 94.1416 129.598 98.2353 133.303 98.9589C134.032 99.1165 134.787 99.108 135.511 98.9341C136.236 98.7601 136.913 98.4251 137.491 97.9539C138.223 97.2894 138.8 96.472 139.181 95.5596C139.562 94.6472 139.737 93.6621 139.695 92.6743C139.695 88.3595 136.707 84.2658 132.995 83.5422C132.644 83.4743 132.287 83.4384 131.93 83.435V83.4417Z"
        fill="white" />
    <g opacity="0.3">
        <path
            d="M57.499 48.6487C57.499 48.6487 64.0315 60.1258 77.5387 65.1173V58.6317C64.5876 52.5079 57.499 41.0442 57.499 41.0442V48.6487Z"
            fill="#151D31" />
    </g>
    <g opacity="0.3">
        <path
            d="M57.499 60.4004C57.499 60.4004 64.0315 71.8775 77.5387 76.869V70.3834C64.5876 64.2596 57.499 52.7959 57.499 52.7959V60.4004Z"
            fill="#151D31" />
    </g>
    <g opacity="0.3">
        <path
            d="M57.499 72.1524C57.499 72.1524 64.0315 83.6295 77.5387 88.621V82.1354C64.5876 76.0116 57.499 64.5479 57.499 64.5479V72.1524Z"
            fill="#151D31" />
    </g>
</svg>
