<svg fill="none" height="371" viewBox="0 0 371 371" width="371" xmlns="http://www.w3.org/2000/svg">
    <path
        d="M299.293 191.725C236.038 155.204 133.827 155.204 70.9575 191.725C8.08781 228.247 8.44397 287.443 71.6995 323.987C134.955 360.53 237.165 360.516 300.043 323.987C362.92 287.458 362.556 228.254 299.293 191.725Z"
        fill="#F5F5F5" />
    <path
        d="M48.972 298.492C46.8128 299.738 46.8128 301.757 48.972 302.996L57.7721 308.079C58.9761 308.693 60.3086 309.013 61.6602 309.013C63.0119 309.013 64.3443 308.693 65.5483 308.079L162.082 252.347C164.234 251.1 164.257 249.082 162.082 247.836L153.282 242.76C152.077 242.146 150.743 241.826 149.391 241.826C148.038 241.826 146.704 242.146 145.499 242.76L48.972 298.492Z"
        fill="#E6E6E6" />
    <path
        d="M77.5687 304.962C75.4095 306.209 75.4021 308.227 77.5687 309.466L86.3689 314.549C87.5742 315.163 88.9078 315.483 90.2606 315.483C91.6135 315.483 92.9471 315.163 94.1524 314.549L176.596 266.898C178.748 265.658 178.77 263.64 176.596 262.394L167.789 257.311C166.583 256.7 165.251 256.382 163.9 256.382C162.549 256.382 161.217 256.7 160.012 257.311L77.5687 304.962Z"
        fill="#E6E6E6" />
    <path
        d="M273.798 313.065C256.361 302.996 228.172 302.996 210.847 313.065C193.521 323.134 193.61 339.465 211.047 349.534C228.484 359.603 256.673 359.603 274.006 349.534C291.339 339.465 291.22 323.134 273.798 313.065Z"
        fill="#E6E6E6" />
    <path
        d="M313.124 277.256C318.414 274.199 326.955 274.199 332.208 277.256C337.462 280.313 337.402 285.254 332.149 288.311C326.896 291.369 318.318 291.361 313.065 288.311C307.811 285.262 307.826 280.305 313.124 277.256Z"
        fill="#E6E6E6" />
    <path d="M255.537 94.8574L255.448 126.6L257.214 127.624L257.303 95.874L255.537 94.8574Z"
        fill="#E0E0E0" />
    <path
        d="M257.311 95.8735H257.303L257.214 127.624L258.75 126.726L258.839 96.7565L257.311 95.8735Z"
        fill="#F0F0F0" />
    <path d="M257.303 97.2986V95.874L255.537 94.8574V96.2821L257.303 97.2986Z" fill="black"
        opacity="0.2" />
    <path d="M257.303 97.2982L258.542 96.5858L257.311 95.8735H257.303V97.2982Z" fill="black"
        opacity="0.2" />
    <path d="M255.537 60.8364L255.448 92.5792L257.214 93.5957L257.303 61.853L255.537 60.8364Z"
        fill="#E0E0E0" />
    <path d="M257.311 61.853H257.303L257.214 93.5958L258.75 92.7054L258.839 62.736L257.311 61.853Z"
        fill="#F0F0F0" />
    <path d="M257.303 63.2776V61.853L255.537 60.8364V62.2611L257.303 63.2776Z" fill="black"
        opacity="0.2" />
    <path d="M257.303 63.2777L258.542 62.5653L257.311 61.853H257.303V63.2777Z" fill="black"
        opacity="0.2" />
    <path d="M255.537 26.8086L255.448 58.5588L257.214 59.5753L257.303 27.8326L255.537 26.8086Z"
        fill="#E0E0E0" />
    <path
        d="M257.311 27.8325H257.303L257.214 59.5753L258.75 58.6849L258.839 28.7155L257.311 27.8325Z"
        fill="#F0F0F0" />
    <path d="M257.303 29.2572V27.8326L255.537 26.8086V28.2332L257.303 29.2572Z" fill="black"
        opacity="0.2" />
    <path d="M257.303 29.2572L258.542 28.5448L257.311 27.8325H257.303V29.2572Z" fill="black"
        opacity="0.2" />
    <path d="M313.933 128.878L313.844 160.621L315.61 161.645L315.699 129.894L313.933 128.878Z"
        fill="#E0E0E0" />
    <path
        d="M315.706 129.895H315.699L315.61 161.645L317.146 160.754L317.235 130.778L315.706 129.895Z"
        fill="#F0F0F0" />
    <path d="M315.699 131.327V129.894L313.933 128.878V130.303L315.699 131.327Z" fill="black"
        opacity="0.2" />
    <path d="M315.699 131.327L316.938 130.614L315.706 129.895H315.699V131.327Z" fill="black"
        opacity="0.2" />
    <path d="M292.674 82.5848L294.21 81.687L294.121 113.437L292.585 114.328L292.674 82.5848Z"
        fill="#F0F0F0" />
    <path d="M292.585 114.327L294.121 113.437L338.404 139.006L336.875 139.897L292.585 114.327Z"
        fill="#F5F5F5" />
    <path
        d="M290.916 79.5352L338.738 107.138L338.634 142.946L290.812 115.337L290.916 79.5352ZM336.868 139.897L336.957 108.147L292.674 82.5848L292.585 114.328L336.868 139.897Z"
        fill="#E0E0E0" />
    <path d="M290.916 79.535L292.452 78.6372L340.266 106.247L338.738 107.137L290.916 79.535Z"
        fill="#F5F5F5" />
    <path d="M338.738 107.137L340.266 106.247L340.17 142.056L338.634 142.946L338.738 107.137Z"
        fill="#F0F0F0" />
    <path d="M313.933 94.8574L313.844 126.6L315.61 127.624L315.699 95.874L313.933 94.8574Z"
        fill="#E0E0E0" />
    <path
        d="M315.706 95.8735H315.699L315.61 127.624L317.146 126.726L317.235 96.7565L315.706 95.8735Z"
        fill="#F0F0F0" />
    <path d="M315.699 97.2986V95.874L313.933 94.8574V96.2821L315.699 97.2986Z" fill="black"
        opacity="0.2" />
    <path d="M315.699 97.2982L316.938 96.5858L315.706 95.8735H315.699V97.2982Z" fill="black"
        opacity="0.2" />
    <path d="M292.674 48.5564L294.21 47.666L294.121 79.4162L292.585 80.3066L292.674 48.5564Z"
        fill="#F0F0F0" />
    <path d="M292.585 80.3064L294.121 79.416L338.404 104.978L336.875 105.876L292.585 80.3064Z"
        fill="#F5F5F5" />
    <path
        d="M290.916 45.5068L338.738 73.1167L338.634 108.926L290.812 81.3158L290.916 45.5068ZM336.868 105.876L336.957 74.1258L292.674 48.5565L292.585 80.3066L336.868 105.876Z"
        fill="#E0E0E0" />
    <path d="M290.916 45.5066L292.452 44.6162L340.266 72.226L338.738 73.1164L290.916 45.5066Z"
        fill="#F5F5F5" />
    <path d="M338.738 73.1165L340.266 72.2261L340.17 108.028L338.634 108.925L338.738 73.1165Z"
        fill="#F0F0F0" />
    <path d="M313.933 60.8364L313.844 92.5792L315.61 93.5957L315.699 61.853L313.933 60.8364Z"
        fill="#E0E0E0" />
    <path d="M315.706 61.853H315.699L315.61 93.5958L317.146 92.7054L317.235 62.736L315.706 61.853Z"
        fill="#F0F0F0" />
    <path d="M315.699 63.2776V61.853L313.933 60.8364V62.2611L315.699 63.2776Z" fill="black"
        opacity="0.2" />
    <path d="M315.699 63.2777L316.938 62.5653L315.706 61.853H315.699V63.2777Z" fill="black"
        opacity="0.2" />
    <path d="M234.287 82.5843L235.815 81.6865L235.726 113.437L234.19 114.327L234.287 82.5843Z"
        fill="#F0F0F0" />
    <path d="M234.19 114.327L235.726 113.437L280.016 139.006L278.48 139.897L234.19 114.327Z"
        fill="#F5F5F5" />
    <path
        d="M232.521 79.5352L280.342 107.138L280.239 142.946L232.424 115.337L232.521 79.5352ZM278.48 139.897L278.569 108.147L234.286 82.5848L234.19 114.328L278.48 139.897Z"
        fill="#E0E0E0" />
    <path d="M232.521 79.535L234.056 78.6372L281.878 106.247L280.342 107.137L232.521 79.535Z"
        fill="#F5F5F5" />
    <path d="M280.342 107.137L281.878 106.247L281.774 142.056L280.239 142.946L280.342 107.137Z"
        fill="#F0F0F0" />
    <path d="M234.287 48.5564L235.815 47.666L235.726 79.4162L234.19 80.3066L234.287 48.5564Z"
        fill="#F0F0F0" />
    <path d="M234.19 80.3064L235.726 79.416L280.016 104.978L278.48 105.876L234.19 80.3064Z"
        fill="#F5F5F5" />
    <path
        d="M232.521 45.5068L280.342 73.1167L280.239 108.926L232.424 81.3158L232.521 45.5068ZM278.48 105.876L278.569 74.1258L234.286 48.5565L234.19 80.3066L278.48 105.876Z"
        fill="#E0E0E0" />
    <path d="M232.521 45.5066L234.056 44.6162L281.878 72.226L280.342 73.1164L232.521 45.5066Z"
        fill="#F5F5F5" />
    <path d="M280.342 73.1165L281.878 72.2261L281.774 108.028L280.239 108.925L280.342 73.1165Z"
        fill="#F0F0F0" />
    <path d="M234.287 14.5359L235.815 13.6455L235.726 45.3883L234.19 46.2861L234.287 14.5359Z"
        fill="#F0F0F0" />
    <path d="M234.19 46.286L235.726 45.3882L280.016 70.9575L278.48 71.8479L234.19 46.286Z"
        fill="#F5F5F5" />
    <path
        d="M232.521 11.4863L280.342 39.0961L280.239 74.8977L232.424 47.2953L232.521 11.4863ZM278.48 71.848L278.569 40.1053L234.286 14.5359L234.19 46.2861L278.48 71.848Z"
        fill="#E0E0E0" />
    <path d="M232.521 11.4861L234.056 10.5957L281.878 38.2055L280.342 39.0959L232.521 11.4861Z"
        fill="#F5F5F5" />
    <path d="M280.342 39.096L281.878 38.2056L281.774 74.0071L280.239 74.8975L280.342 39.096Z"
        fill="#F0F0F0" />
    <path d="M292.674 116.605L294.21 115.715L294.121 147.458L292.585 148.348L292.674 116.605Z"
        fill="#F0F0F0" />
    <path d="M292.585 148.348L294.121 147.458L338.404 173.027L336.875 173.917L292.585 148.348Z"
        fill="#F5F5F5" />
    <path
        d="M290.916 113.526L338.738 141.136L338.634 176.937L290.812 149.327L290.916 113.526ZM336.868 173.917L336.957 142.175L292.667 116.605L292.578 148.348L336.868 173.917Z"
        fill="#E0E0E0" />
    <path d="M290.916 113.555L292.452 112.665L340.266 140.267L338.738 141.165L290.916 113.555Z"
        fill="#F5F5F5" />
    <path d="M338.738 141.165L340.266 140.268L340.17 176.077L338.634 176.967L338.738 141.165Z"
        fill="#F0F0F0" />
    <path
        d="M309.822 259.7L322.622 260.071L335.421 259.7C335.978 268.344 334.286 277.152 331.963 281.455C331.415 282.56 330.529 283.462 329.433 284.03C325.656 286.211 319.55 286.211 315.795 284.03C314.684 283.452 313.795 282.523 313.265 281.388C310.942 277.055 309.273 268.292 309.822 259.7Z"
        fill="white" />
    <path
        d="M313.599 254.446C308.583 257.34 308.561 262.037 313.539 264.931C318.518 267.825 326.628 267.832 331.644 264.931C336.66 262.03 336.682 257.34 331.704 254.446C326.725 251.553 318.615 251.538 313.599 254.446Z"
        fill="#EBEBEB" />
    <path
        d="M315.587 255.597C311.67 257.823 311.647 261.533 315.535 263.759C319.424 265.985 325.745 265.985 329.633 263.759C333.522 261.533 333.566 257.823 329.678 255.597C325.79 253.371 319.498 253.341 315.587 255.597Z"
        fill="#E0E0E0" />
    <g opacity="0.15">
        <path
            d="M315.587 255.597C311.67 257.823 311.647 261.533 315.535 263.759C319.424 265.985 325.745 265.985 329.633 263.759C333.522 261.533 333.566 257.823 329.678 255.597C325.79 253.371 319.498 253.341 315.587 255.597Z"
            fill="black" />
    </g>
    <path
        d="M301.578 205.066C330.42 214.512 330.687 233.811 324.18 247.553C322.54 250.336 317.576 251.827 313.257 234.739L320.833 235.711L312.003 231.259L309.711 224.403L317.071 224.945L307.73 221.019C306.01 215.58 303.956 210.252 301.578 205.066Z"
        fill="#151D31" />
    <path d="M301.578 205.066C330.42 214.512 330.687 233.811 324.18 247.553C322.54 250.336 317.576 251.827 313.257 234.739L320.833 235.711L312.003 231.259L309.711 224.403L317.071 224.945L307.73 221.019C306.01 215.58 303.956 210.252 301.578 205.066Z"
        fill="black"
        opacity="0.2" />
    <path d="M301.578 205.066C330.42 214.512 330.687 233.811 324.18 247.553C322.54 250.336 317.576 251.827 313.257 234.739L320.833 235.711L312.003 231.259L309.711 224.403L317.071 224.945L307.73 221.019C306.01 215.58 303.956 210.252 301.578 205.066Z"
        fill="white"
        opacity="0.2" />
    <path
        d="M309.733 209.897C324.951 221.442 326.324 234.68 322.021 248.481C323.512 236.327 325.189 224.025 309.733 209.897Z"
        fill="white" />
    <path
        d="M350.439 224.67C321.998 228.677 318.533 246.603 322.325 260.486C323.393 263.35 327.764 265.562 334.627 250.365L327.407 250.009L336.378 247.308L339.65 241.306L332.705 240.564L342.062 238.486C344.564 233.711 347.362 229.097 350.439 224.67Z"
        fill="#151D31" />
    <path d="M350.439 224.67C321.998 228.677 318.533 246.603 322.325 260.486C323.393 263.35 327.764 265.562 334.627 250.365L327.407 250.009L336.378 247.308L339.65 241.306L332.705 240.564L342.062 238.486C344.564 233.711 347.362 229.097 350.439 224.67Z"
        fill="white"
        opacity="0.2" />
    <path d="M350.439 224.67C321.998 228.677 318.533 246.603 322.325 260.486C323.393 263.35 327.764 265.562 334.627 250.365L327.407 250.009L336.378 247.308L339.65 241.306L332.705 240.564L342.062 238.486C344.564 233.711 347.362 229.097 350.439 224.67Z"
        fill="black"
        opacity="0.1" />
    <path
        d="M342.062 227.794C325.983 236.023 322.503 248.117 324.209 261.703C324.781 250.136 325.3 238.405 342.062 227.794Z"
        fill="white" />
    <path
        d="M293.253 231.393C319.334 231.816 324.417 247.59 322.599 260.523C321.961 263.224 318.266 265.718 310.379 252.777L316.841 251.649L308.457 250.217L304.836 245.172L311.017 243.754L302.35 242.901C299.559 238.88 296.521 235.036 293.253 231.393Z"
        fill="#151D31" />
    <path
        d="M301.178 233.277C316.596 238.894 321.086 249.408 321.071 261.844C319.223 251.471 317.45 240.95 301.178 233.277Z"
        fill="white" />
    <path d="M293.253 231.393C319.334 231.816 324.417 247.59 322.599 260.523C321.961 263.224 318.266 265.718 310.379 252.777L316.841 251.649L308.457 250.217L304.836 245.172L311.017 243.754L302.35 242.901C299.559 238.88 296.521 235.036 293.253 231.393Z"
        fill="white"
        opacity="0.2" />
    <path
        d="M159.797 35.2153C159.121 32.8484 154.321 28.3518 149.542 28.4483C149.084 28.4652 148.631 28.5528 148.199 28.708L55.412 81.5013C54.0657 82.2906 52.9475 83.4161 52.1671 84.7676C51.3866 86.119 50.9707 87.6501 50.96 89.2107V289.937C50.96 295.049 56.8515 299.924 62.3868 297.579C62.5107 297.546 62.6303 297.499 62.743 297.438L155.545 244.556C156.898 243.774 158.022 242.651 158.804 241.297C159.585 239.944 159.997 238.409 159.997 236.846V36.1799C160.005 35.8473 159.936 35.5174 159.797 35.2153Z"
        fill="#37474F" />
    <path
        d="M159.797 35.2153C159.121 32.8484 154.321 28.3518 149.542 28.4483C149.084 28.4652 148.631 28.5528 148.199 28.708L55.412 81.5013C54.0657 82.2906 52.9475 83.4161 52.1671 84.7676C51.3866 86.119 50.9707 87.6501 50.96 89.2107V289.937C50.96 295.049 56.8515 299.924 62.3868 297.579C62.5107 297.546 62.6303 297.499 62.743 297.438L155.545 244.556C156.898 243.774 158.022 242.651 158.804 241.297C159.585 239.944 159.997 238.409 159.997 236.846V36.1799C160.005 35.8473 159.936 35.5174 159.797 35.2153Z"
        fill="#455A64" />
    <path
        d="M63.8713 110.432C63.8708 109.65 64.0763 108.882 64.4671 108.204C64.8579 107.527 65.4201 106.965 66.0973 106.574L152.281 57.5497C152.619 57.3598 153 57.2614 153.388 57.2642C153.775 57.2671 154.156 57.3711 154.491 57.566C154.826 57.7609 155.104 58.0399 155.298 58.3754C155.492 58.7109 155.595 59.0913 155.597 59.4789V221.331C155.598 222.113 155.392 222.882 155.002 223.559C154.611 224.236 154.049 224.799 153.371 225.19L67.1881 274.288C66.8502 274.478 66.4685 274.576 66.0809 274.573C65.6933 274.571 65.3132 274.467 64.9781 274.272C64.643 274.077 64.3647 273.798 64.1706 273.462C63.9764 273.127 63.8733 272.746 63.8713 272.359V110.432Z"
        fill="#151D31" />
    <path d="M63.8713 110.432C63.8708 109.65 64.0763 108.882 64.4671 108.204C64.8579 107.527 65.4201 106.965 66.0973 106.574L152.281 57.5497C152.619 57.3598 153 57.2614 153.388 57.2642C153.775 57.2671 154.156 57.3711 154.491 57.566C154.826 57.7609 155.104 58.0399 155.298 58.3754C155.492 58.7109 155.595 59.0913 155.597 59.4789V221.331C155.598 222.113 155.392 222.882 155.002 223.559C154.611 224.236 154.049 224.799 153.371 225.19L67.1881 274.288C66.8502 274.478 66.4685 274.576 66.0809 274.573C65.6933 274.571 65.3132 274.467 64.9781 274.272C64.643 274.077 64.3647 273.798 64.1706 273.462C63.9764 273.127 63.8733 272.746 63.8713 272.359V110.432Z"
        fill="black"
        opacity="0.2" />
    <path d="M50.9309 89.2107V289.937C50.9309 295.049 56.8224 299.924 62.3577 297.579C62.0242 297.697 61.6674 297.734 61.3169 297.686C60.9664 297.639 60.6322 297.509 60.3421 297.306C60.0519 297.104 59.8142 296.835 59.6486 296.523C59.483 296.21 59.3942 295.863 59.3897 295.509V94.7609C59.3931 93.0159 59.9091 91.3104 60.8737 89.8563L51.851 85.3301C51.2519 86.5364 50.9371 87.8639 50.9309 89.2107Z"
        fill="black"
        opacity="0.3" />
    <path d="M149.55 28.441C149.092 28.4578 148.639 28.5454 148.207 28.7007L55.4126 81.5014C53.8663 82.3857 52.6245 83.7181 51.851 85.3227L60.9331 89.8563C61.689 88.6998 62.7055 87.7366 63.9011 87.0441L156.718 34.2508C156.982 34.1042 157.273 34.0128 157.573 33.9821C157.873 33.9515 158.176 33.9822 158.465 34.0724C158.753 34.1626 159.019 34.3105 159.248 34.507C159.477 34.7035 159.664 34.9445 159.797 35.2154C159.129 32.841 154.336 28.3445 149.55 28.441Z"
        fill="white"
        opacity="0.1" />
    <path
        d="M121.169 67.3958C121.822 67.0174 122.363 67.3142 122.363 68.0636C122.339 68.475 122.22 68.8752 122.014 69.2321C121.807 69.589 121.521 69.8927 121.176 70.1189L102.975 80.6256C102.322 81.0041 101.795 80.685 101.795 79.9356C101.814 79.5288 101.931 79.1325 102.135 78.78C102.339 78.4275 102.624 78.1291 102.967 77.9099L121.169 67.3958Z"
        fill="#263238" />
    <path
        d="M98.2928 80.6111C98.9383 80.2327 99.4652 80.5295 99.4726 81.2789C99.4499 81.6879 99.3321 82.086 99.1285 82.4415C98.925 82.797 98.6414 83.1001 98.3002 83.3268C97.6473 83.7053 97.1056 83.3936 97.1056 82.6442C97.127 82.2352 97.2459 81.8372 97.4524 81.4835C97.6589 81.1299 97.9471 80.8307 98.2928 80.6111Z"
        fill="#263238" />
    <path
        d="M109.942 65.8675C111.248 65.1255 112.294 65.7117 112.302 67.2105C112.261 68.0286 112.027 68.8254 111.62 69.536C111.212 70.2465 110.643 70.8506 109.957 71.2989C108.659 72.0409 107.575 71.4399 107.575 69.9411C107.621 69.1236 107.859 68.3284 108.27 67.6205C108.682 66.9125 109.254 66.3119 109.942 65.8675Z"
        fill="#263238" />
    <path
        d="M109.95 254.833C112.598 253.297 114.743 254.521 114.75 257.563C114.667 259.23 114.191 260.853 113.362 262.301C112.533 263.749 111.374 264.98 109.979 265.896C107.33 267.425 105.134 266.171 105.119 263.121C105.217 261.457 105.705 259.84 106.544 258.4C107.383 256.96 108.55 255.738 109.95 254.833Z"
        fill="#263238" />
    <path
        d="M177.709 67.0394C177.266 65.9158 176.555 64.9173 175.638 64.1307C174.469 63.0138 173.1 62.1277 171.602 61.5189C171.347 61.4166 171.087 61.3275 170.823 61.2518C170.039 61.0117 169.224 60.8916 168.404 60.8956C168.034 60.9118 167.668 60.9742 167.313 61.0811L167.187 61.133L82.9627 109.074C82.4251 109.381 81.9268 109.752 81.4787 110.179C80.9683 110.654 80.5219 111.192 80.1505 111.782C79.9884 112.021 79.8398 112.269 79.7053 112.524C79.3139 113.347 79.0631 114.23 78.9633 115.136C78.9271 115.444 78.9097 115.753 78.9114 116.063V298.284C78.9114 302.053 82.4433 305.704 86.4575 305.77C87.4283 305.792 88.3924 305.605 89.2845 305.221L89.4478 305.162L89.611 305.088L173.858 257.028C175.093 256.325 176.12 255.307 176.834 254.078C177.548 252.849 177.924 251.453 177.924 250.031V67.9149C177.924 67.61 177.85 67.3095 177.709 67.0394Z"
        fill="#151D31" />
    <path
        d="M177.709 67.04C177.101 64.8956 172.745 60.8146 168.404 60.8962C167.989 60.9111 167.578 60.9913 167.187 61.1337L82.963 109.074C81.5596 109.876 80.4317 111.084 79.7279 112.539C79.1859 113.641 78.9017 114.851 78.8969 116.079V298.284C78.8969 302.922 84.2467 307.352 89.2848 305.222C89.3978 305.188 89.5072 305.144 89.6113 305.088L173.858 257.029C175.093 256.326 176.12 255.308 176.834 254.079C177.548 252.85 177.924 251.453 177.924 250.032V67.9155C177.924 67.6106 177.85 67.3101 177.709 67.04Z"
        fill="#151D31" />
    <path d="M78.8969 116.056V298.284C78.8969 302.921 84.2467 307.351 89.2849 305.222C88.9822 305.331 88.6575 305.366 88.3384 305.324C88.0193 305.282 87.715 305.163 87.4515 304.978C87.188 304.793 86.9729 304.547 86.8245 304.262C86.676 303.976 86.5986 303.659 86.5988 303.337V121.087C86.6028 119.501 87.0752 117.953 87.9567 116.635L79.7131 112.509C79.1751 113.614 78.8959 114.827 78.8969 116.056Z"
        fill="white"
        opacity="0.2" />
    <path d="M168.434 60.8885C168.018 60.9035 167.608 60.9836 167.217 61.126L82.963 109.074C81.5596 109.876 80.4318 111.084 79.7279 112.539L87.9715 116.665C88.6648 115.611 89.5948 114.735 90.6872 114.105L174.919 66.1642C175.158 66.0283 175.421 65.9431 175.694 65.9138C175.967 65.8846 176.243 65.9118 176.505 65.994C176.767 66.0762 177.009 66.2115 177.216 66.3914C177.423 66.5713 177.591 66.792 177.709 67.0397C177.108 64.8879 172.752 60.844 168.434 60.8885Z"
        fill="white"
        opacity="0.4" />
    <path d="M177.709 67.04C177.101 64.8956 172.745 60.8146 168.404 60.8962C167.989 60.9111 167.578 60.9913 167.187 61.1337L82.963 109.074C81.5596 109.876 80.4317 111.084 79.7279 112.539C79.1859 113.641 78.9017 114.851 78.8969 116.079V298.284C78.8969 302.922 84.2467 307.352 89.2848 305.222C89.3978 305.188 89.5072 305.144 89.6113 305.088L173.858 257.029C175.093 256.326 176.12 255.308 176.834 254.079C177.548 252.85 177.924 251.453 177.924 250.032V67.9155C177.924 67.6106 177.85 67.3101 177.709 67.04Z"
        fill="white"
        opacity="0.2" />
    <path d="M166.638 78.155L166.646 80.0916L169.094 78.6744L169.087 76.7378L166.638 78.155Z"
        fill="#151D31" />
    <path
        d="M171.343 74.7861L166.067 77.8283V81.0635L171.335 78.0213V76.9157L171.714 76.7005V75.684L171.58 75.7582L171.343 75.8991V74.7861ZM169.117 78.6742L166.661 80.0914V78.1548L169.109 76.7376V78.652L169.117 78.6742Z"
        fill="white" />
    <path d="M126.192 100.853L126.207 104.088L139.14 96.6233L139.132 93.3882L126.192 100.853Z"
        fill="white" />
    <path d="M158.907 81.9687L158.914 85.2039L163.7 82.4436L163.685 79.2085L158.907 81.9687Z"
        fill="white" />
    <path d="M95.2357 119.195L95.2431 121.962L95.8961 121.584L95.8887 118.816L95.2357 119.195Z"
        fill="white" />
    <path
        d="M105.49 116.049L108.31 114.416L108.302 111.181L106.67 112.123L105.483 112.814L105.49 116.049Z"
        fill="white" />
    <path d="M98.7677 119.929L104.043 116.88L104.036 113.645L98.7603 116.694L98.7677 119.929Z"
        fill="white" />
    <path
        d="M96.3264 121.339L96.7122 121.117L96.9793 120.961L96.9719 117.726L96.319 118.104L96.3264 121.339Z"
        fill="white" />
    <path
        d="M94.1598 122.593L94.6346 122.311L94.8127 122.215L94.8053 120.033L94.6272 120.13L94.1523 120.404L94.1598 122.593Z"
        fill="white" />
    <path d="M93.0764 123.216L93.722 122.838V121.243L93.0764 121.614V123.216Z" fill="white" />
    <path
        d="M106.254 132.714C106.848 132.632 107.219 132.81 107.226 133.612C107.176 134.199 106.971 134.762 106.632 135.244C106.293 135.727 105.833 136.111 105.297 136.357L103.42 137.441C103.108 137.626 102.856 137.485 102.856 137.122V132.514C102.865 132.317 102.921 132.126 103.019 131.955C103.117 131.785 103.255 131.641 103.42 131.534L105.245 130.481C105.824 130.147 106.292 130.065 106.588 130.228C106.714 130.318 106.813 130.439 106.876 130.58C106.939 130.721 106.962 130.876 106.945 131.03C106.923 131.655 106.678 132.253 106.254 132.714ZM106.099 134.116C106.099 133.723 105.839 133.627 105.26 133.961L103.954 134.703V136.001L105.297 135.259C105.517 135.163 105.707 135.009 105.848 134.815C105.989 134.621 106.075 134.392 106.099 134.154M103.947 132.402V133.649L104.993 133.048C105.214 132.956 105.405 132.806 105.547 132.614C105.69 132.422 105.778 132.195 105.802 131.957C105.802 131.571 105.542 131.505 105.06 131.779L103.947 132.425"
        fill="white" />
    <path
        d="M111.975 126.533C112.294 126.355 112.547 126.496 112.547 126.86V129.598C112.571 130.398 112.377 131.19 111.985 131.889C111.593 132.587 111.017 133.165 110.321 133.56C108.94 134.361 108.095 133.961 108.095 132.217V129.449C108.103 129.253 108.159 129.061 108.257 128.891C108.355 128.72 108.493 128.576 108.659 128.47C108.978 128.284 109.222 128.47 109.23 128.796V131.534C109.23 132.499 109.653 132.759 110.335 132.358C110.692 132.151 110.984 131.85 111.179 131.487C111.374 131.124 111.465 130.714 111.441 130.303V127.513C111.45 127.32 111.502 127.131 111.595 126.961C111.687 126.791 111.817 126.645 111.975 126.533Z"
        fill="white" />
    <path
        d="M117.117 123.617C117.399 123.454 117.637 123.617 117.637 123.921C117.626 124.102 117.574 124.278 117.484 124.435C117.394 124.593 117.268 124.727 117.117 124.827L116.034 125.45V129.553C116.025 129.75 115.969 129.941 115.871 130.111C115.773 130.282 115.635 130.426 115.47 130.533C115.158 130.718 114.899 130.577 114.899 130.206V126.14L113.808 126.771C113.526 126.934 113.289 126.771 113.289 126.466C113.298 126.286 113.35 126.111 113.441 125.955C113.531 125.799 113.657 125.667 113.808 125.569L117.117 123.617Z"
        fill="white" />
    <path
        d="M121.874 120.872C122.163 120.709 122.4 120.872 122.4 121.169C122.39 121.349 122.338 121.525 122.248 121.683C122.158 121.84 122.032 121.974 121.881 122.074L120.79 122.704V126.808C120.779 127.004 120.723 127.194 120.625 127.365C120.527 127.535 120.39 127.679 120.226 127.787C119.907 127.965 119.662 127.824 119.662 127.453V123.35L118.572 123.981C118.282 124.151 118.052 123.981 118.052 123.684C118.062 123.503 118.114 123.327 118.204 123.169C118.294 123.012 118.42 122.878 118.572 122.779L121.874 120.872Z"
        fill="white" />
    <path
        d="M125.509 118.668C127.097 117.756 128.24 118.461 128.24 120.152C128.195 121.091 127.924 122.005 127.448 122.815C126.972 123.625 126.307 124.308 125.509 124.805C123.929 125.717 122.786 125.02 122.779 123.321C122.826 122.383 123.099 121.47 123.575 120.66C124.05 119.85 124.714 119.167 125.509 118.668ZM127.06 120.85C127.06 119.841 126.414 119.366 125.502 119.9C125.043 120.194 124.662 120.595 124.395 121.07C124.127 121.545 123.98 122.078 123.966 122.623C123.966 123.64 124.619 124.107 125.524 123.588C125.984 123.292 126.365 122.887 126.633 122.41C126.901 121.933 127.047 121.397 127.06 120.85Z"
        fill="white" />
    <path
        d="M133.256 114.268C133.56 114.09 133.82 114.268 133.82 114.587V119.284C133.81 119.48 133.753 119.671 133.653 119.84C133.554 120.009 133.415 120.152 133.248 120.256C133.163 120.323 133.056 120.357 132.948 120.35C132.84 120.343 132.738 120.296 132.662 120.219L130.392 118.119V121.28C130.382 121.473 130.327 121.662 130.23 121.829C130.133 121.997 129.998 122.139 129.835 122.244C129.531 122.422 129.279 122.281 129.279 121.925V117.228C129.287 117.032 129.343 116.84 129.441 116.67C129.539 116.499 129.677 116.355 129.843 116.249L129.961 116.182C130.046 116.114 130.154 116.081 130.263 116.089C130.372 116.097 130.474 116.146 130.548 116.227L132.736 118.26V115.21C132.745 115.024 132.796 114.842 132.886 114.678C132.976 114.515 133.103 114.375 133.256 114.268Z"
        fill="white" />
    <path
        d="M138.91 110.951C139.391 110.631 139.967 110.485 140.542 110.536C140.661 110.536 140.787 110.655 140.787 110.907C140.78 111.089 140.729 111.268 140.637 111.425C140.545 111.583 140.416 111.716 140.26 111.812C140.177 111.868 140.078 111.895 139.978 111.886C139.603 111.842 139.223 111.92 138.895 112.109C138.719 112.192 138.567 112.318 138.451 112.474C138.336 112.631 138.262 112.814 138.235 113.007C138.235 113.393 138.457 113.393 139.348 113.148C140.394 112.851 140.98 112.947 140.98 113.979C140.957 114.595 140.771 115.194 140.441 115.716C140.112 116.237 139.65 116.662 139.103 116.947C138.533 117.324 137.84 117.47 137.166 117.355C137.047 117.355 136.958 117.192 136.951 116.991C136.959 116.808 137.012 116.63 137.105 116.472C137.198 116.314 137.329 116.182 137.485 116.086C137.579 116.024 137.693 116 137.804 116.019C138.027 116.074 138.259 116.081 138.485 116.042C138.711 116.002 138.926 115.916 139.118 115.789C139.315 115.702 139.488 115.566 139.618 115.393C139.747 115.22 139.831 115.017 139.86 114.802C139.86 114.461 139.681 114.394 138.821 114.639C137.789 114.929 137.114 114.988 137.114 113.816C137.145 113.225 137.326 112.652 137.64 112.15C137.954 111.649 138.391 111.236 138.91 110.951Z"
        fill="white" />
    <path
        d="M145.261 107.367C145.551 107.204 145.788 107.367 145.788 107.671C145.777 107.851 145.724 108.026 145.634 108.181C145.544 108.337 145.419 108.47 145.269 108.569L144.178 109.2V113.303C144.167 113.499 144.111 113.69 144.013 113.86C143.915 114.03 143.778 114.175 143.614 114.283C143.295 114.461 143.043 114.327 143.043 113.956V109.853L141.959 110.484C141.67 110.647 141.44 110.484 141.44 110.179C141.449 109.999 141.501 109.824 141.589 109.666C141.678 109.509 141.802 109.375 141.952 109.274L145.261 107.367Z"
        fill="white" />
    <path
        d="M150.337 104.385C150.685 104.184 150.886 104.34 150.893 104.696C150.88 104.885 150.83 105.069 150.745 105.238L149.09 108.77V110.469C149.082 110.666 149.026 110.857 148.928 111.028C148.83 111.198 148.692 111.343 148.526 111.449C148.214 111.627 147.962 111.493 147.962 111.122V109.445L146.293 107.813C146.245 107.761 146.209 107.7 146.186 107.634C146.163 107.567 146.154 107.497 146.159 107.427C146.169 107.236 146.225 107.049 146.321 106.884C146.418 106.719 146.553 106.579 146.716 106.477C146.757 106.445 146.805 106.421 146.856 106.407C146.907 106.394 146.961 106.39 147.013 106.397C147.065 106.404 147.116 106.421 147.162 106.447C147.207 106.474 147.248 106.509 147.28 106.551L148.534 107.894L149.795 105.082C149.898 104.799 150.087 104.555 150.337 104.385Z"
        fill="white" />
    <path
        d="M152.229 103.294C152.548 103.116 152.793 103.257 152.8 103.621V107.753L154.893 106.544C155.182 106.373 155.412 106.507 155.412 106.833C155.402 107.01 155.35 107.183 155.262 107.336C155.173 107.49 155.049 107.62 154.9 107.716L152.236 109.252C151.925 109.438 151.672 109.297 151.672 108.933V104.274C151.68 104.078 151.735 103.887 151.832 103.716C151.929 103.546 152.065 103.401 152.229 103.294Z"
        fill="white" />
    <path
        d="M159.627 99.0718C159.901 98.916 160.138 99.0718 160.138 99.3612C160.128 99.5363 160.077 99.7066 159.99 99.8586C159.902 100.011 159.78 100.14 159.634 100.237L157.341 101.558V102.752L159.307 101.654C159.582 101.491 159.812 101.617 159.812 101.943C159.801 102.117 159.75 102.286 159.662 102.437C159.575 102.588 159.453 102.716 159.307 102.811L157.349 103.88V105.127L159.678 103.784C159.953 103.62 160.183 103.784 160.183 104.073C160.172 104.246 160.121 104.414 160.033 104.563C159.946 104.713 159.824 104.84 159.678 104.934L156.799 106.596C156.473 106.781 156.228 106.64 156.228 106.277V101.669C156.237 101.472 156.293 101.281 156.391 101.111C156.489 100.94 156.627 100.796 156.792 100.689L159.627 99.0718Z"
        fill="white" />
    <path
        d="M94.234 150.797C94.2442 150.709 94.2747 150.625 94.3231 150.552C94.3602 150.494 94.408 150.443 94.464 150.403L170.334 107.241V250.054C170.333 250.133 170.312 250.21 170.273 250.279C170.234 250.348 170.178 250.406 170.111 250.447L94.234 293.661V150.797Z"
        fill="#151D31" />
    <path d="M94.234 150.797C94.2442 150.709 94.2747 150.625 94.3231 150.552C94.3602 150.494 94.408 150.443 94.464 150.403L170.334 107.241V250.054C170.333 250.133 170.312 250.21 170.273 250.279C170.234 250.348 170.178 250.406 170.111 250.447L94.234 293.661V150.797Z"
        fill="white"
        opacity="0.5" />
    <path
        d="M120.85 152.288L117.533 150.381H117.481C115.997 149.572 113.964 149.713 111.73 151.004C107.182 153.631 103.502 159.99 103.516 165.221C103.516 167.773 104.422 169.576 105.861 170.415L105.935 170.459L108.903 172.136L109.757 170.727C110.463 170.523 111.141 170.231 111.775 169.858C116.316 167.239 119.989 160.873 119.937 155.657C119.939 155.104 119.89 154.553 119.788 154.009L120.85 152.288Z"
        fill="#151D31" />
    <path d="M120.85 152.288L117.533 150.381H117.481C115.997 149.572 113.964 149.713 111.73 151.004C107.182 153.631 103.502 159.99 103.516 165.221C103.516 167.773 104.422 169.576 105.861 170.415L105.935 170.459L108.903 172.136L109.757 170.727C110.463 170.523 111.141 170.231 111.775 169.858C116.316 167.239 119.989 160.873 119.937 155.657C119.939 155.104 119.89 154.553 119.788 154.009L120.85 152.288Z"
        fill="black"
        opacity="0.2" />
    <path
        d="M114.943 152.852C119.484 150.233 123.187 152.34 123.202 157.564C123.217 162.787 119.544 169.146 114.995 171.773C110.447 174.4 106.752 172.293 106.737 167.069C106.722 161.845 110.395 155.449 114.943 152.852Z"
        fill="#151D31" />
    <path d="M108.117 187.704L108.169 206.617L124.634 197.112L124.574 178.199L108.117 187.704Z"
        fill="#151D31" />
    <path d="M105.089 185.945L105.141 204.859L108.169 206.617L108.117 187.704L105.089 185.945Z"
        fill="#151D31" />
    <path d="M105.089 185.945L105.141 204.859L108.169 206.617L108.117 187.704L105.089 185.945Z"
        fill="black"
        opacity="0.2" />
    <path d="M124.574 178.199L121.547 176.44L105.089 185.945L108.117 187.704L124.574 178.199Z"
        fill="#151D31" />
    <path d="M124.574 178.199L121.547 176.44L105.089 185.945L108.117 187.704L124.574 178.199Z"
        fill="black"
        opacity="0.1" />
    <path d="M171.484 151.027L137.537 170.623L137.589 189.537L171.536 169.94L171.484 151.027Z"
        fill="#151D31" />
    <path d="M134.51 168.864L134.562 187.778L137.589 189.536L137.537 170.623L134.51 168.864Z"
        fill="#151D31" />
    <path d="M134.51 168.864L134.562 187.778L137.589 189.536L137.537 170.623L134.51 168.864Z"
        fill="black"
        opacity="0.2" />
    <path d="M171.484 151.027L168.456 149.268L134.51 168.864L137.537 170.623L171.484 151.027Z"
        fill="#151D31" />
    <path d="M171.484 151.027L168.456 149.268L134.51 168.864L137.537 170.623L171.484 151.027Z"
        fill="black"
        opacity="0.1" />
    <path
        d="M106.603 231.979L112.539 220.433C112.862 219.772 113.363 219.214 113.986 218.823L131.868 208.502C132.057 208.366 132.278 208.281 132.51 208.257C132.742 208.232 132.976 208.268 133.189 208.361L129.909 206.454C129.693 206.319 129.441 206.253 129.187 206.265C128.932 206.277 128.687 206.366 128.485 206.521L110.558 216.849C109.923 217.238 109.41 217.795 109.074 218.459L103.138 230.005C102.544 231.155 102.552 232.342 103.138 232.81L109.074 237.499L112.472 239.473L106.536 234.783C106.017 234.316 106.017 233.129 106.603 231.979Z"
        fill="#151D31" />
    <path d="M106.603 231.979L112.539 220.433C112.862 219.772 113.363 219.214 113.986 218.823L131.868 208.502C132.057 208.366 132.278 208.281 132.51 208.257C132.742 208.232 132.976 208.268 133.189 208.361L129.909 206.454C129.693 206.319 129.441 206.253 129.187 206.265C128.932 206.277 128.687 206.366 128.485 206.521L110.558 216.849C109.923 217.238 109.41 217.795 109.074 218.459L103.138 230.005C102.544 231.155 102.552 232.342 103.138 232.81L109.074 237.499L112.472 239.473L106.536 234.783C106.017 234.316 106.017 233.129 106.603 231.979Z"
        fill="black"
        opacity="0.2" />
    <path
        d="M133.768 209.57C133.793 209.333 133.753 209.093 133.651 208.877C133.549 208.661 133.389 208.477 133.189 208.346C132.976 208.253 132.742 208.217 132.51 208.242C132.278 208.267 132.057 208.351 131.868 208.487L113.971 218.823C113.348 219.215 112.847 219.772 112.524 220.433L106.588 231.979C106.002 233.129 106.002 234.316 106.588 234.784L112.524 239.473C112.743 239.611 113 239.678 113.258 239.666C113.517 239.654 113.766 239.564 113.971 239.406L131.876 229.07C132.426 228.714 132.884 228.233 133.212 227.665C133.54 227.098 133.728 226.46 133.76 225.805L133.768 209.57Z"
        fill="#151D31" />
    <path
        d="M147.554 217.777L147.51 201.542C147.546 200.887 147.736 200.249 148.065 199.68C148.394 199.112 148.852 198.629 149.402 198.27L167.299 187.941C167.474 187.822 167.673 187.742 167.882 187.709C168.091 187.676 168.305 187.689 168.508 187.748L165.236 185.827C165.023 185.73 164.788 185.691 164.555 185.713C164.322 185.735 164.099 185.818 163.908 185.953L146.003 196.289C145.453 196.647 144.995 197.13 144.668 197.698C144.34 198.267 144.152 198.905 144.119 199.561L144.163 215.796C144.141 216.024 144.178 216.255 144.272 216.464C144.366 216.674 144.512 216.855 144.697 216.991H144.735L148.111 218.957C147.924 218.825 147.775 218.647 147.678 218.44C147.58 218.233 147.538 218.005 147.554 217.777Z"
        fill="#151D31" />
    <path d="M147.554 217.777L147.51 201.542C147.546 200.887 147.736 200.249 148.065 199.68C148.394 199.112 148.852 198.629 149.402 198.27L167.299 187.941C167.474 187.822 167.673 187.742 167.882 187.709C168.091 187.676 168.305 187.689 168.508 187.748L165.236 185.827C165.023 185.73 164.788 185.691 164.555 185.713C164.322 185.735 164.099 185.818 163.908 185.953L146.003 196.289C145.453 196.647 144.995 197.13 144.668 197.698C144.34 198.267 144.152 198.905 144.119 199.561L144.163 215.796C144.141 216.024 144.178 216.255 144.272 216.464C144.366 216.674 144.512 216.855 144.697 216.991H144.735L148.111 218.957C147.924 218.825 147.775 218.647 147.678 218.44C147.58 218.233 147.538 218.005 147.554 217.777Z"
        fill="black"
        opacity="0.2" />
    <path
        d="M174.719 192.564L168.783 187.874C168.71 187.817 168.627 187.775 168.538 187.748C168.335 187.689 168.121 187.675 167.912 187.709C167.702 187.742 167.503 187.821 167.328 187.941L149.431 198.27C148.881 198.628 148.424 199.112 148.095 199.68C147.766 200.248 147.576 200.886 147.539 201.542L147.584 217.777C147.562 218.01 147.602 218.244 147.7 218.456C147.797 218.669 147.949 218.852 148.14 218.986C148.355 219.08 148.591 219.115 148.824 219.089C149.057 219.063 149.279 218.976 149.469 218.838L167.358 208.502C167.994 208.112 168.508 207.552 168.842 206.884L174.778 195.339C175.312 194.211 175.312 193.024 174.719 192.564Z"
        fill="#151D31" />
    <path
        d="M108.043 271.794V260.138C108.109 258.85 108.48 257.596 109.125 256.479C109.77 255.362 110.671 254.414 111.753 253.712L121.903 247.85C122.275 247.583 122.71 247.417 123.165 247.368C123.62 247.318 124.08 247.387 124.5 247.568L121.718 246.084C121.028 245.58 120.026 245.587 118.906 246.233L108.762 252.094C107.68 252.796 106.78 253.744 106.135 254.861C105.49 255.978 105.119 257.232 105.052 258.52V270.184C105.015 270.618 105.085 271.054 105.254 271.455C105.423 271.855 105.688 272.209 106.024 272.485C106.125 272.558 106.235 272.618 106.351 272.663L108.985 274.102C108.654 273.821 108.396 273.465 108.232 273.063C108.068 272.662 108.003 272.227 108.043 271.794Z"
        fill="#151D31" />
    <path d="M108.043 271.794V260.138C108.109 258.85 108.48 257.596 109.125 256.479C109.77 255.362 110.671 254.414 111.753 253.712L121.903 247.85C122.275 247.583 122.71 247.417 123.165 247.368C123.62 247.318 124.08 247.387 124.5 247.568L121.718 246.084C121.028 245.58 120.026 245.587 118.906 246.233L108.762 252.094C107.68 252.796 106.78 253.744 106.135 254.861C105.49 255.978 105.119 257.232 105.052 258.52V270.184C105.015 270.618 105.085 271.054 105.254 271.455C105.423 271.855 105.688 272.209 106.024 272.485C106.125 272.558 106.235 272.618 106.351 272.663L108.985 274.102C108.654 273.821 108.396 273.465 108.232 273.063C108.068 272.662 108.003 272.227 108.043 271.794Z"
        fill="black"
        opacity="0.2" />
    <path
        d="M125.606 249.98C125.649 249.525 125.573 249.068 125.385 248.651C125.198 248.235 124.906 247.875 124.537 247.605H124.485C124.065 247.425 123.605 247.356 123.15 247.405C122.695 247.455 122.26 247.621 121.888 247.887L111.738 253.749C110.656 254.451 109.755 255.399 109.11 256.516C108.465 257.633 108.094 258.887 108.028 260.175V271.832C107.991 272.262 108.058 272.695 108.224 273.094C108.389 273.493 108.647 273.846 108.977 274.125C109.66 274.614 110.654 274.599 111.76 273.961L121.911 268.1C122.992 267.398 123.891 266.451 124.536 265.336C125.181 264.22 125.553 262.968 125.621 261.681L125.606 249.98Z"
        fill="#151D31" />
    <path
        d="M136.446 255.389V243.732C136.513 242.444 136.884 241.19 137.529 240.073C138.174 238.956 139.074 238.008 140.156 237.306L168.99 220.656C169.366 220.387 169.805 220.22 170.264 220.172C170.723 220.124 171.187 220.196 171.61 220.381L168.642 218.764H168.59L168.523 218.727C168.109 218.567 167.663 218.512 167.223 218.566C166.782 218.621 166.363 218.783 166 219.038L137.166 235.689C136.084 236.391 135.184 237.339 134.539 238.456C133.894 239.573 133.523 240.827 133.456 242.115V253.779C133.456 255.07 133.968 255.938 134.762 256.264L137.53 257.793C137.153 257.523 136.855 257.159 136.664 256.737C136.474 256.315 136.399 255.85 136.446 255.389Z"
        fill="#151D31" />
    <path d="M136.446 255.389V243.732C136.513 242.444 136.884 241.19 137.529 240.073C138.174 238.956 139.074 238.008 140.156 237.306L168.99 220.656C169.366 220.387 169.805 220.22 170.264 220.172C170.723 220.124 171.187 220.196 171.61 220.381L168.642 218.764H168.59L168.523 218.727C168.109 218.567 167.663 218.512 167.223 218.566C166.782 218.621 166.363 218.783 166 219.038L137.166 235.689C136.084 236.391 135.184 237.339 134.539 238.456C133.894 239.573 133.523 240.827 133.456 242.115V253.779C133.456 255.07 133.968 255.938 134.762 256.264L137.53 257.793C137.153 257.523 136.855 257.159 136.664 256.737C136.474 256.315 136.399 255.85 136.446 255.389Z"
        fill="black"
        opacity="0.2" />
    <path
        d="M172.693 222.785C172.739 222.322 172.66 221.854 172.464 221.432C172.268 221.009 171.963 220.646 171.58 220.381C171.157 220.196 170.693 220.124 170.234 220.172C169.775 220.22 169.336 220.387 168.961 220.656L140.127 237.306C139.045 238.008 138.144 238.956 137.499 240.073C136.854 241.19 136.483 242.444 136.417 243.732V255.389C136.338 255.849 136.402 256.322 136.601 256.744C136.8 257.166 137.123 257.517 137.528 257.75C137.933 257.982 138.399 258.084 138.864 258.043C139.328 258.002 139.769 257.818 140.127 257.518L168.953 240.875C170.035 240.174 170.936 239.225 171.581 238.108C172.226 236.991 172.597 235.738 172.663 234.45L172.693 222.785Z"
        fill="#151D31" />
    <path
        d="M168.805 125.643L165.889 123.09C164.368 121.866 162.09 121.851 159.537 123.321L142.019 133.397C137.478 136.024 133.805 142.382 133.82 147.606C133.767 148.451 133.882 149.297 134.158 150.097C134.435 150.897 134.867 151.634 135.43 152.266L135.63 152.437L135.764 152.555L138.242 154.729L138.094 153.416C139.505 153.445 140.893 153.058 142.086 152.303L159.53 142.212C164.078 139.593 167.751 133.234 167.737 128.003C167.739 127.313 167.659 126.625 167.499 125.955L168.805 125.643Z"
        fill="#151D31" />
    <path d="M168.805 125.643L165.889 123.09C164.368 121.866 162.09 121.851 159.537 123.321L142.019 133.397C137.478 136.024 133.805 142.382 133.82 147.606C133.767 148.451 133.882 149.297 134.158 150.097C134.435 150.897 134.867 151.634 135.43 152.266L135.63 152.437L135.764 152.555L138.242 154.729L138.094 153.416C139.505 153.445 140.893 153.058 142.086 152.303L159.53 142.212C164.078 139.593 167.751 133.234 167.737 128.003C167.739 127.313 167.659 126.625 167.499 125.955L168.805 125.643Z"
        fill="black"
        opacity="0.2" />
    <path
        d="M162.312 125.762C166.861 123.135 170.564 125.242 170.578 130.466C170.593 135.69 166.95 142.049 162.372 144.69L144.883 154.789C140.342 157.408 136.639 155.308 136.624 150.077C136.61 144.846 140.282 138.494 144.831 135.875L162.312 125.762Z"
        fill="#151D31" />
    <path
        d="M97.944 158.974C98.367 158.729 98.686 158.929 98.7231 159.419L99.0199 280.587C99.0109 280.853 98.9389 281.112 98.8099 281.345C98.6809 281.577 98.4985 281.775 98.2779 281.923C97.8476 282.175 97.5359 281.968 97.5359 281.478L97.2317 160.317C97.2397 160.053 97.3081 159.795 97.4316 159.562C97.5551 159.329 97.7304 159.128 97.944 158.974Z"
        fill="#151D31" />
    <g opacity="0.2">
        <path
            d="M97.944 158.974C98.367 158.729 98.686 158.929 98.7231 159.419L99.0199 280.587C99.0109 280.853 98.9389 281.112 98.8099 281.345C98.6809 281.577 98.4985 281.775 98.2779 281.923C97.8476 282.175 97.5359 281.968 97.5359 281.478L97.2317 160.317C97.2397 160.053 97.3081 159.795 97.4316 159.562C97.5551 159.329 97.7304 159.128 97.944 158.974Z"
            fill="white" />
    </g>
    <path
        d="M98.0628 169.102C99.0125 168.553 99.7842 168.991 99.7842 170.089V177.754C99.7582 178.35 99.5889 178.931 99.2905 179.447C98.9921 179.964 98.5735 180.401 98.0702 180.722C97.1278 181.271 96.3488 180.833 96.3488 179.742V172.07C96.3807 171.475 96.5527 170.896 96.8505 170.381C97.1483 169.865 97.5637 169.427 98.0628 169.102Z"
        fill="#151D31" />
    <path
        d="M213.444 82.3174V80.0394C213.459 79.8652 213.432 79.6898 213.365 79.5283C213.297 79.3668 213.192 79.2239 213.058 79.1119H213.013H212.961L210.216 77.5315C210.042 77.4412 209.846 77.4017 209.65 77.4174C209.455 77.4332 209.268 77.5036 209.11 77.6205L184.758 91.5775C184.322 91.867 183.961 92.255 183.703 92.71C183.445 93.165 183.298 93.6744 183.274 94.1968V96.6306L183.37 173.561C183.355 173.737 183.383 173.914 183.452 174.077C183.52 174.24 183.627 174.384 183.764 174.496L186.591 176.121C186.766 176.207 186.961 176.244 187.156 176.229C187.35 176.213 187.537 176.145 187.696 176.032L212.071 162.016C212.507 161.727 212.869 161.339 213.127 160.884C213.385 160.429 213.532 159.919 213.555 159.396L213.444 82.3174Z"
        fill="#151D31" />
    <path
        d="M183.229 96.6309V94.2342C183.254 93.7118 183.401 93.2024 183.659 92.7474C183.917 92.2923 184.278 91.9044 184.713 91.6149L209.088 77.5986C209.246 77.4816 209.433 77.4112 209.628 77.3955C209.824 77.3797 210.02 77.4192 210.194 77.5095L213.036 79.1419C213.036 79.1419 212.064 79.7504 212.064 79.7726H211.967V83.2155L185.997 98.152L183.229 96.6309Z"
        fill="#151D31" />
    <path d="M183.229 96.6309V94.2342C183.254 93.7118 183.401 93.2024 183.659 92.7474C183.917 92.2923 184.278 91.9044 184.713 91.6149L209.088 77.5986C209.246 77.4816 209.433 77.4112 209.628 77.3955C209.824 77.3797 210.02 77.4192 210.194 77.5095L213.036 79.1419C213.036 79.1419 212.064 79.7504 212.064 79.7726H211.967V83.2155L185.997 98.152L183.229 96.6309Z"
        fill="white"
        opacity="0.7" />
    <path
        d="M187.541 93.1879C187.104 93.4765 186.742 93.8642 186.484 94.3195C186.226 94.7747 186.08 95.2844 186.057 95.8071V98.0925L213.466 82.3176V80.0396C213.466 79.075 212.783 78.6892 211.982 79.1715L187.541 93.1879Z"
        fill="#151D31" />
    <g opacity="0.5">
        <path
            d="M187.541 93.1879C187.104 93.4765 186.742 93.8642 186.484 94.3195C186.226 94.7747 186.08 95.2844 186.057 95.8071V98.0925L213.466 82.3176V80.0396C213.466 79.075 212.783 78.6892 211.982 79.1715L187.541 93.1879Z"
            fill="white" />
    </g>
    <path
        d="M186.123 175.171L186.034 98.0924L183.229 96.6084L183.326 173.539C183.311 173.715 183.339 173.892 183.407 174.055C183.476 174.218 183.583 174.362 183.719 174.474L186.546 176.099C186.404 175.992 186.291 175.851 186.217 175.689C186.143 175.527 186.111 175.349 186.123 175.171Z"
        fill="#151D31" />
    <path
        d="M213.444 82.3179L186.034 98.0928L186.123 175.172C186.106 175.354 186.136 175.538 186.21 175.706C186.284 175.873 186.4 176.019 186.546 176.129C186.721 176.215 186.917 176.252 187.111 176.237C187.306 176.221 187.493 176.153 187.652 176.04L212.027 162.024C212.463 161.735 212.825 161.347 213.083 160.892C213.341 160.437 213.487 159.927 213.511 159.404L213.444 82.3179Z"
        fill="#151D31" />
    <path d="M213.444 82.3179L186.034 98.0928L186.123 175.172C186.106 175.354 186.136 175.538 186.21 175.706C186.284 175.873 186.4 176.019 186.546 176.129C186.721 176.215 186.917 176.252 187.111 176.237C187.306 176.221 187.493 176.153 187.652 176.04L212.027 162.024C212.463 161.735 212.825 161.347 213.083 160.892C213.341 160.437 213.487 159.927 213.511 159.404L213.444 82.3179Z"
        fill="white"
        opacity="0.3" />
    <path d="M192.185 165.429L207.433 156.659L207.419 140.847L192.171 149.617L192.185 165.429Z"
        fill="#151D31" />
    <path d="M192.185 165.429L207.433 156.659L207.419 140.847L192.171 149.617L192.185 165.429Z"
        fill="black"
        opacity="0.5" />
    <path d="M192.148 129.657L192.163 145.469L207.411 136.699L207.396 120.887L192.148 129.657Z"
        fill="#151D31" />
    <path d="M207.367 100.385L192.119 109.163L192.141 125.509L207.389 116.739L207.367 100.385Z"
        fill="white" />
    <path
        d="M191.933 99.1685C192.08 99.0611 192.247 98.9847 192.424 98.9439C192.602 98.9031 192.785 98.8987 192.965 98.9311C193.039 98.9311 193.098 99.0275 193.098 99.1685C193.09 99.2831 193.056 99.3943 192.998 99.4935C192.94 99.5926 192.86 99.6769 192.764 99.7398C192.736 99.7609 192.703 99.7757 192.669 99.7834C192.634 99.7911 192.598 99.7914 192.564 99.7844C192.457 99.7546 192.345 99.7492 192.236 99.7685C192.127 99.7877 192.023 99.8312 191.933 99.8957C191.663 100.074 191.44 100.314 191.284 100.597C191.127 100.88 191.042 101.197 191.035 101.521C191.035 102.129 191.406 102.426 191.933 102.122C192.208 101.956 192.44 101.727 192.608 101.454C192.659 101.371 192.728 101.3 192.809 101.246C192.987 101.15 193.128 101.246 193.128 101.424C193.123 101.548 193.084 101.669 193.016 101.773C192.746 102.22 192.369 102.592 191.918 102.856C191.006 103.383 190.33 102.96 190.323 101.944C190.346 101.385 190.505 100.841 190.785 100.357C191.066 99.8735 191.46 99.4656 191.933 99.1685Z"
        fill="white" />
    <path
        d="M195.146 97.3208C196.103 96.7643 196.793 97.1872 196.793 98.1963C196.766 98.7614 196.603 99.3115 196.317 99.7999C196.032 100.288 195.633 100.7 195.153 101.001C194.196 101.55 193.506 101.127 193.506 100.118C193.534 99.5542 193.697 99.0053 193.983 98.5182C194.268 98.0312 194.667 97.6203 195.146 97.3208ZM196.081 98.6267C196.081 98.0182 195.695 97.7363 195.146 98.0479C194.871 98.2261 194.642 98.4684 194.481 98.7539C194.319 99.0395 194.229 99.3599 194.219 99.6877C194.219 100.296 194.612 100.578 195.161 100.267C195.437 100.088 195.665 99.8441 195.825 99.557C195.986 99.2699 196.073 98.948 196.081 98.6193"
        fill="white" />
    <path
        d="M197.728 95.8519C197.921 95.7406 198.07 95.8519 198.07 96.0448V98.5305L199.331 97.7885C199.502 97.692 199.643 97.7885 199.643 97.9666C199.638 98.0742 199.607 98.1789 199.552 98.272C199.498 98.365 199.422 98.4435 199.331 98.5008L197.743 99.4283C197.55 99.5396 197.402 99.4283 197.402 99.2354V96.4603C197.403 96.34 197.433 96.2218 197.49 96.1158C197.547 96.0098 197.629 95.9192 197.728 95.8519Z"
        fill="white" />
    <path
        d="M201.46 93.6705C202.418 93.1214 203.1 93.537 203.108 94.5461C203.08 95.1118 202.915 95.6624 202.629 96.1508C202.342 96.6392 201.941 97.0509 201.46 97.3508C200.511 97.8999 199.821 97.477 199.821 96.4679C199.847 95.9036 200.01 95.3543 200.296 94.867C200.581 94.3797 200.981 93.9691 201.46 93.6705ZM202.395 94.9839C202.395 94.3754 202.002 94.0935 201.453 94.4125C201.176 94.5893 200.947 94.8312 200.785 95.1171C200.624 95.4029 200.534 95.724 200.525 96.0523C200.525 96.6608 200.919 96.9502 201.468 96.6311C201.744 96.4533 201.972 96.2112 202.134 95.9256C202.295 95.6399 202.385 95.3193 202.395 94.9913"
        fill="white" />
    <path
        d="M206.276 92.1194C206.268 92.6638 206.047 93.1834 205.66 93.5663L206.142 93.9448C206.176 93.9757 206.203 94.0136 206.221 94.0558C206.239 94.0981 206.248 94.1437 206.246 94.1896C206.237 94.2991 206.204 94.4051 206.149 94.5C206.093 94.595 206.018 94.6765 205.927 94.7387C205.771 94.8203 205.668 94.7981 205.593 94.7387L204.926 94.1599L204.376 94.4716V95.2136C204.37 95.3314 204.336 95.446 204.277 95.548C204.217 95.6499 204.135 95.7362 204.035 95.7998C203.842 95.9111 203.694 95.7998 203.694 95.6068V92.8243C203.7 92.7065 203.734 92.5919 203.794 92.49C203.853 92.388 203.936 92.3017 204.035 92.2382L205.111 91.6149C205.497 91.3923 205.809 91.3403 206.009 91.4516C206.106 91.5312 206.182 91.6342 206.229 91.751C206.276 91.8678 206.292 91.9946 206.276 92.1194ZM205.593 92.5646C205.593 92.2307 205.386 92.1788 205.052 92.3717L204.376 92.7576V93.7815L205.067 93.3808C205.216 93.3042 205.343 93.1901 205.436 93.0497C205.528 92.9092 205.582 92.7472 205.593 92.5795"
        fill="white" />
    <path
        d="M207.901 89.9603C208.191 89.7707 208.535 89.682 208.88 89.7081C208.955 89.7081 209.029 89.7823 209.029 89.9307C209.026 90.0408 208.996 90.1486 208.942 90.2444C208.888 90.3402 208.81 90.421 208.717 90.4797C208.66 90.5001 208.597 90.5001 208.539 90.4797C208.314 90.4568 208.088 90.5062 207.894 90.6207C207.789 90.673 207.698 90.7493 207.628 90.8434C207.559 90.9376 207.512 91.0469 207.493 91.1624C207.493 91.3998 207.626 91.3924 208.168 91.244C208.71 91.0956 209.148 91.1253 209.148 91.7411C209.127 92.1065 209.012 92.4602 208.814 92.7682C208.617 93.0762 208.343 93.3282 208.02 93.4997C207.676 93.7238 207.259 93.8087 206.855 93.7371C206.811 93.7221 206.774 93.6925 206.75 93.6533C206.725 93.6141 206.715 93.5677 206.721 93.5219C206.727 93.4116 206.758 93.3041 206.814 93.2085C206.869 93.113 206.947 93.0321 207.04 92.9729C207.102 92.9481 207.171 92.9481 207.233 92.9729C207.368 93.0067 207.508 93.0123 207.644 92.9894C207.781 92.9664 207.911 92.9153 208.027 92.8393C208.147 92.7881 208.251 92.7063 208.329 92.6021C208.407 92.4979 208.457 92.375 208.472 92.2457C208.472 92.0454 208.368 92.0083 207.849 92.1492C207.33 92.2902 206.825 92.3644 206.825 91.6595C206.844 91.3078 206.953 90.9669 207.141 90.6693C207.329 90.3718 207.591 90.1277 207.901 89.9603Z"
        fill="white" />
    <path
        d="M238.924 150.626C238.19 150.824 237.505 151.169 236.908 151.64C236.311 152.11 235.816 152.697 235.451 153.364L231.638 160.316L219.187 174.563C215.473 178.802 212.881 183.904 211.648 189.403C211.396 190.529 211.429 191.699 211.742 192.809C212.056 193.919 212.64 194.934 213.444 195.762C214.081 196.414 214.841 196.935 215.68 197.294C216.519 197.653 217.42 197.843 218.333 197.853C219.245 197.863 220.15 197.694 220.997 197.354C221.844 197.014 222.616 196.511 223.268 195.873L227.423 191.807L226.518 185.411L237.306 164.397L243.242 160.918C243.861 160.555 244.393 160.06 244.8 159.469C245.206 158.878 245.477 158.205 245.595 157.497L246.047 154.751L238.924 150.626Z"
        fill="#C77070" />
    <path
        d="M246.062 154.759L238.924 150.626L238.635 150.722C238.235 152.038 238.132 153.427 238.335 154.787C238.538 156.147 239.041 157.446 239.807 158.588C240.069 159.015 240.418 159.381 240.831 159.664C241.225 159.883 241.664 160.013 242.114 160.042C242.565 160.072 243.016 160.001 243.435 159.834C244.04 159.612 244.609 159.304 245.127 158.922C245.366 158.468 245.531 157.98 245.617 157.475L246.062 154.759Z"
        fill="#AD5252" />
    <path
        d="M273.138 192.987L275.431 197.832L269.94 203.872L270.34 218.312L288.052 202.93C288.846 202.241 289.392 201.309 289.603 200.279C289.815 199.249 289.682 198.178 289.224 197.231L283.823 185.998L273.138 192.987Z"
        fill="#C77070" />
    <path
        d="M278.599 202.15C278.599 202.15 276.113 200.095 275.43 197.832L274.065 199.316C275.144 200.821 276.773 201.84 278.599 202.15Z"
        fill="#AD5252" />
    <path
        d="M272.693 194.152C279.734 193.536 284.52 186.242 284.52 186.242C278.228 173.353 272.737 159.018 261.748 162.446L272.693 194.152Z"
        fill="#37474F" />
    <path d="M266.437 176.025L272.692 194.152C274.864 193.924 276.945 193.159 278.747 191.926C276.2 185.585 271.937 180.079 266.437 176.025Z"
        fill="black"
        opacity="0.1" />
    <path
        d="M245.602 343.257C244.979 344.57 242.99 345.787 240.809 346.143C238.627 346.499 236.423 346.032 234.235 345.728C230.982 345.276 227.689 345.192 224.418 345.475C222.393 345.743 220.354 345.889 218.311 345.913C216.252 345.936 214.239 345.299 212.568 344.095C211.415 343.188 210.647 341.879 210.416 340.43C210.324 341.369 210.473 342.316 210.849 343.181C211.226 344.046 211.818 344.8 212.568 345.371C214.239 346.575 216.252 347.212 218.311 347.189C220.354 347.168 222.393 347.024 224.418 346.759C227.689 346.469 230.982 346.551 234.235 347.004C236.423 347.308 238.79 347.939 240.965 347.583C243.139 347.226 245.135 346.002 245.758 344.689L245.602 343.257Z"
        fill="#263238" />
    <path
        d="M221.747 339.376C223.58 339.376 222.904 336.661 224.648 334.85C223.943 334.887 223.231 334.902 222.518 334.902C220.953 337.158 220.515 339.376 221.747 339.376Z"
        fill="white" />
    <path
        d="M225.568 339.235C227.408 339.235 226.926 336 228.736 334.115C228.325 334.258 227.906 334.379 227.482 334.479C227.119 334.56 226.74 334.62 226.392 334.672C224.767 336.957 224.299 339.235 225.568 339.235Z"
        fill="white" />
    <path
        d="M243.68 333.039C243.556 332.445 243.218 331.917 242.73 331.555L232.832 331.311C231.774 332.638 230.342 333.618 228.722 334.123C226.911 336.007 227.393 339.243 225.553 339.243C224.299 339.243 224.767 336.965 226.377 334.679C225.805 334.768 225.227 334.82 224.648 334.857C222.904 336.668 223.579 339.384 221.747 339.384C220.515 339.384 220.953 337.158 222.489 334.932H221.101C220.678 334.932 220.255 334.894 219.832 334.857C216.197 337.736 215.885 340.86 216.352 345.757C216.979 345.875 217.614 345.942 218.252 345.958C220.294 345.934 222.334 345.788 224.359 345.52C227.63 345.236 230.923 345.321 234.175 345.772C236.364 346.076 238.575 346.551 240.749 346.188C242.923 345.824 244.919 344.615 245.543 343.301L243.68 333.039Z"
        fill="#151D31" />
    <path d="M243.68 333.039C243.556 332.445 243.218 331.917 242.73 331.555L232.832 331.311C231.774 332.638 230.342 333.618 228.722 334.123C226.911 336.007 227.393 339.243 225.553 339.243C224.299 339.243 224.767 336.965 226.377 334.679C225.805 334.768 225.227 334.82 224.648 334.857C222.904 336.668 223.579 339.384 221.747 339.384C220.515 339.384 220.953 337.158 222.489 334.932H221.101C220.678 334.932 220.255 334.894 219.832 334.857C216.197 337.736 215.885 340.86 216.352 345.757C216.979 345.875 217.614 345.942 218.252 345.958C220.294 345.934 222.334 345.788 224.359 345.52C227.63 345.236 230.923 345.321 234.175 345.772C236.364 346.076 238.575 346.551 240.749 346.188C242.923 345.824 244.919 344.615 245.543 343.301L243.68 333.039Z"
        fill="black"
        opacity="0.4" />
    <path
        d="M219.862 334.813C218.2 334.68 216.516 334.427 214.913 334.813C212.91 335.303 210.988 336.69 210.461 338.694C210.322 339.262 210.297 339.852 210.387 340.43C210.617 341.879 211.386 343.188 212.539 344.095C213.665 344.946 214.986 345.502 216.382 345.713C215.922 340.816 216.226 337.692 219.862 334.813Z"
        fill="white" />
    <path
        d="M232.55 328.483V333.247C232.55 333.767 232.757 334.265 233.124 334.632C233.491 335 233.99 335.206 234.509 335.206H239.495C240.33 335.208 241.133 334.885 241.733 334.304C242.333 333.723 242.683 332.932 242.708 332.097L242.827 328.483H232.55Z"
        fill="#AD5252" />
    <path
        d="M268.997 326.48C268.728 327.058 268.312 327.556 267.792 327.924C267.271 328.292 266.664 328.518 266.029 328.58C264.696 328.681 263.365 328.354 262.23 327.645C260.509 326.554 259.841 324.84 258.669 323.297C257.446 321.799 256.06 320.443 254.536 319.253C252.97 317.94 251.412 316.53 250.573 314.668C250.343 314.132 250.186 313.568 250.106 312.991C249.962 314.087 250.124 315.201 250.573 316.211C251.412 318.073 252.97 319.491 254.536 320.797C256.058 321.989 257.444 323.345 258.669 324.84C259.841 326.384 260.509 328.105 262.23 329.196C263.366 329.901 264.696 330.228 266.029 330.131C266.663 330.064 267.27 329.835 267.789 329.466C268.309 329.097 268.725 328.6 268.997 328.024C269.196 327.153 269.256 326.257 269.175 325.367C269.176 325.745 269.116 326.121 268.997 326.48Z"
        fill="#263238" />
    <path
        d="M257.749 315.988C257.56 316.229 257.463 316.529 257.474 316.834C257.505 316.974 257.571 317.104 257.665 317.212C257.76 317.32 257.881 317.402 258.016 317.45C258.211 317.501 258.415 317.501 258.61 317.45C258.805 317.399 258.983 317.3 259.129 317.161C259.409 316.885 259.658 316.578 259.871 316.248C260.358 315.614 260.972 315.089 261.673 314.706C262.374 314.322 263.148 314.089 263.944 314.022L262.705 312.894C261.936 312.938 261.181 313.124 260.479 313.443C259.333 313.997 258.382 314.884 257.749 315.988Z"
        fill="white" />
    <path
        d="M258.016 312.055C256.852 312.601 255.885 313.492 255.248 314.608C255.073 314.843 254.986 315.132 255.003 315.424C255.035 315.564 255.101 315.693 255.196 315.801C255.29 315.908 255.41 315.991 255.545 316.04C255.74 316.091 255.944 316.091 256.139 316.04C256.334 315.989 256.512 315.89 256.658 315.751C256.936 315.47 257.185 315.162 257.4 314.831C258.066 313.994 258.945 313.353 259.945 312.976C260.744 312.682 261.598 312.571 262.445 312.649L261.221 311.529C260.125 311.418 259.019 311.6 258.016 312.055Z"
        fill="white" />
    <path
        d="M260.479 310.817C259.352 309.722 258.034 308.842 256.591 308.22C254.825 307.552 252.621 307.648 251.256 308.962C250.758 309.49 250.392 310.128 250.186 310.824C249.979 311.52 249.939 312.254 250.069 312.969C250.148 313.546 250.306 314.11 250.536 314.645C250.859 315.345 251.273 315.999 251.768 316.589C252.28 312.33 255.946 310.334 260.479 310.817Z"
        fill="white" />
    <path
        d="M269.094 322.28C269.114 320.832 268.78 319.401 268.122 318.11L265.718 315.587L264.004 314.022C263.207 314.089 262.434 314.322 261.732 314.706C261.031 315.089 260.417 315.614 259.93 316.248C259.717 316.578 259.468 316.884 259.188 317.16C259.043 317.3 258.864 317.399 258.669 317.45C258.474 317.501 258.27 317.501 258.075 317.45C257.929 317.41 257.796 317.332 257.69 317.224C257.585 317.116 257.51 316.981 257.474 316.834C257.462 316.542 257.548 316.255 257.719 316.018C258.36 314.909 259.322 314.022 260.479 313.473C261.181 313.153 261.936 312.967 262.705 312.924L262.423 312.671C261.576 312.593 260.722 312.705 259.923 312.998C258.923 313.376 258.044 314.017 257.378 314.853C257.162 315.184 256.914 315.492 256.636 315.773C256.49 315.912 256.312 316.012 256.117 316.062C255.922 316.113 255.717 316.113 255.523 316.062C255.388 316.013 255.268 315.931 255.174 315.823C255.079 315.716 255.013 315.586 254.981 315.446C254.965 315.144 255.06 314.846 255.248 314.608C255.839 313.565 256.722 312.718 257.789 312.171C258.856 311.624 260.059 311.4 261.251 311.529H261.206L260.464 310.861C255.931 310.379 252.228 312.345 251.753 316.634C252.576 317.601 253.49 318.485 254.484 319.275C256.008 320.465 257.394 321.821 258.617 323.319C259.789 324.862 260.457 326.576 262.178 327.667C263.313 328.376 264.644 328.703 265.977 328.602C266.612 328.54 267.22 328.314 267.74 327.946C268.261 327.578 268.676 327.08 268.945 326.502C269.064 326.143 269.125 325.767 269.124 325.389C269.166 324.353 269.156 323.315 269.094 322.28Z"
        fill="#151D31" />
    <path d="M269.094 322.28C269.114 320.832 268.78 319.401 268.122 318.11L265.718 315.587L264.004 314.022C263.207 314.089 262.434 314.322 261.732 314.706C261.031 315.089 260.417 315.614 259.93 316.248C259.717 316.578 259.468 316.884 259.188 317.16C259.043 317.3 258.864 317.399 258.669 317.45C258.474 317.501 258.27 317.501 258.075 317.45C257.929 317.41 257.796 317.332 257.69 317.224C257.585 317.116 257.51 316.981 257.474 316.834C257.462 316.542 257.548 316.255 257.719 316.018C258.36 314.909 259.322 314.022 260.479 313.473C261.181 313.153 261.936 312.967 262.705 312.924L262.423 312.671C261.576 312.593 260.722 312.705 259.923 312.998C258.923 313.376 258.044 314.017 257.378 314.853C257.162 315.184 256.914 315.492 256.636 315.773C256.49 315.912 256.312 316.012 256.117 316.062C255.922 316.113 255.717 316.113 255.523 316.062C255.388 316.013 255.268 315.931 255.174 315.823C255.079 315.716 255.013 315.586 254.981 315.446C254.965 315.144 255.06 314.846 255.248 314.608C255.839 313.565 256.722 312.718 257.789 312.171C258.856 311.624 260.059 311.4 261.251 311.529H261.206L260.464 310.861C255.931 310.379 252.228 312.345 251.753 316.634C252.576 317.601 253.49 318.485 254.484 319.275C256.008 320.465 257.394 321.821 258.617 323.319C259.789 324.862 260.457 326.576 262.178 327.667C263.313 328.376 264.644 328.703 265.977 328.602C266.612 328.54 267.22 328.314 267.74 327.946C268.261 327.578 268.676 327.08 268.945 326.502C269.064 326.143 269.125 325.767 269.124 325.389C269.166 324.353 269.156 323.315 269.094 322.28Z"
        fill="black"
        opacity="0.4" />
    <path
        d="M260.442 314.742L260.731 319.854C263.959 321.717 267.357 320.707 268.485 319.528L268.7 314.742H260.442Z"
        fill="#AD5252" />
    <path
        d="M270.34 222.326C271.899 227.008 269.984 249.231 269.072 270.556C272.455 278.621 271.542 301.497 269.591 317.747C269.591 317.747 266.215 319.824 260.101 317.747L252.436 272.9L251.367 247.554C251.367 247.554 249.446 270.036 247.234 284.468C249.312 295.517 248.793 297.594 243.658 331.585C241.873 332.481 239.904 332.947 237.908 332.947C235.911 332.947 233.942 332.481 232.157 331.585C229.256 283.837 230.317 240.319 230.873 224.67L270.34 222.326Z"
        fill="#151D31" />
    <path d="M270.34 222.326C271.899 227.008 269.984 249.231 269.072 270.556C272.455 278.621 271.542 301.497 269.591 317.747C269.591 317.747 266.215 319.824 260.101 317.747L252.436 272.9L251.367 247.554C251.367 247.554 249.446 270.036 247.234 284.468C249.312 295.517 248.793 297.594 243.658 331.585C241.873 332.481 239.904 332.947 237.908 332.947C235.911 332.947 233.942 332.481 232.157 331.585C229.256 283.837 230.317 240.319 230.873 224.67L270.34 222.326Z"
        fill="black"
        opacity="0.2" />
    <path d="M252.02 262.98L251.152 242.308C255.011 241.447 257.652 240.371 261.622 235.147C259.032 242.634 254.506 244.46 254.506 244.46L252.02 262.98Z"
        fill="black"
        opacity="0.3" />
    <path
        d="M230.057 185.448V225.932C253.89 235.919 269.339 226.896 271.438 222.222C270.34 205.734 274.236 186.465 273.932 178.273C273.627 170.081 272.633 160.851 259.93 162.691L246.426 163.982L239.577 165.652L230.057 185.448Z"
        fill="#455A64" />
    <path d="M230.057 190.694L239.822 179.942C238.238 187.326 234.888 194.216 230.057 200.021V190.694Z"
        fill="black"
        opacity="0.1" />
    <path
        d="M216.278 183.274L229.078 170.66C231.929 167.853 235.633 166.075 239.607 165.607H239.837C245.253 177.479 238.086 183.274 238.086 183.274L226.214 194.212C221.715 191.853 218.195 187.979 216.278 183.274Z"
        fill="#37474F" />
    <path
        d="M239.948 136.202C239.05 135.393 239.674 134.087 239.674 134.087C239.338 134.189 238.984 134.216 238.637 134.167C238.29 134.119 237.957 133.995 237.663 133.805C237.371 133.629 237.135 133.376 236.979 133.073C236.823 132.77 236.754 132.43 236.78 132.091C236.816 131.752 236.963 131.433 237.197 131.185C237.432 130.937 237.741 130.773 238.078 130.718C237.45 130.577 236.901 130.2 236.542 129.665C236.154 129.154 235.981 128.513 236.06 127.877C236.169 127.296 236.433 126.756 236.825 126.314C237.218 125.872 237.722 125.545 238.286 125.369C239.428 125.037 240.631 124.971 241.803 125.176C241.618 124.533 241.666 123.847 241.937 123.236C242.209 122.625 242.687 122.13 243.287 121.837C243.829 121.653 244.407 121.606 244.971 121.699C245.536 121.792 246.068 122.023 246.522 122.371C247.418 123.077 248.191 123.927 248.808 124.886C250.094 124.189 251.516 123.781 252.976 123.69C254.436 123.599 255.898 123.828 257.26 124.36C258.623 124.891 259.853 125.714 260.865 126.77C261.877 127.826 262.647 129.09 263.121 130.474C264.187 130.83 265.15 131.442 265.926 132.255C266.701 133.068 267.267 134.059 267.573 135.141C268.117 137.31 267.983 139.595 267.187 141.685C266.393 143.772 265.368 145.763 264.13 147.621L262.438 150.3C261.733 151.42 259.923 154.203 259.21 155.316C257.627 156.054 255.884 156.385 254.14 156.279C252.395 156.172 250.705 155.632 249.223 154.707C246.323 152.771 244.085 149.992 242.812 146.746C241.51 143.335 240.55 139.803 239.948 136.202Z"
        fill="#263238" />
    <path
        d="M254.959 156.429C252.925 156.424 250.931 155.862 249.193 154.804C246.259 152.857 243.999 150.05 242.723 146.768C241.401 143.38 240.424 139.867 239.807 136.283C239.567 136.023 239.404 135.702 239.336 135.355C239.268 135.008 239.298 134.648 239.421 134.317C238.782 134.419 238.128 134.284 237.581 133.939C237.265 133.747 237.009 133.471 236.84 133.142C236.671 132.814 236.596 132.445 236.624 132.076C236.657 131.793 236.758 131.521 236.92 131.286C237.082 131.05 237.298 130.858 237.551 130.726C237.098 130.508 236.707 130.179 236.416 129.769C236.003 129.224 235.817 128.54 235.897 127.862C236.01 127.247 236.291 126.676 236.709 126.211C237.127 125.746 237.665 125.406 238.264 125.228C239.349 124.906 240.491 124.827 241.61 124.998C241.483 124.344 241.575 123.666 241.873 123.07C242.171 122.474 242.658 121.994 243.257 121.703C243.822 121.506 244.427 121.452 245.018 121.546C245.608 121.641 246.166 121.881 246.641 122.245C247.515 122.933 248.267 123.764 248.867 124.701C250.161 124.035 251.58 123.648 253.033 123.563C254.486 123.479 255.941 123.7 257.303 124.211C258.663 124.77 259.893 125.604 260.915 126.661C261.936 127.719 262.728 128.976 263.239 130.355C264.319 130.721 265.294 131.345 266.079 132.172C266.863 133 267.435 134.006 267.743 135.104C268.305 137.316 268.171 139.648 267.358 141.782C266.557 143.868 265.527 145.859 264.286 147.718L262.594 150.389C262.238 150.96 261.592 151.954 260.954 152.941C260.316 153.928 259.715 154.856 259.366 155.412V155.449H259.329C257.969 156.114 256.472 156.45 254.959 156.429ZM239.978 133.812L239.814 134.154C239.657 134.463 239.596 134.812 239.64 135.156C239.684 135.5 239.83 135.823 240.059 136.083H240.096V136.135C240.715 139.715 241.689 143.225 243.005 146.612C244.059 149.075 246.018 152.452 249.349 154.499C250.801 155.411 252.457 155.945 254.167 156.054C255.878 156.163 257.588 155.843 259.144 155.123L260.717 152.689C261.355 151.702 261.993 150.708 262.349 150.144C262.913 149.254 263.484 148.363 264.041 147.465C265.269 145.628 266.289 143.659 267.083 141.596C267.865 139.536 268 137.287 267.469 135.148C267.164 134.091 266.607 133.123 265.845 132.328C265.084 131.534 264.142 130.935 263.098 130.585H263.024V130.511C262.532 129.158 261.761 127.923 260.763 126.886C259.766 125.848 258.562 125.031 257.229 124.486C255.886 123.982 254.452 123.769 253.021 123.86C251.59 123.951 250.195 124.343 248.926 125.012L248.808 125.072L248.733 124.968C248.136 124.021 247.383 123.18 246.507 122.482C246.075 122.151 245.568 121.931 245.031 121.842C244.495 121.753 243.944 121.797 243.428 121.97C242.866 122.248 242.418 122.714 242.163 123.287C241.908 123.861 241.862 124.505 242.033 125.109L242.122 125.346H241.862C240.715 125.149 239.539 125.213 238.42 125.532C237.876 125.691 237.387 125.997 237.006 126.415C236.625 126.834 236.367 127.35 236.26 127.906C236.193 128.506 236.357 129.109 236.72 129.59C237.057 130.088 237.568 130.44 238.152 130.577L239.31 130.748L238.152 130.889C237.851 130.94 237.574 131.088 237.364 131.31C237.154 131.532 237.022 131.817 236.987 132.121C236.963 132.431 237.026 132.742 237.168 133.019C237.311 133.296 237.529 133.527 237.796 133.686C238.071 133.864 238.381 133.98 238.706 134.026C239.03 134.072 239.36 134.047 239.673 133.953L239.978 133.812Z"
        fill="#272525" />
    <path
        d="M238.405 143.14L236.268 146.85L238.382 147.636C238.312 146.138 238.319 144.637 238.405 143.14Z"
        fill="#AD5252" />
    <path
        d="M239.948 136.202C239.163 138.446 238.645 140.774 238.405 143.139C238.327 144.635 238.327 146.133 238.405 147.628C238.496 149.732 238.744 151.825 239.147 153.891C239.284 155.027 239.708 156.11 240.378 157.037C241.265 157.989 242.492 158.552 243.792 158.603C245.078 158.648 246.365 158.526 247.62 158.239V164.316C252.236 165.407 256.057 165.889 259.678 163.099L259.292 155.278C257.074 155.59 254.814 155.233 252.799 154.255C249.609 152.533 248.718 149.803 249.164 148.252C249.448 148.626 249.835 148.908 250.279 149.064C250.722 149.22 251.201 149.242 251.657 149.127C252.095 149.008 252.504 148.801 252.86 148.519C253.215 148.237 253.51 147.886 253.727 147.487C254.143 146.682 254.395 145.802 254.469 144.898C254.695 143.807 254.527 142.671 253.994 141.692C253.588 141.146 253.026 140.737 252.381 140.52C251.737 140.302 251.041 140.287 250.388 140.476C249.078 140.886 247.985 141.799 247.346 143.013C247.139 143.388 246.961 143.777 246.812 144.178C246.744 144.318 246.634 144.433 246.497 144.507C246.36 144.581 246.204 144.61 246.05 144.59C245.896 144.57 245.752 144.503 245.638 144.397C245.525 144.291 245.447 144.152 245.417 144C245.248 142.252 245.564 140.491 246.329 138.91C245.801 139.178 245.215 139.315 244.623 139.311C244.313 139.31 244.008 139.244 243.726 139.116C243.445 138.988 243.194 138.801 242.99 138.569C242.802 138.324 242.696 138.026 242.685 137.717C242.675 137.409 242.76 137.105 242.931 136.847C241.402 137.589 239.948 136.202 239.948 136.202Z"
        fill="#C77070" />
</svg>
