<svg fill="none" height="51" viewBox="0 0 51 51" width="51" xmlns="http://www.w3.org/2000/svg">
    <path
        d="M27.625 37.1875C27.625 37.7511 27.4011 38.2916 27.0026 38.6901C26.6041 39.0886 26.0636 39.3125 25.5 39.3125C24.9364 39.3125 24.3959 39.0886 23.9974 38.6901C23.5989 38.2916 23.375 37.7511 23.375 37.1875C23.375 36.6239 23.5989 36.0834 23.9974 35.6849C24.3959 35.2864 24.9364 35.0625 25.5 35.0625C26.0636 35.0625 26.6041 35.2864 27.0026 35.6849C27.4011 36.0834 27.625 36.6239 27.625 37.1875ZM27.0938 19.6562C27.0938 19.2336 26.9258 18.8282 26.627 18.5293C26.3281 18.2304 25.9227 18.0625 25.5 18.0625C25.0773 18.0625 24.6719 18.2304 24.373 18.5293C24.0742 18.8282 23.9062 19.2336 23.9062 19.6562V29.2188C23.9062 29.6414 24.0742 30.0468 24.373 30.3457C24.6719 30.6446 25.0773 30.8125 25.5 30.8125C25.9227 30.8125 26.3281 30.6446 26.627 30.3457C26.9258 30.0468 27.0938 29.6414 27.0938 29.2188V19.6562Z"
        fill="#151D31" />
    <path
        d="M20.9015 6.89346C22.9479 3.35534 28.0521 3.35534 30.0985 6.89346L49.1534 39.8395C51.1998 43.3818 48.6434 47.8125 44.5528 47.8125H6.44725C2.3545 47.8125 -0.199747 43.3818 1.84663 39.8395L20.9015 6.89346ZM27.3403 8.48934C27.1529 8.1674 26.8843 7.90025 26.5614 7.71456C26.2385 7.52888 25.8725 7.43115 25.5 7.43115C25.1275 7.43115 24.7615 7.52888 24.4386 7.71456C24.1157 7.90025 23.8471 8.1674 23.6598 8.48934L4.607 41.4353C4.42133 41.7586 4.32381 42.125 4.32418 42.4978C4.32455 42.8707 4.42281 43.2369 4.60912 43.5598C4.79544 43.8827 5.06328 44.1511 5.38585 44.338C5.70843 44.5249 6.07443 44.6239 6.44725 44.625H44.5528C44.9253 44.6237 45.2909 44.5247 45.6132 44.3378C45.9355 44.151 46.2031 43.8829 46.3894 43.5603C46.5756 43.2377 46.674 42.8719 46.6746 42.4994C46.6752 42.1269 46.5781 41.7607 46.393 41.4375L27.3403 8.48934Z"
        fill="#151D31" />
</svg>
