<svg fill="none" height="24" viewBox="0 0 24 24" width="24" xmlns="http://www.w3.org/2000/svg">
    <g clip-path="url(#clip0_1_3029)">
        <path
            d="M16.773 0.0120105C16.722 -0.0449895 14.8845 0.0345106 13.2855 1.77001C11.6865 3.50401 11.9325 5.49301 11.9685 5.54401C12.0045 5.59501 14.2485 5.67451 15.681 3.65701C17.1135 1.63951 16.824 0.0705105 16.773 0.0120105V0.0120105ZM21.744 17.6115C21.672 17.4675 18.2565 15.7605 18.5745 12.4785C18.8925 9.19501 21.087 8.29501 21.1215 8.19751C21.156 8.10001 20.226 7.01251 19.2405 6.46201C18.5169 6.07389 17.7161 5.85152 16.896 5.81101C16.734 5.80651 16.1715 5.66851 15.015 5.98501C14.253 6.19351 12.5355 6.86851 12.063 6.89551C11.589 6.92251 10.179 6.11251 8.66251 5.89801C7.69201 5.71051 6.66301 6.09451 5.92651 6.39001C5.19151 6.68401 3.79351 7.52101 2.81551 9.74551C1.83751 11.9685 2.34901 15.4905 2.71501 16.5855C3.08101 17.679 3.65251 19.4715 4.62451 20.7795C5.48851 22.2555 6.63451 23.28 7.11301 23.628C7.59151 23.976 8.94151 24.207 9.87751 23.7285C10.6305 23.2665 11.9895 23.001 12.5265 23.0205C13.062 23.04 14.118 23.2515 15.1995 23.829C16.056 24.1245 16.866 24.0015 17.6775 23.6715C18.489 23.34 19.6635 22.083 21.0345 19.5345C21.555 18.3495 21.792 17.709 21.744 17.6115V17.6115Z"
            fill="black" />
        <path
            d="M16.773 0.0120105C16.722 -0.0449895 14.8845 0.0345106 13.2855 1.77001C11.6865 3.50401 11.9325 5.49301 11.9685 5.54401C12.0045 5.59501 14.2485 5.67451 15.681 3.65701C17.1135 1.63951 16.824 0.0705105 16.773 0.0120105V0.0120105ZM21.744 17.6115C21.672 17.4675 18.2565 15.7605 18.5745 12.4785C18.8925 9.19501 21.087 8.29501 21.1215 8.19751C21.156 8.10001 20.226 7.01251 19.2405 6.46201C18.5169 6.07389 17.7161 5.85152 16.896 5.81101C16.734 5.80651 16.1715 5.66851 15.015 5.98501C14.253 6.19351 12.5355 6.86851 12.063 6.89551C11.589 6.92251 10.179 6.11251 8.66251 5.89801C7.69201 5.71051 6.66301 6.09451 5.92651 6.39001C5.19151 6.68401 3.79351 7.52101 2.81551 9.74551C1.83751 11.9685 2.34901 15.4905 2.71501 16.5855C3.08101 17.679 3.65251 19.4715 4.62451 20.7795C5.48851 22.2555 6.63451 23.28 7.11301 23.628C7.59151 23.976 8.94151 24.207 9.87751 23.7285C10.6305 23.2665 11.9895 23.001 12.5265 23.0205C13.062 23.04 14.118 23.2515 15.1995 23.829C16.056 24.1245 16.866 24.0015 17.6775 23.6715C18.489 23.34 19.6635 22.083 21.0345 19.5345C21.555 18.3495 21.792 17.709 21.744 17.6115V17.6115Z"
            fill="black" />
    </g>
    <defs>
        <clipPath id="clip0_1_3029">
            <rect fill="white" height="24" width="24" />
        </clipPath>
    </defs>
</svg>
