<svg fill="none" height="24" viewBox="0 0 24 24" width="24" xmlns="http://www.w3.org/2000/svg">
    <path
        d="M9.625 5.25V5.75H10.125H13.875H14.375V5.25V4.875C14.375 4.24511 14.1248 3.64102 13.6794 3.19562C13.234 2.75022 12.6299 2.5 12 2.5C11.3701 2.5 10.766 2.75022 10.3206 3.19562C9.87522 3.64102 9.625 4.24511 9.625 4.875V5.25ZM8.625 5.75H9.125V5.25V4.875C9.125 4.1125 9.4279 3.38124 9.96707 2.84207C10.5062 2.3029 11.2375 2 12 2C12.7625 2 13.4938 2.3029 14.0329 2.84207C14.5721 3.38124 14.875 4.1125 14.875 4.875V5.25V5.75H15.375H21C21.0663 5.75 21.1299 5.77634 21.1768 5.82322C21.2237 5.87011 21.25 5.9337 21.25 6C21.25 6.0663 21.2237 6.12989 21.1768 6.17678C21.1299 6.22366 21.0663 6.25 21 6.25H19.869H19.4228L19.3722 6.69327L17.9532 19.1192C17.9532 19.1192 17.9532 19.1192 17.9532 19.1193C17.8625 19.9124 17.4831 20.6443 16.8873 21.1756C16.2915 21.7069 15.521 22.0004 14.7227 22H14.7225H9.2775H9.27726C8.47897 22.0004 7.70847 21.7069 7.11267 21.1756C6.51688 20.6443 6.13747 19.9124 6.04677 19.1193C6.04677 19.1192 6.04677 19.1192 6.04676 19.1192L4.62777 6.69327L4.57715 6.25H4.131H3C2.9337 6.25 2.87011 6.22366 2.82322 6.17678C2.77634 6.12989 2.75 6.0663 2.75 6C2.75 5.9337 2.77634 5.87011 2.82322 5.82322C2.87011 5.77634 2.9337 5.75 3 5.75H8.625ZM9.27589 21.5H9.276H14.7233H14.7234C15.3986 21.4998 16.0502 21.2512 16.554 20.8016C17.0577 20.3519 17.3784 19.7327 17.455 19.0618C17.455 19.0618 17.455 19.0617 17.455 19.0617L18.8568 6.80682L18.9205 6.25H18.36H5.64075H5.08037L5.14398 6.80676L6.54422 19.0617C6.54422 19.0617 6.54423 19.0617 6.54423 19.0618C6.62078 19.7326 6.94149 20.3519 7.44523 20.8016C7.949 21.2512 8.60062 21.4998 9.27589 21.5ZM9.75 9.875C9.8163 9.875 9.87989 9.90134 9.92678 9.94822L10.2568 9.61824L9.92678 9.94823C9.97366 9.99511 10 10.0587 10 10.125V17.625C10 17.6913 9.97366 17.7549 9.92678 17.8018C9.87989 17.8487 9.8163 17.875 9.75 17.875C9.6837 17.875 9.62011 17.8487 9.57322 17.8018C9.52634 17.7549 9.5 17.6913 9.5 17.625V10.125C9.5 10.0587 9.52634 9.99511 9.57322 9.94823L9.21967 9.59467L9.57322 9.94822C9.62011 9.90134 9.6837 9.875 9.75 9.875ZM14.4268 9.94822C14.4737 9.99511 14.5 10.0587 14.5 10.125V17.625C14.5 17.6913 14.4737 17.7549 14.4268 17.8018C14.3799 17.8487 14.3163 17.875 14.25 17.875C14.1837 17.875 14.1201 17.8487 14.0732 17.8018C14.0263 17.7549 14 17.6913 14 17.625V10.125C14 10.0587 14.0263 9.99511 14.0732 9.94823C14.1201 9.90134 14.1837 9.875 14.25 9.875C14.3163 9.875 14.3799 9.90134 14.4268 9.94822Z"
        fill="black" stroke="#EF233C" />
</svg>
