<svg fill="none" height="18" viewBox="0 0 18 18" width="18" xmlns="http://www.w3.org/2000/svg">
    <path
        d="M9.61498 4.18434L8.99946 4.80122L8.38198 4.18379C6.80772 2.60948 4.25527 2.60948 2.68097 4.18379C1.10667 5.75808 1.10667 8.31052 2.68097 9.88485L8.60248 15.8063C8.82216 16.026 9.17833 16.026 9.39801 15.8063L15.3241 9.88373C16.8949 8.30423 16.8976 5.75893 15.323 4.18434C13.7458 2.60717 11.1922 2.60717 9.61498 4.18434ZM14.5264 9.09045L9.00021 14.6131L3.47647 9.08933C2.3415 7.95435 2.3415 6.11424 3.47647 4.97928C4.61143 3.84431 6.45156 3.84431 7.58653 4.97928L8.60458 5.99736C8.82801 6.22076 9.19153 6.21641 9.40948 5.98772L10.4105 4.97984C11.5483 3.84201 13.3897 3.84201 14.5275 4.97984C15.6628 6.11507 15.6608 7.94977 14.5264 9.09045Z"
        fill="#112331" />
</svg>
