<svg fill="none" height="24" viewBox="0 0 24 24" width="24" xmlns="http://www.w3.org/2000/svg">
    <path
        d="M23.761 12.2739C23.762 11.4562 23.6929 10.6399 23.5543 9.83398H12.238V14.4555H18.7195C18.5869 15.1936 18.3061 15.8972 17.8943 16.524C17.4824 17.1507 16.9478 17.6875 16.3229 18.102V21.1019H20.1911C22.456 19.0137 23.761 15.9254 23.761 12.2739Z"
        fill="#4285F4" />
    <path
        d="M12.238 23.9999C15.4763 23.9999 18.2028 22.9366 20.1911 21.1033L16.3229 18.1034C15.2463 18.8334 13.8597 19.25 12.238 19.25C9.10814 19.25 6.45156 17.1401 5.50159 14.2969H1.51672V17.3884C2.51547 19.3758 4.04694 21.0465 5.94015 22.214C7.83336 23.3815 10.0138 23.9998 12.238 23.9999V23.9999Z"
        fill="#34A853" />
    <path
        d="M5.50163 14.2971C4.99941 12.8072 4.99941 11.1937 5.50163 9.70387V6.6123H1.51676C0.676579 8.28417 0.239014 10.1294 0.239014 12.0005C0.239014 13.8716 0.676579 15.7167 1.51676 17.3886L5.50163 14.2971Z"
        fill="#FBBC04" />
    <path
        d="M12.238 4.75063C13.9493 4.72267 15.6028 5.36924 16.8412 6.55057L20.2661 3.12568C18.0944 1.08588 15.2173 -0.03401 12.238 0.000787286C10.0138 0.000888658 7.83336 0.619191 5.94015 1.78667C4.04694 2.95414 2.51547 4.62484 1.51672 6.61224L5.50159 9.7038C6.45156 6.86056 9.10814 4.75063 12.238 4.75063V4.75063Z"
        fill="#EA4335" />
</svg>
