<svg fill="none" height="26" viewBox="0 0 21 26" width="21" xmlns="http://www.w3.org/2000/svg">
    <path
        d="M9.37825 3.41726C5.98478 3.92958 3.27087 6.73226 2.86281 10.3344L2.44609 14.0131C2.34254 14.9272 1.97206 15.7874 1.38364 16.48C0.13494 17.9498 1.1484 20.25 3.04467 20.25H17.9552C19.8514 20.25 20.8649 17.9498 19.6162 16.48C19.0278 15.7874 18.6573 14.9272 18.5538 14.0131L18.2784 11.5823M14.1249 22.6666C13.5973 24.0746 12.1735 25.0833 10.4999 25.0833C8.82634 25.0833 7.40258 24.0746 6.87492 22.6666M20.1666 4.54163C20.1666 6.54366 18.5436 8.16663 16.5416 8.16663C14.5396 8.16663 12.9166 6.54366 12.9166 4.54163C12.9166 2.53959 14.5396 0.916626 16.5416 0.916626C18.5436 0.916626 20.1666 2.53959 20.1666 4.54163Z"
        stroke="#101817" stroke-linecap="round" stroke-width="1.5" />
</svg>
