<svg fill="none" height="43" viewBox="0 0 43 43" width="43" xmlns="http://www.w3.org/2000/svg">
    <path
        d="M31.8101 25.0837C34.0355 25.0837 35.8394 26.8875 35.8394 29.1129V30.1439C35.8394 31.7461 35.2668 33.2956 34.2249 34.5128C31.4131 37.7979 27.136 39.419 21.5007 39.419C15.8643 39.419 11.5894 37.7973 8.78306 34.5109C7.74431 33.2945 7.17365 31.7474 7.17365 30.1478V29.1129C7.17365 26.8875 8.97758 25.0837 11.2029 25.0837H31.8101ZM31.8101 27.7712H11.2029C10.4619 27.7712 9.86115 28.3719 9.86115 29.1129V30.1478C9.86115 31.1076 10.2036 32.0359 10.8268 32.7656C13.0723 35.3952 16.5945 36.7315 21.5007 36.7315C26.4068 36.7315 29.9321 35.3952 32.1831 32.7652C32.8084 32.0348 33.1519 31.1051 33.1519 30.1439V29.1129C33.1519 28.3719 32.5512 27.7712 31.8101 27.7712ZM21.5007 3.59204C26.4482 3.59204 30.459 7.60283 30.459 12.5504C30.459 17.4979 26.4482 21.5087 21.5007 21.5087C16.5531 21.5087 12.5423 17.4979 12.5423 12.5504C12.5423 7.60283 16.5531 3.59204 21.5007 3.59204ZM21.5007 6.27954C18.0374 6.27954 15.2298 9.0871 15.2298 12.5504C15.2298 16.0137 18.0374 18.8212 21.5007 18.8212C24.964 18.8212 27.7715 16.0137 27.7715 12.5504C27.7715 9.0871 24.964 6.27954 21.5007 6.27954Z"
        fill="#151D31" />
</svg>
