<svg fill="none" height="18" viewBox="0 0 18 18" width="18" xmlns="http://www.w3.org/2000/svg">
    <path
        d="M13.3159 10.5002C14.2474 10.5002 15.0025 11.2553 15.0025 12.1868V12.6184C15.0025 13.2891 14.7628 13.9377 14.3267 14.4473C13.1497 15.8224 11.3593 16.501 9.0003 16.501C6.64087 16.501 4.85136 15.8222 3.67664 14.4464C3.24181 13.9373 3.00293 13.2896 3.00293 12.62V12.1868C3.00293 11.2553 3.75807 10.5002 4.68958 10.5002H13.3159ZM13.3159 11.6252H4.68958C4.37939 11.6252 4.12793 11.8766 4.12793 12.1868V12.62C4.12793 13.0218 4.27126 13.4104 4.53215 13.7159C5.47213 14.8166 6.94654 15.376 9.0003 15.376C11.054 15.376 12.5297 14.8166 13.472 13.7157C13.7338 13.4099 13.8775 13.0208 13.8775 12.6184V12.1868C13.8775 11.8766 13.6261 11.6252 13.3159 11.6252ZM9.0003 1.50366C11.0713 1.50366 12.7503 3.1826 12.7503 5.25366C12.7503 7.32473 11.0713 9.00368 9.0003 9.00368C6.9292 9.00368 5.25027 7.32473 5.25027 5.25366C5.25027 3.1826 6.9292 1.50366 9.0003 1.50366ZM9.0003 2.62866C7.55055 2.62866 6.37527 3.80392 6.37527 5.25366C6.37527 6.70341 7.55055 7.87868 9.0003 7.87868C10.45 7.87868 11.6253 6.70341 11.6253 5.25366C11.6253 3.80392 10.45 2.62866 9.0003 2.62866Z"
        fill="#112331" />
</svg>
