<svg fill="none" height="18" viewBox="0 0 18 18" width="18" xmlns="http://www.w3.org/2000/svg">
    <path
        d="M7.5 2.0625C10.5031 2.0625 12.9375 4.49696 12.9375 7.5C12.9375 8.79892 12.482 9.99143 11.7221 10.9266L15.3977 14.6023C15.6174 14.8219 15.6174 15.1781 15.3977 15.3977C15.1981 15.5975 14.8856 15.6156 14.6653 15.4522L14.6023 15.3977L10.9266 11.7221C9.99143 12.482 8.79892 12.9375 7.5 12.9375C4.49696 12.9375 2.0625 10.5031 2.0625 7.5C2.0625 4.49696 4.49696 2.0625 7.5 2.0625ZM7.5 3.1875C5.11827 3.1875 3.1875 5.11827 3.1875 7.5C3.1875 9.8817 5.11827 11.8125 7.5 11.8125C9.8817 11.8125 11.8125 9.8817 11.8125 7.5C11.8125 5.11827 9.8817 3.1875 7.5 3.1875Z"
        fill="#B0B0B0" />
</svg>
