<svg fill="none" height="24" viewBox="0 0 24 24" width="24" xmlns="http://www.w3.org/2000/svg">
    <g clip-path="url(#clip0_31_3204)">
        <path
            d="M11.9989 19C12.2438 19 12.4802 19.09 12.6633 19.2527C12.8463 19.4155 12.9632 19.6397 12.9919 19.883L12.9989 20V21C12.9986 21.2549 12.901 21.5 12.726 21.6854C12.5511 21.8707 12.3119 21.9822 12.0575 21.9972C11.8031 22.0121 11.5525 21.9293 11.3571 21.7657C11.1616 21.6021 11.036 21.3701 11.0059 21.117L10.9989 21V20C10.9989 19.7348 11.1042 19.4804 11.2918 19.2929C11.4793 19.1054 11.7337 19 11.9989 19ZM18.3119 16.91L18.4059 16.993L19.1059 17.693C19.2852 17.873 19.3894 18.1144 19.3971 18.3684C19.4049 18.6223 19.3157 18.8697 19.1476 19.0603C18.9796 19.2508 18.7453 19.3703 18.4924 19.3944C18.2395 19.4185 17.9869 19.3454 17.7859 19.19L17.6919 19.107L16.9919 18.407C16.8193 18.2347 16.7156 18.0054 16.7004 17.762C16.6851 17.5187 16.7592 17.2781 16.9088 17.0856C17.0585 16.8931 17.2733 16.7619 17.5129 16.7166C17.7525 16.6714 18.0004 16.7153 18.2099 16.84L18.3119 16.91ZM7.00589 16.993C7.17807 17.1652 7.2815 17.3943 7.29678 17.6373C7.31206 17.8803 7.23814 18.1206 7.08889 18.313L7.00589 18.407L6.30589 19.107C6.12593 19.2863 5.88446 19.3905 5.63051 19.3982C5.37656 19.406 5.12918 19.3168 4.93861 19.1488C4.74805 18.9807 4.62859 18.7464 4.60449 18.4935C4.5804 18.2406 4.65348 17.988 4.80889 17.787L4.89189 17.693L5.59189 16.993C5.77942 16.8055 6.03373 16.7002 6.29889 16.7002C6.56406 16.7002 6.81836 16.8055 7.00589 16.993ZM3.99889 11C4.25377 11.0003 4.49892 11.0979 4.68426 11.2728C4.8696 11.4478 4.98113 11.687 4.99606 11.9414C5.011 12.1958 4.92822 12.4464 4.76463 12.6418C4.60104 12.8373 4.36899 12.9629 4.11589 12.993L3.99889 13H2.99889C2.74401 12.9997 2.49886 12.9021 2.31352 12.7272C2.12819 12.5522 2.01666 12.313 2.00172 12.0586C1.98678 11.8042 2.06957 11.5536 2.23316 11.3582C2.39675 11.1627 2.6288 11.0371 2.88189 11.007L2.99889 11H3.99889ZM20.9989 11C21.2538 11.0003 21.4989 11.0979 21.6843 11.2728C21.8696 11.4478 21.9811 11.687 21.9961 11.9414C22.011 12.1958 21.9282 12.4464 21.7646 12.6418C21.601 12.8373 21.369 12.9629 21.1159 12.993L20.9989 13H19.9989C19.744 12.9997 19.4989 12.9021 19.3135 12.7272C19.1282 12.5522 19.0167 12.313 19.0017 12.0586C18.9868 11.8042 19.0696 11.5536 19.2332 11.3582C19.3967 11.1627 19.6288 11.0371 19.8819 11.007L19.9989 11H20.9989ZM6.21189 4.81L6.30589 4.893L7.00589 5.593C7.18524 5.77296 7.28937 6.01443 7.29712 6.26838C7.30488 6.52233 7.21568 6.76971 7.04764 6.96028C6.87961 7.15084 6.64534 7.27031 6.39242 7.2944C6.13949 7.31849 5.88688 7.24541 5.68589 7.09L5.59189 7.007L4.89189 6.307C4.71998 6.13468 4.61682 5.90557 4.60176 5.66263C4.58669 5.41969 4.66075 5.17959 4.81005 4.98735C4.95936 4.79511 5.17365 4.66393 5.41276 4.61839C5.65187 4.57285 5.89938 4.61609 6.10889 4.74L6.21189 4.81ZM19.1059 4.893C19.2781 5.06519 19.3815 5.29429 19.3968 5.53732C19.4121 5.78034 19.3381 6.0206 19.1889 6.213L19.1059 6.307L18.4059 7.007C18.2259 7.18635 17.9845 7.29047 17.7305 7.29823C17.4766 7.30598 17.2292 7.21678 17.0386 7.04875C16.848 6.88072 16.7286 6.64645 16.7045 6.39353C16.6804 6.1406 16.7535 5.88799 16.9089 5.687L16.9919 5.593L17.6919 4.893C17.8794 4.70553 18.1337 4.60021 18.3989 4.60021C18.6641 4.60021 18.9184 4.70553 19.1059 4.893ZM11.9989 2C12.2438 2.00003 12.4802 2.08996 12.6633 2.25272C12.8463 2.41547 12.9632 2.63975 12.9919 2.883L12.9989 3V4C12.9986 4.25488 12.901 4.50003 12.726 4.68537C12.5511 4.8707 12.3119 4.98223 12.0575 4.99717C11.8031 5.01211 11.5525 4.92933 11.3571 4.76574C11.1616 4.60214 11.036 4.3701 11.0059 4.117L10.9989 4V3C10.9989 2.73478 11.1042 2.48043 11.2918 2.29289C11.4793 2.10536 11.7337 2 11.9989 2ZM11.9989 7C12.9786 6.99994 13.9367 7.28769 14.7542 7.8275C15.5718 8.36731 16.2127 9.1354 16.5975 10.0364C16.9822 10.9373 17.0938 11.9315 16.9184 12.8953C16.7429 13.8592 16.2882 14.7502 15.6107 15.4579C14.9332 16.1655 14.0627 16.6585 13.1074 16.8756C12.1521 17.0928 11.1541 17.0245 10.2372 16.6793C9.32039 16.334 8.52518 15.7271 7.95035 14.9338C7.37552 14.1405 7.04641 13.1958 7.00389 12.217L6.99889 12L7.00389 11.783C7.05981 10.4958 7.6105 9.27978 8.54112 8.38866C9.47173 7.49754 10.7104 7.00007 11.9989 7Z"
            fill="#151D31" />
    </g>
    <defs>
        <clipPath id="clip0_31_3204">
            <rect fill="white" height="24" width="24" />
        </clipPath>
    </defs>
</svg>
